<svg xmlns="http://www.w3.org/2000/svg" viewBox="0 0 133.1 129.82"><defs><style>.cls-1,.cls-2{fill:#fff;}.cls-1{fill-rule:evenodd;}</style></defs><g id="レイヤー_2" data-name="レイヤー 2"><g id="レイヤー_1-2" data-name="レイヤー 1"><g id="レイヤー_2-2" data-name="レイヤー 2"><g id="Layer_1" data-name="Layer 1"><path class="cls-1" d="M66.55,0a66.49,66.49,0,0,0-21,129.58c3.3.66,4.52-1.43,4.52-3.19s0-6.84-.11-12.34c-18.52,4.07-22.37-7.83-22.37-7.83-3.09-7.71-7.39-9.69-7.39-9.69-6.06-4.08.45-4.08.45-4.08,6.72.44,10.24,6.83,10.24,6.83,5.95,10.14,15.54,7.27,19.4,5.51.55-4.3,2.31-7.27,4.18-8.93C39.67,94.21,24.13,88.59,24.13,63A25.55,25.55,0,0,1,31,45.18c-.66-1.66-3-8.49.66-17.63,0,0,5.62-1.77,18.3,6.83a63.43,63.43,0,0,1,33.38,0c12.67-8.6,18.29-6.83,18.29-6.83,3.64,9.14,1.33,16,.66,17.63A25.52,25.52,0,0,1,109.09,63c0,25.56-15.54,31.18-30.42,32.83,2.43,2.1,4.52,6.06,4.52,12.35,0,8.92-.11,16.08-.11,18.29,0,1.76,1.21,3.85,4.52,3.19A66.55,66.55,0,0,0,66.55,0Z"/><path class="cls-2" d="M25.23,95.53c-.11.33-.66.44-1.1.22s-.77-.66-.55-1a.83.83,0,0,1,1.1-.22.89.89,0,0,1,.55,1Z"/><path class="cls-2" d="M27.88,98.51c-.33.33-1,.11-1.32-.33a1,1,0,0,1-.22-1.32c.33-.33.88-.11,1.32.33s.55,1.1.22,1.32Z"/><path class="cls-2" d="M30.52,102.37c-.44.33-1.1,0-1.54-.56a1.06,1.06,0,0,1,0-1.54h0a1.35,1.35,0,0,1,1.54.55A1.07,1.07,0,0,1,30.52,102.37Z"/><path class="cls-2" d="M34.16,106c-.33.44-1.1.33-1.65-.22s-.78-1.32-.33-1.65a1.38,1.38,0,0,1,1.76.22C34.6,104.9,34.6,105.67,34.16,106Z"/><path class="cls-2" d="M39.12,108.21c-.22.55-.88.77-1.66.55s-1.21-.89-1.1-1.33.88-.77,1.66-.55S39.23,107.65,39.12,108.21Z"/><path class="cls-2" d="M44.52,108.65c0,.55-.66,1-1.44,1s-1.43-.44-1.43-1,.66-1,1.43-1S44.52,108.09,44.52,108.65Z"/><path class="cls-2" d="M49.58,107.76c.12.56-.44,1.11-1.21,1.22s-1.43-.22-1.54-.77S47.27,107.1,48,107,49.47,107.21,49.58,107.76Z"/></g></g></g></g></svg>