<svg xmlns="http://www.w3.org/2000/svg" viewBox="0 0 125.87 125.87"><defs><style>.cls-1{fill:#fff;}</style></defs><g id="レイヤー_2" data-name="レイヤー 2"><g id="レイヤー_1-2" data-name="レイヤー 1"><g id="レイヤー_2-2" data-name="レイヤー 2"><g id="レイヤー_1-2-2" data-name="レイヤー 1-2"><path class="cls-1" d="M62.93,125.87a62.94,62.94,0,1,1,62.94-62.94A62.94,62.94,0,0,1,62.93,125.87ZM62.93,8a54.92,54.92,0,1,0,54.92,54.91A54.9,54.9,0,0,0,62.93,8Zm7.32,23.86A92.54,92.54,0,0,1,64.33,16.1V60.71A4.15,4.15,0,0,1,67,64.52a4.08,4.08,0,1,1-5.22-3.88V16.1a87.49,87.49,0,0,1-5.92,15.84A164.46,164.46,0,0,1,45.05,50.27l3.82,52.56s3.63,4.07,14.19,4.07h0c10.56,0,14.19-4.07,14.19-4.07l3.82-52.56A177.48,177.48,0,0,1,70.25,31.88Z"/></g></g></g></g></svg>