<?xml version="1.0" encoding="utf-8"?>
<!-- Generator: Adobe Illustrator 24.2.3, SVG Export Plug-In . SVG Version: 6.00 Build 0)  -->
<svg version="1.1" id="レイヤー_1" xmlns="http://www.w3.org/2000/svg" xmlns:xlink="http://www.w3.org/1999/xlink" x="0px"
	 y="0px" viewBox="0 0 225.6 71.4" style="enable-background:new 0 0 225.6 71.4;" xml:space="preserve">
<style type="text/css">
	.st0{fill:#8877AF;}
	.st1{fill:none;stroke:#FFFFFF;stroke-miterlimit:10;}
	.st2{fill:#FCFCFC;}
</style>
<g id="レイヤー_2_1_">
	<g id="レイヤー_1-2">
		<path class="st0" d="M10.5,0.5h204.6c5.5,0,10,4.5,10,10v50.4c0,5.5-4.5,10-10,10H10.5c-5.5,0-10-4.5-10-10V10.5
			C0.5,5,5,0.5,10.5,0.5z"/>
		<path class="st1" d="M10.5,0.5h204.6c5.5,0,10,4.5,10,10v50.4c0,5.5-4.5,10-10,10H10.5c-5.5,0-10-4.5-10-10V10.5
			C0.5,5,5,0.5,10.5,0.5z"/>
		<path class="st2" d="M66.2,20.6c-0.7,0.5-1.3,1-1.8,1.7c-2.9,2.9-6,5.6-9.3,8v17c0,1.4,0,2.8,0.2,4.2h-3.5
			c0.2-1.4,0.3-2.8,0.2-4.2V32.3c-5.2,3.2-8.1,4.5-15.4,7c-0.4-1-0.9-1.9-1.6-2.7c7.6-2,14.6-5.5,20.8-10.4c3.7-2.9,6.5-5.7,7.6-7.5
			L66.2,20.6z"/>
		<path class="st2" d="M77.7,29.4c1.6,0.2,3.1,0.3,4.7,0.2h20.5c0.9,0.1,1.8,0,2.6-0.3l1.5,1.7c-0.5,0.8-0.8,1.6-1.1,2.5
			c-3.4,9.4-8.9,14.4-19.3,17.9c-0.4-1-1-2-1.7-2.8c5.4-1.5,8.9-3.3,11.9-6.1c2.8-2.6,4.6-5.6,6.5-10.5H82.3c-1.5,0-3.1,0-4.6,0.2
			V29.4z M81.1,20.2c1.4,0.3,2.8,0.3,4.2,0.3h13.4c1.4,0.1,2.8,0,4.2-0.3v3.1c-1.4-0.2-2.8-0.2-4.2-0.2H85.3c-1.4,0-2.8,0-4.2,0.2
			V20.2z"/>
		<path class="st2" d="M145.9,50.8c-3.8-4.6-8-8.8-12.8-12.4c-2.2,2.7-4.8,5.1-7.6,7.2c-2.5,1.8-5.1,3.4-7.8,4.8
			c-0.5-1-1.2-1.9-2-2.6c2.9-1.1,5.7-2.7,8.1-4.6c6.3-4.6,11.2-10.8,14.3-18c0.1-0.2,0.1-0.3,0.2-0.5c0.1-0.1,0.1-0.2,0.1-0.3
			c-0.3,0-0.7,0-1,0L124,24.6c-1.4,0-2.8,0.1-4.1,0.3l-0.1-3.2c1,0.2,2.1,0.2,3.2,0.2h1l14.3-0.2c0.9,0,1.7-0.1,2.6-0.3l1.7,1.7
			c-0.5,0.6-0.8,1.2-1.1,2c-1.7,4-3.9,7.8-6.6,11.2c4.8,3.6,9.2,7.6,13.3,12L145.9,50.8z"/>
		<path class="st2" d="M164,51.7c0.2-1.4,0.3-2.8,0.2-4.2V22.6c0-1.4,0-2.7-0.2-4.1h3.4c-0.2,1.4-0.2,2.8-0.2,4.2v7.5
			c6.2,2.2,12.1,5,17.8,8.4l-1.7,3c-4.7-3.2-9.7-5.8-14.9-7.9c-0.4-0.2-0.9-0.4-1.2-0.7H167c0.1,0.8,0.2,1.6,0.2,2.4v12
			c0,1.4,0,2.8,0.2,4.2L164,51.7z"/>
	</g>
</g>
</svg>
