<?xml version="1.0" encoding="utf-8"?>
<!-- Generator: Adobe Illustrator 24.2.3, SVG Export Plug-In . SVG Version: 6.00 Build 0)  -->
<svg version="1.1" id="レイヤー_1" xmlns="http://www.w3.org/2000/svg" xmlns:xlink="http://www.w3.org/1999/xlink" x="0px"
	 y="0px" viewBox="0 0 225.6 71.4" style="enable-background:new 0 0 225.6 71.4;" xml:space="preserve">
<style type="text/css">
	.st0{fill:#8877AF;}
	.st1{fill:none;stroke:#FFFFFF;stroke-miterlimit:10;}
	.st2{fill:#FCFCFC;}
</style>
<g id="レイヤー_2_1_">
	<g id="レイヤー_1-2">
		<path class="st0" d="M10.5,0.5h204.6c5.5,0,10,4.5,10,10v50.4c0,5.5-4.5,10-10,10H10.5c-5.5,0-10-4.5-10-10V10.5
			C0.5,5,5,0.5,10.5,0.5z"/>
		<path class="st1" d="M10.5,0.5h204.6c5.5,0,10,4.5,10,10v50.4c0,5.5-4.5,10-10,10H10.5c-5.5,0-10-4.5-10-10V10.5
			C0.5,5,5,0.5,10.5,0.5z"/>
		<path class="st2" d="M89.6,19.6c0-0.9-0.1-1.8-0.2-2.7h3c-0.2,0.9-0.2,1.8-0.2,2.7v1.2h10c1.5,0,2.9,0,4.4-0.2v2.6
			c-1.4-0.1-2.8-0.2-4.2-0.2h-2c-0.9,2.3-1.9,4.5-3.1,6.6h7.2c1.6,0,3.1,0,4.7-0.2v2.7c-1.6-0.2-3.1-0.2-4.7-0.2H78.2
			c-1.6,0-3.1,0-4.7,0.2v-2.7c1.6,0.2,3.2,0.3,4.8,0.2h6.2c-0.7-2.3-1.6-4.5-2.7-6.6h-2.1c-1.3,0-2.6,0-3.9,0.2v-2.6
			c1.4,0.2,2.7,0.3,4.1,0.2h9.6L89.6,19.6z M99.9,35.1c1.3,0,2.3,0,3.6-0.2c-0.1,1-0.2,2.1-0.2,3.1v11.8c0,1.2,0.1,2.4,0.2,3.5h-2.8
			v-2H81.6v2h-2.7c0.2-1.2,0.2-2.3,0.2-3.5V38.1c0-1,0-2-0.1-3.1c1.3,0.1,2.3,0.2,3.6,0.2L99.9,35.1z M81.6,41.9h19.2v-4.6H81.6
			V41.9z M81.6,49.1h19.2v-5H81.6V49.1z M94.6,29.6c1.2-2.1,2.2-4.3,3-6.6H84.5c1,2.1,1.9,4.3,2.6,6.6H94.6z"/>
		<path class="st2" d="M133.5,41.7c2.1,2.1,4.6,3.8,7.3,5.1c2.9,1.4,5.8,2.4,8.9,3.2c-0.7,0.7-1.3,1.5-1.7,2.4
			c-7.5-2.6-11.7-5-15.9-9.4c0,0.5,0,0.5,0.1,1.6c0,0.5,0.1,1.7,0.1,2.2v2.2c0,1.4,0.1,2.8,0.2,4.2h-3c0.2-1.4,0.3-2.8,0.2-4.2v-2.2
			c0-0.6,0.1-2.8,0.2-3.8c-3.8,4.1-7.6,6.4-15.2,9.3c-0.4-0.9-1-1.7-1.7-2.3c7.1-2,12.2-4.8,15.7-8.3h-10c-1.5,0-3,0-4.5,0.2v-2.6
			c1.5,0.2,3,0.3,4.4,0.2h11.2v-0.3c0-0.9-0.1-1.8-0.2-2.7h2.9c-0.2,0.9-0.2,1.8-0.2,2.7v0.3h11.5c1.5,0,3,0,4.5-0.2V42
			c-1.5-0.2-3-0.3-4.5-0.2L133.5,41.7z M123.2,31.4c-2.4,1.6-4.8,3.1-7.4,4.3c-0.7,0.4-0.9,0.5-1.4,0.8l-1.1-2.5
			c3.3-1.2,6.4-2.8,9.3-4.8L123.2,31.4z M116.2,19.6c2.1,1.7,4.1,3.5,5.9,5.5l-1.8,1.9c-1.7-2.1-3.7-4-5.9-5.6L116.2,19.6z
			 M128.7,21.2c0.6-1.4,1.1-2.8,1.4-4.3l2.6,0.5c-0.6,1.5-0.9,2.2-1.6,3.8h4c1.3,0,1.9,0,2.9-0.1c-0.1,1-0.2,2.1-0.1,3.1v8.5
			c0,1,0,2.1,0.1,3.1c-0.8-0.1-1.8-0.1-2.8-0.1h-7.9c-1.1,0-2.2,0-3,0.1c0.1-1,0.1-2.1,0.1-3.1v-8.5c0-1,0-2-0.1-3
			c1,0.1,1.6,0.1,3,0.1L128.7,21.2z M126.7,27.3h9v-4.1h-9V27.3z M126.7,33.5h9v-4.2h-9V33.5z M140.1,29.2c3.2,1.5,6.3,3.3,9.2,5.2
			l-1.5,2c-2.9-2.1-5.9-3.9-9.1-5.3L140.1,29.2z M148,21c-2.1,2.4-4.4,4.6-7,6.4l-1.6-1.7c2.6-1.7,4.8-3.9,6.7-6.4L148,21z"/>
	</g>
</g>
</svg>
