<svg xmlns="http://www.w3.org/2000/svg" xmlns:xlink="http://www.w3.org/1999/xlink" viewBox="0 0 546.07 317.28"><defs><style>.cls-1,.cls-2{fill:none;}.cls-2{stroke:#000;stroke-miterlimit:10;}.cls-3{fill:#af8125;}.cls-4{fill:#ffeaaa;}.cls-5{fill:#3f2700;}.cls-6{fill:#5cdcea;}.cls-7{fill:#4f78d3;}.cls-8{fill:#fff;}.cls-9{fill:#91c5e5;}.cls-10{fill:#4379aa;}.cls-11{fill:#87adad;}.cls-12{fill:#00fbff;}.cls-13{fill:#f79c9c;}.cls-14{fill:#eab132;}.cls-15{fill:#470909;}.cls-16{fill:#2a7375;}.cls-17{fill:url(#名称未設定グラデーション_217);}.cls-18{fill:#1ed6d1;}.cls-19{fill:#48cfe5;}.cls-20{fill:#27adad;}.cls-21{fill:#23e5d7;}.cls-22{fill:#81a8cc;}.cls-23{fill:url(#名称未設定グラデーション_124);}.cls-24{fill:url(#新規パターン_22_コピー_2);}.cls-25{fill:#c7f4ff;}.cls-26{fill:#c5ffc5;}.cls-27{fill:#ffb8fd;}.cls-28{fill:#e0e0e0;}.cls-29{fill:url(#名称未設定グラデーション_37);}.cls-30{fill:url(#名称未設定グラデーション_37-2);}.cls-31{fill:url(#名称未設定グラデーション_247);}.cls-32{fill:url(#名称未設定グラデーション_247-2);}.cls-33{fill:url(#名称未設定グラデーション_193);}.cls-34{fill:url(#名称未設定グラデーション_123);}.cls-35{fill:url(#名称未設定グラデーション_37-3);}.cls-36{fill:url(#名称未設定グラデーション_247-3);}.cls-37{fill:url(#名称未設定グラデーション_247-4);}</style><radialGradient id="名称未設定グラデーション_217" cx="72.21" cy="156.24" r="5.94" gradientUnits="userSpaceOnUse"><stop offset="0.33" stop-color="#ff0"/><stop offset="0.78" stop-color="aqua"/><stop offset="0.81"/><stop offset="0.83" stop-color="#aa002a"/><stop offset="0.87" stop-color="#0086ff"/><stop offset="0.96" stop-color="aqua"/></radialGradient><radialGradient id="名称未設定グラデーション_124" cx="390.8" cy="161.02" r="183.53" gradientTransform="translate(228.32 -229.17) rotate(45)" gradientUnits="userSpaceOnUse"><stop offset="0.22" stop-color="#ac9100"/><stop offset="0.7" stop-color="#7f6003" stop-opacity="0.71"/><stop offset="0.87" stop-color="#6d5b0b" stop-opacity="0"/></radialGradient><pattern id="新規パターン_22_コピー_2" data-name="新規パターン 22 コピー 2" width="76.1" height="131.85" patternTransform="translate(48 39.15)" patternUnits="userSpaceOnUse" viewBox="0 0 76.1 131.85"><rect class="cls-1" width="76.1" height="131.85"/><path d="M76.1,88.53l37.52,21.66v43.32L76.1,175.17,38.58,153.51V110.19L76.1,88.53m0-1.16L37.58,109.61v44.48L76.1,176.33l38.52-22.24V109.61L76.1,87.37Z"/><line class="cls-2" x1="76.1" y1="176.2" x2="76.1" y2="87.5"/><line class="cls-2" x1="37.71" y1="154.01" x2="114.49" y2="109.69"/><line class="cls-2" x1="37.77" y1="109.72" x2="114.43" y2="153.98"/><polygon class="cls-2" points="88.78 109.88 76.1 131.85 101.47 131.85 76.1 131.85 88.78 153.82 76.1 131.85 63.42 153.82 76.1 131.85 50.73 131.85 76.1 131.85 63.42 109.88 76.1 131.85 88.78 109.88"/><path d="M76.1,89.37l12,20.74.29.5h24.53l-12,20.74-.29.5.29.5,12,20.74H88.36l-.29.5-12,20.74-12-20.74-.29-.5H39.31l12-20.74.28-.5-.28-.5-12-20.74H63.84l.29-.5,12-20.74m0-2L63.26,109.61H37.58l12.84,22.24L37.58,154.09H63.26L76.1,176.33l12.84-22.24h25.68l-12.84-22.24,12.84-22.24H88.94L76.1,87.37Z"/><path d="M0,88.53l37.52,21.66v43.32L0,175.17l-37.52-21.66V110.19L0,88.53m0-1.16-38.52,22.24v44.48L0,176.33l38.52-22.24V109.61L0,87.37Z"/><line class="cls-2" y1="176.2" y2="87.5"/><line class="cls-2" x1="-38.39" y1="154.01" x2="38.39" y2="109.69"/><line class="cls-2" x1="-38.33" y1="109.72" x2="38.33" y2="153.98"/><polygon class="cls-2" points="12.68 109.88 0 131.85 25.37 131.85 0 131.85 12.68 153.82 0 131.85 -12.68 153.82 0 131.85 -25.37 131.85 0 131.85 -12.68 109.88 0 131.85 12.68 109.88"/><path d="M0,89.37l12,20.74.29.5H36.79l-12,20.74-.29.5.29.5,12,20.74H12.26l-.29.5L0,174.33l-12-20.74-.29-.5H-36.79l12-20.74.28-.5-.28-.5-12-20.74h24.53l.29-.5L0,89.37m0-2-12.84,22.24H-38.52l12.84,22.24-12.84,22.24h25.68L0,176.33l12.84-22.24H38.52L25.68,131.85l12.84-22.24H12.84L0,87.37Z"/><path d="M114.15,22.6l37.52,21.66V87.59l-37.52,21.66L76.63,87.59V44.26L114.15,22.6m0-1.15L75.63,43.69V88.16l38.52,22.24,38.52-22.24V43.69L114.15,21.45Z"/><line class="cls-2" x1="75.76" y1="88.09" x2="152.54" y2="43.76"/><line class="cls-2" x1="75.82" y1="43.8" x2="152.48" y2="88.05"/><path d="M114.15,23.45l12,20.74.29.5h24.53L139,65.43l-.29.5.29.5,12,20.73H126.41l-.29.5-12,20.74-12-20.74-.29-.5H77.36l12-20.73.28-.5-.28-.5-12-20.74h24.53l.29-.5,12-20.74m0-2L101.31,43.69H75.63L88.47,65.93,75.63,88.16h25.68l12.84,22.24L127,88.16h25.68L139.83,65.93l12.84-22.24H127L114.15,21.45Z"/><path d="M38.05,22.6,75.57,44.26V87.59L38.05,109.25.53,87.59V44.26L38.05,22.6m0-1.15L-.47,43.69V88.16L38.05,110.4,76.57,88.16V43.69L38.05,21.45Z"/><line class="cls-2" x1="38.05" y1="110.27" x2="38.05" y2="21.58"/><line class="cls-2" x1="-0.34" y1="88.09" x2="76.44" y2="43.76"/><line class="cls-2" x1="-0.28" y1="43.8" x2="76.38" y2="88.05"/><polygon class="cls-2" points="50.73 43.96 38.05 65.92 63.42 65.92 38.05 65.92 50.73 87.89 38.05 65.92 25.37 87.89 38.05 65.92 12.68 65.92 38.05 65.92 25.37 43.96 38.05 65.92 50.73 43.96"/><path d="M38.05,23.45,50,44.19l.29.5H74.84l-12,20.74-.29.5.29.5,12,20.73H50.31l-.29.5-12,20.74-12-20.74-.29-.5H1.26l12-20.73.28-.5-.28-.5-12-20.74H25.79l.29-.5,12-20.74m0-2L25.21,43.69H-.47L12.37,65.93-.47,88.16H25.21L38.05,110.4,50.89,88.16H76.57L63.73,65.93,76.57,43.69H50.89L38.05,21.45Z"/><path d="M-38,22.6-.53,44.26V87.59L-38,109.25-75.57,87.59V44.26L-38,22.6m0-1.15L-76.57,43.69V88.16L-38,110.4.47,88.16V43.69L-38,21.45Z"/><line class="cls-2" x1="-76.44" y1="88.09" x2="0.34" y2="43.76"/><line class="cls-2" x1="-76.38" y1="43.8" x2="0.28" y2="88.05"/><path d="M-38,23.45l12,20.74.29.5H-1.26l-12,20.74-.29.5.29.5,12,20.73H-25.79l-.29.5L-38,108.4-50,87.66l-.29-.5H-74.84l12-20.73.28-.5-.28-.5-12-20.74h24.53l.29-.5,12-20.74m0-2L-50.89,43.69H-76.57l12.84,22.24L-76.57,88.16h25.68L-38,110.4l12.84-22.24H.47L-12.37,65.93.47,43.69H-25.21L-38,21.45Z"/><path d="M76.1-43.32l37.52,21.66V21.66L76.1,43.32,38.58,21.66V-21.66L76.1-43.32m0-1.16L37.58-22.24V22.24L76.1,44.48l38.52-22.24V-22.24L76.1-44.48Z"/><line class="cls-2" x1="76.1" y1="44.35" x2="76.1" y2="-44.35"/><line class="cls-2" x1="37.71" y1="22.16" x2="114.49" y2="-22.16"/><line class="cls-2" x1="37.77" y1="-22.13" x2="114.43" y2="22.13"/><polygon class="cls-2" points="88.78 -21.97 76.1 0 101.47 0 76.1 0 88.78 21.97 76.1 0 63.42 21.97 76.1 0 50.73 0 76.1 0 63.42 -21.97 76.1 0 88.78 -21.97"/><path d="M76.1-42.48l12,20.74.29.5h24.53L100.91-.5l-.29.5.29.5,12,20.74H88.36l-.29.5-12,20.74-12-20.74-.29-.5H39.31L51.29.5l.28-.5-.28-.5-12-20.74H63.84l.29-.5,12-20.74m0-2L63.26-22.24H37.58L50.42,0,37.58,22.24H63.26L76.1,44.48,88.94,22.24h25.68L101.78,0l12.84-22.24H88.94L76.1-44.48Z"/><path d="M0-43.32,37.52-21.66V21.66L0,43.32-37.52,21.66V-21.66L0-43.32m0-1.16L-38.52-22.24V22.24L0,44.48,38.52,22.24V-22.24L0-44.48Z"/><line class="cls-2" y1="44.35" y2="-44.35"/><line class="cls-2" x1="-38.39" y1="22.16" x2="38.39" y2="-22.16"/><line class="cls-2" x1="-38.33" y1="-22.13" x2="38.33" y2="22.13"/><polygon class="cls-2" points="12.68 -21.97 0 0 25.37 0 0 0 12.68 21.97 0 0 -12.68 21.97 0 0 -25.37 0 0 0 -12.68 -21.97 0 0 12.68 -21.97"/><path d="M0-42.48,12-21.74l.29.5H36.79L24.81-.5l-.29.5.29.5,12,20.74H12.26l-.29.5L0,42.48-12,21.74l-.29-.5H-36.79L-24.81.5l.28-.5-.28-.5-12-20.74h24.53l.29-.5L0-42.48m0-2L-12.84-22.24H-38.52L-25.68,0-38.52,22.24h25.68L0,44.48,12.84,22.24H38.52L25.68,0,38.52-22.24H12.84L0-44.48Z"/></pattern><radialGradient id="名称未設定グラデーション_37" cx="123.77" cy="168.07" r="12.88" gradientUnits="userSpaceOnUse"><stop offset="0.28" stop-color="#fff"/><stop offset="0.29" stop-color="aqua"/><stop offset="0.42" stop-color="#186260"/><stop offset="0.43" stop-color="#1c4745"/><stop offset="0.45" stop-color="aqua"/><stop offset="0.65" stop-color="#fff"/><stop offset="0.74" stop-color="#fff"/><stop offset="0.77" stop-color="#07d0d0"/><stop offset="0.93" stop-color="#07d0d0" stop-opacity="0.1"/></radialGradient><radialGradient id="名称未設定グラデーション_37-2" cx="139.97" cy="296.92" r="20.3" xlink:href="#名称未設定グラデーション_37"/><radialGradient id="名称未設定グラデーション_247" cx="270.33" cy="259.31" r="57.4" gradientUnits="userSpaceOnUse"><stop offset="0.13" stop-opacity="0"/><stop offset="0.16"/><stop offset="0.21"/><stop offset="0.24" stop-color="#fff"/><stop offset="0.26" stop-color="#fff" stop-opacity="0.03"/><stop offset="0.3" stop-color="#fff"/><stop offset="0.36"/><stop offset="0.4" stop-color="#fff"/><stop offset="0.42" stop-color="#fff" stop-opacity="0.03"/><stop offset="0.5" stop-color="#fff" stop-opacity="0.06"/><stop offset="0.55"/><stop offset="0.56"/><stop offset="0.63" stop-color="#fff"/><stop offset="0.67" stop-color="#fff"/><stop offset="0.69" stop-color="#fff" stop-opacity="0.14"/><stop offset="0.89" stop-color="#fff" stop-opacity="0"/><stop offset="0.91" stop-color="#fff"/><stop offset="0.96" stop-color="#fff" stop-opacity="0"/></radialGradient><radialGradient id="名称未設定グラデーション_247-2" cx="122.22" cy="129.58" r="28.12" xlink:href="#名称未設定グラデーション_247"/><radialGradient id="名称未設定グラデーション_193" cx="114.08" cy="257.85" r="32.33" gradientUnits="userSpaceOnUse"><stop offset="0.28" stop-color="#fff"/><stop offset="0.29" stop-color="blue"/><stop offset="0.42" stop-color="#186260"/><stop offset="0.43" stop-color="#1c4745"/><stop offset="0.45" stop-color="#0048ff"/><stop offset="0.65" stop-color="#fff"/><stop offset="0.74" stop-color="#fff"/><stop offset="0.77" stop-color="#0751d0"/><stop offset="0.93" stop-color="#07d0d0" stop-opacity="0.1"/></radialGradient><radialGradient id="名称未設定グラデーション_123" cx="198.76" cy="147.02" r="53.79" gradientUnits="userSpaceOnUse"><stop offset="0.13" stop-color="red" stop-opacity="0"/><stop offset="0.16" stop-color="red"/><stop offset="0.18" stop-color="red"/><stop offset="0.21" stop-color="#fff"/><stop offset="0.3" stop-color="#fff"/><stop offset="0.36" stop-color="#3dffff"/><stop offset="0.4" stop-color="aqua"/><stop offset="0.55" stop-color="red"/><stop offset="0.56" stop-color="#ff8000"/><stop offset="0.66" stop-color="#96ffff"/><stop offset="0.68" stop-color="#ff8000" stop-opacity="0"/><stop offset="0.82" stop-color="#fff" stop-opacity="0"/><stop offset="0.83" stop-color="#ff8000"/><stop offset="1" stop-color="#ff8000" stop-opacity="0"/></radialGradient><radialGradient id="名称未設定グラデーション_37-3" cx="115.71" cy="208.51" r="16.94" xlink:href="#名称未設定グラデーション_37"/><radialGradient id="名称未設定グラデーション_247-3" cx="195.42" cy="279.97" r="36.75" xlink:href="#名称未設定グラデーション_247"/><radialGradient id="名称未設定グラデーション_247-4" cx="152.71" cy="218.34" r="35.68" xlink:href="#名称未設定グラデーション_247"/></defs><g id="レイヤー_2" data-name="レイヤー 2"><g id="レイヤー_3" data-name="レイヤー 3"><path class="cls-1" d="M73.86,92.6l.35.65c-.1-.9-.23-1.76-.36-2.58C73.89,91.83,73.86,92.6,73.86,92.6Z"/><path class="cls-1" d="M51.67,129.58l-.6,1a15.81,15.81,0,0,1-3.79,4.54s.67-.26,1.69-.69l2.62-1.88c.68-.48,1.35-1,2-1.5.2-.19.39-.4.59-.6A9.63,9.63,0,0,1,51.67,129.58Z"/><path class="cls-1" d="M130.92,106.9a6.75,6.75,0,0,1,.76-.67,7.15,7.15,0,0,1,.17-2.28l-.32.22-1.2,3.09Z"/><path class="cls-1" d="M130.24,105.1a6.42,6.42,0,0,0-1.57,1.68A13.93,13.93,0,0,0,130.24,105.1Z"/><path class="cls-1" d="M176.94,281.72c-.63,1-1.31,2-2.07,3.16a5.64,5.64,0,0,0,0,1l2.67-1.43,2.11-1.12.25-.13,1-.53.58-.31a9.42,9.42,0,0,0-3.65-.77A3.64,3.64,0,0,0,176.94,281.72Z"/><path class="cls-1" d="M176.08,287.88a16.21,16.21,0,0,0,.52,3.32l.39-.39-.24-.68h0c-.37-1.11-.62-2.09-.66-2.24Z"/><path class="cls-1" d="M190,170.53a8.74,8.74,0,0,0,2.78,3.8C192.07,172.57,190.91,170.27,190,170.53Z"/><path class="cls-1" d="M176.11,268.67c0,.1-.06.2-.09.3a7.37,7.37,0,0,0-.16,2.65,9.48,9.48,0,0,0,.35,1.73,15.65,15.65,0,0,0,1.2,2.91c.46-.63.91-1.26,1.31-1.87a18.43,18.43,0,0,0,1.9-3.55A12,12,0,0,1,176.9,267,6,6,0,0,0,176.11,268.67Z"/><path class="cls-1" d="M36.4,159.1v0Z"/><path class="cls-1" d="M193.2,219.85a2.78,2.78,0,0,0,.5,1.11C193.54,220.6,193.38,220.23,193.2,219.85Z"/><path class="cls-1" d="M152.12,106a3.13,3.13,0,0,1,.65.34c.22-.65.47-1.25.72-1.81A9.61,9.61,0,0,0,152.12,106Z"/><path class="cls-1" d="M175.59,125.12c1.87.87,2.61-2.16,2.78-3q-1.26-.41-2.46-.72c-.44,1.24-.78,2.46-.92,3,1.32-.9,2.17-1.58,2.17-1.58C176.6,123.6,176.07,124.38,175.59,125.12Z"/><path class="cls-1" d="M177.06,126.37c2.5,2.75,2.95-1.23,3-3.69-.53-.2-1.06-.38-1.58-.55C179.68,126.48,177.06,126.37,177.06,126.37Z"/><path class="cls-1" d="M131.69,106.34l-.52.41.53-.3A.41.41,0,0,1,131.69,106.34Z"/><path class="cls-1" d="M174,122.67a15.94,15.94,0,0,1,1-1.54c-1.26-.3-2.46-.52-3.59-.68,0,.71,0,1.32.06,1.87A9.71,9.71,0,0,1,174,122.67Z"/><path class="cls-1" d="M171.48,123.09a5.57,5.57,0,0,0,.76,2.68l.29,0a23.4,23.4,0,0,1,1.21-2.71A10.54,10.54,0,0,0,171.48,123.09Z"/><path class="cls-1" d="M165.4,103.67l-.1.53a7.77,7.77,0,0,1,1.16-.37Z"/><path class="cls-1" d="M122.67,104.5l.47-.28s-.18.19-.43.49a6.17,6.17,0,0,0,.45,2l.12-.21a11.9,11.9,0,0,0,.07-1.48.92.92,0,0,0,.42.66l3.25-5.45s-1.2,2.34-2.54,5.37c1.27-.63,3.07-3.29,3.07-3.29-1,3.08-2,3.44-2,3.44.17.33.57.22,1.06-.13a20.78,20.78,0,0,1,1.25-2.08s-.26.63-.64,1.6a28.92,28.92,0,0,0,2.74-3c-.34,1.52-2,3.31-3.32,4.52l0,0a18.61,18.61,0,0,1,4.42-2.63c.71-1,3.59-10.92,4.41-13.77-2.69,2.28-4.75,3.72-5.83,4.52a81.71,81.71,0,0,0-7.35,7.06v.09C122.45,103,122.57,103.83,122.67,104.5Z"/><path class="cls-1" d="M125.65,107.64h0l.13-.28c-.12.1-.22.19-.32.26Z"/><path class="cls-1" d="M179,288.94c.58-.53,1.18-1.07,1.81-1.6C180,286.6,179.43,287.54,179,288.94Z"/><path class="cls-1" d="M183.75,203.05a8.51,8.51,0,0,0-.66.56c.25.41.5.86.74,1.34.26-.2.53-.39.8-.56C184.34,203.91,184.05,203.46,183.75,203.05Z"/><path class="cls-1" d="M173.12,293.57a2.08,2.08,0,0,0,.42.54l-.59-1.44A1.71,1.71,0,0,0,173.12,293.57Z"/><path class="cls-1" d="M202.07,313.41a31.1,31.1,0,0,0,4.86,2.06l1.39.46a28.7,28.7,0,0,0,6.21-6.41,21.88,21.88,0,0,0,1.56-2.65,102.55,102.55,0,0,1-17,2.06,1.63,1.63,0,0,0,0,2A7.45,7.45,0,0,0,202.07,313.41Z"/><path class="cls-1" d="M161.92,107.42a6.76,6.76,0,0,1,2.5-2.77l.48-1.05-3.47-.52A6.25,6.25,0,0,1,161.92,107.42Z"/><path class="cls-1" d="M86.5,104.93l.35-.31-.25-.29C86.57,104.53,86.53,104.73,86.5,104.93Z"/><path class="cls-1" d="M114,94.73c2.78-1,1.85-3.39.1-5.6-.11.79-.24,1.56-.39,2.28C115.27,92.75,114,94.73,114,94.73Z"/><path class="cls-1" d="M92.48,6.13c-.43,0-.72.91-.72.91S92.05,6.17,92.48,6.13Z"/><path class="cls-1" d="M188.14,212.19a52.05,52.05,0,0,0-3.26-7.35c-.26.19-.53.41-.79.63.18.38.35.77.5,1.17a6.7,6.7,0,0,1,.86-.11s-.31.17-.73.43a16.24,16.24,0,0,1,.85,3.38,19.43,19.43,0,0,1,1.93,1.34Z"/><path class="cls-1" d="M95.07,23.68c.06,1.46.09,3,.09,4.55C95.16,26.65,95.13,25.13,95.07,23.68Z"/><path class="cls-1" d="M97.31,100.85c4.73,1.74,4.89-.51,4.07-2.88l-3.7,1.94-.42.7Z"/><path class="cls-1" d="M154.63,107.27c4.13-.2,3.66-4.2,3.6-4.57a7.13,7.13,0,0,0-3.33.87A24,24,0,0,0,154.63,107.27Z"/><path class="cls-1" d="M158,107c3.57.23,3.54-2.13,3-4l-1.61-.24a8.23,8.23,0,0,0-1.09-.06C161.56,105.15,158,107,158,107Z"/><path class="cls-1" d="M178.21,249.84c-.69-2.05-1.61-3.74-2.71-3.39-.58.19-.74,1.31-.69,2.79h0A12.37,12.37,0,0,0,178.21,249.84Z"/><path class="cls-3" d="M84.75,106.67c.29-.32.59-.63.9-.94.18-.59.33-1.29.47-2-.07-.09-.15-.18-.22-.28-.35.83-.69,1.65-1,2.44A3.77,3.77,0,0,1,84.75,106.67Z"/><path class="cls-3" d="M73.85,90.67c.13.82.26,1.68.36,2.58l1.56,2.85a68.47,68.47,0,0,0-3.12-14.77c-5.4-16.22-5.41-17.68-5.41-17.68s.66-8,5.44,7.85c3.65,12.08,5.17,22.06,5.33,30.32.5.89,1.11,1.93,1.86,3.15s1.19,1.93,1.61,2.58l.27-.59s-.06.31-.13.77c.73-2.48,1.53-5.2,2.36-8.1a12.36,12.36,0,0,1,.46-8.36l1.27,2.25c4.09-14.64,8.51-31.94,10.06-43.33C98.94,27,99.61,15.1,99.61,15.1s7.61,4.61,3.85,35.35c-1.31,10.75-9,32-15.67,48.44a4.14,4.14,0,0,0,.29.55A96.16,96.16,0,0,1,92.8,87.56C94.91,84,104.68,69.26,105,35.32S94.45.24,94.45.24s-2-2.17-2.83,6.59c.08-.08.14.21.14.21s.29-.88.72-.91c.75-.06,1.92,2.53,2.59,17.55.06,1.45.09,3,.09,4.55,0,24.11-7.51,58.72-9.76,60.46,0,0,7.53-28.74,6.47-57.31-.4-10.67-.52-16.77-.51-20.22-.13,4.09-.08,9.63.3,17.16C93.29,61.14,81,95,81,95a56.69,56.69,0,0,0-3.54-21.12C73.22,62.36,68.59,61,68.59,61s-2.37-.06-2.63.59C64.62,65,71.86,82,71.86,82s.06.17.15.49c0-.31.08-.48.08-.48C73.46,84.14,73.78,88.24,73.85,90.67Z"/><path class="cls-3" d="M74.56,101.91c0,.6-.07,1.21-.13,1.81,0,0,0,0,0,.07A2.88,2.88,0,0,0,74.56,101.91Z"/><path class="cls-4" d="M91.87,31.38C92.93,60,85.4,88.69,85.4,88.69c2.25-1.74,9.73-36.35,9.76-60.46,0-1.57,0-3.09-.09-4.55-.67-15-1.84-17.61-2.59-17.55-.43,0-.72.91-.72.91s-.06-.29-.14-.21-.24,1-.26,4.33S91.47,20.71,91.87,31.38Z"/><path class="cls-4" d="M67.24,63.65s0,1.46,5.41,17.68A68.47,68.47,0,0,1,75.77,96.1l.21.39s-.15,0-.14.36V97c.08.6.53,1.92,2.16,4.83-.16-8.26-1.68-18.24-5.33-30.32C67.9,55.65,67.24,63.65,67.24,63.65Z"/><path class="cls-5" d="M87.79,98.89c6.67-16.4,14.36-37.69,15.67-48.44,3.76-30.74-3.85-35.35-3.85-35.35S98.94,27,95.77,50.19c-1.55,11.39-6,28.69-10.06,43.33l2,3.48A2.47,2.47,0,0,0,87.79,98.89Z"/><path class="cls-5" d="M82.76,109.37l.16-.27c-.2-.58-.62-1.46-.62-1.46,1.82,2.39,2.31-5.46,2.31-5.46a14.9,14.9,0,0,1,.26,3.71c.34-.79.68-1.61,1-2.44A12.57,12.57,0,0,1,84,99.63c-.83,2.9-1.63,5.62-2.36,8.1v0A14.33,14.33,0,0,0,82.76,109.37Z"/><path class="cls-6" d="M53.59,131l.72-.58-.13,0C54,130.64,53.79,130.85,53.59,131Z"/><path class="cls-6" d="M33.86,146.08c1.53-1.66,7.57-6.23,15.11-11.66-1,.43-1.69.69-1.69.69a15.81,15.81,0,0,0,3.79-4.54l.6-1c-.18-.08-.35-.18-.52-.27-.32.32-.65.63-1,.92a.28.28,0,0,0,0-.06l-3.66,3a13.64,13.64,0,0,1-2.6,1.51c-.68.28-.86.18-.86.18.8-.86,1.46-1.61,2-2.27A24.81,24.81,0,0,1,47.73,131l-2.11.86a23.93,23.93,0,0,0,1.41-2,5.1,5.1,0,0,0,.7-1.45l-3.69,3-2.1,1.69.29-.29a9.06,9.06,0,0,1,.9-.72c-1.23.82-2.17,1.52-2.9,2.11a.84.84,0,0,1-.14-.48c.38-.3.78-.61,1.19-.91a20.21,20.21,0,0,0,3.13-3.07c.51-.28.86-.45.86-.45l-.73.3c.85-1,1.43-1.85,1.43-1.85a12.13,12.13,0,0,0-3.8,2.84,25.18,25.18,0,0,0-2.34,1.12c-.59.33-.59.43-.57.46-.25-.23.09-.67.51-1.06a9,9,0,0,1,.89-.71,20.08,20.08,0,0,0-4.91,4.08c-.58.8-.42,1.09-.42,1.09-.93-.84,1.16-2.75,3.48-4.45a26.38,26.38,0,0,0,4.69-5.07c-3.33,1.41-5.85,5.46-7.71,7.28s-1.48,2.83-1.48,2.83c-.05-.23-.42.2-.85.55-1.17-1.33-2.68-2.77-2.68-2.77A10.54,10.54,0,0,1,32,136.3a35,35,0,0,0-3.69-4c2,2.79,2.6,8.09,3,9.56a7,7,0,0,1,.25,1.47l-.19-.1a1.69,1.69,0,0,0,.19.41c0,.1,0,.18,0,.25a5.37,5.37,0,0,1-.34-.83,9.43,9.43,0,0,1-.43-2.47,4.59,4.59,0,0,0,.25,3.38,3.7,3.7,0,0,1-2.29-2.61,9.49,9.49,0,0,1-.43-2.47c-.65,1.72.24,3.7,1.28,5.25a17.48,17.48,0,0,0,2.25,2.67,30.83,30.83,0,0,0-4.5-2.41c-1.41-.64-2.29-.93-1.3-.38a23.16,23.16,0,0,1,3.66,3c1.22,1.16,2.19,2.19,2.19,2.19a12.35,12.35,0,0,0-3.67-.83c-1.12-.1-1.77-.07-.87,0s1.7,1.11,2.28,2.1a14.88,14.88,0,0,1,.93,2,5,5,0,0,1-1.69.47,2.42,2.42,0,0,1-.63,0c.65,1.09,2.3,1.14,3.79.92.28,0,.55-.09.8-.15.13.29.2.48.2.48a5.13,5.13,0,0,1-1.69.47,2.83,2.83,0,0,1-.63,0c.65,1.08,2.3,1.13,3.79.91h0c-.23-.49-.45-1-.65-1.55C32.8,151.18,32.16,147.92,33.86,146.08Z"/><path class="cls-7" d="M106.12,172.05s1.62-.84,3.7-2.14c.05-.58.13-1.3.27-2.2.24-1.57-.59-3.64-1.79-5.67a24.67,24.67,0,0,1-9.49.79,36.68,36.68,0,0,0,8.35-2.57,53.22,53.22,0,0,0-4.85-6s-7.77-3.54-12.37,3.53-5.65,7.42-16.26,14.49-14.49,18-29.33,29-24.39,6-25.45,5.3-2.48-1.77-3.18,1.41a4.08,4.08,0,0,1-.63,1.42c3.75,2.36,7.82,4,11.93,4.14-.61-.09-.95-.17-.95-.17s20.26-.45,33.77-15.75S73.34,176.48,99,167.47c0,0,10.8-2.25,9.9,1.35,0,0-.45,1.35-12.16,8.56l-.63.39c4.9-2.76,9.75-4.86,13.84-5.58a2.2,2.2,0,0,1-.18-1C108.69,171.42,107.47,171.7,106.12,172.05Z"/><path class="cls-8" d="M116.37,152.78a3,3,0,0,0-.88-.52l-.6.12c-.46.47-.24,1.91-.09,2.56a13.39,13.39,0,0,0,1.19-1.51A5.15,5.15,0,0,0,116.37,152.78Z"/><path class="cls-8" d="M77.83,133.16c-.78,0-1.63,0-2.54,0a22.6,22.6,0,0,1-4.09,3.12c-.53.29-1,.59-1.54.89a1.54,1.54,0,0,0,0,.67,39.6,39.6,0,0,1,3.73-2,10.43,10.43,0,0,0-1.17.71,4.08,4.08,0,0,0-.39.31l2.74-1.68Z"/><path class="cls-8" d="M81.78,133.3c-.85-.05-1.82-.1-2.93-.12-.15.21-.32.45-.54.73a28.58,28.58,0,0,1-2,2.23c.74-.18,1.59-.37,2.57-.59a24.94,24.94,0,0,0-3.32,1.32c-.77.73-1.68,1.54-2.77,2.45,0,0,.18.18,1,0A14.22,14.22,0,0,0,77,138l3.67-2.26a14.59,14.59,0,0,0-2.57-1S85.16,134.72,81.78,133.3Z"/><path class="cls-8" d="M56.08,161.43c-.07.26-.14.57-.24.91a5.44,5.44,0,0,0,1.36-.21s0-.26-.11-.68c-.3,0-.61,0-.93,0Z"/><path class="cls-8" d="M138.57,157.78a4.87,4.87,0,0,0,.75-.1A1,1,0,0,0,138.57,157.78Z"/><path class="cls-8" d="M116.39,158.28A27.85,27.85,0,0,1,108.3,162c1.2,2,2,4.1,1.79,5.67-.14.9-.22,1.62-.27,2.2,4.89-3.06,12.34-8.69,7.57-12.14a8.8,8.8,0,0,0-1.61,2.47Z"/><path class="cls-8" d="M121,116.15a3.7,3.7,0,0,0,.31,2.36c.34-.6.69-1.19,1-1.75Z"/><path class="cls-8" d="M174.16,140.49a1.87,1.87,0,0,0-.07-.22C173.92,140.58,174,140.59,174.16,140.49Z"/><path class="cls-8" d="M80,138.88c.63-.24,2.28-1,2-1.95h-.22C81.19,137.62,80.58,138.29,80,138.88Z"/><path class="cls-8" d="M86.16,137.33c-.33.43-.68.89-1.06,1.36l-.06.07c.74-.25,1.49-.51,2.22-.8A1.38,1.38,0,0,0,86.16,137.33Z"/><path class="cls-8" d="M81.23,139.89c.34-.2,1.26-.73,2.36-1.48.41-.27.84-.57,1.27-.89a7.58,7.58,0,0,0-.93.36l-4,1a10,10,0,0,1-2.49,1.89S79,140.48,81.23,139.89Z"/><polygon class="cls-8" points="81.92 136.76 81.92 136.76 81.92 136.77 81.92 136.76"/><path class="cls-8" d="M41.57,176.46A89.89,89.89,0,0,0,51,166.89c-5.62,2.09-25.92,9.19-21.34.64,0,0,1.36,3.07,21.6-.94,1.36-1.57,2.52-3,3.39-4.05a2.54,2.54,0,0,1-.18-.41,2,2,0,0,0,.41.13q.41-.49.69-.87A7,7,0,0,1,54,161c-8.08,3.67-21.44,8.5-17.65-1.8-.66.86-5.15,6.71-10.13,12.18-1,1.09-1.91,2.16-2.78,3.17C24.09,176.24,27.22,180,41.57,176.46Z"/><path class="cls-8" d="M125.46,107.62l-.37.31.3.1a4.33,4.33,0,0,1,.26-.39Z"/><path class="cls-8" d="M109.78,171.2a2.2,2.2,0,0,0,.18,1l.62-.1a32.09,32.09,0,0,1,4.56-1.46A24.75,24.75,0,0,0,109.78,171.2Z"/><path class="cls-8" d="M113.63,113.61q.14.9.3,1.68a15.11,15.11,0,0,0,.62-1.4A4.25,4.25,0,0,0,113.63,113.61Z"/><path class="cls-8" d="M164.43,313.54c-4-.42-7.66-10.21-8.77-9.78-9.09,3.47,5.73-3.65-6-2.43l-8-.1s12.46-.43,6-6.38l1,.24.18,0c2.84.62,9.68,1.85,6.17-1.87a22.73,22.73,0,0,0-2.85-2.41c-1.19-.88-2.69-1.91-4.57-3.1a22.41,22.41,0,0,0,11,.88l.12,0a8.94,8.94,0,0,0,1-1.47c1.37-2.8-.92-3.94-1.88-4.27l-.06,0-.33-.09c2.46-4.19-1.55-9.16-1.55-9.16l2.61,2.79c3.71,5.57-.64-7.6,2.09-.5.33.86-1.69-10.26-.38-9.29,4.21,3.11,2.37-4.81,3.56-7.64l.67-12.09-.78-6.48a51.71,51.71,0,0,0,1.52,6.21c.26.66.46.8.53-.11a.91.91,0,0,1,.26-.49c-.56-2.27-.68-5.15-.12-6,6.52-9.65,1.54-5.86,1.21-5.51l5.25-7c.5-3.72,3.72-3.24,2.06-8.72-.5-1.64,1.41-9.77,1.28-10.38l0,0c-.8-.2-.83-.34-.61-.58a10.88,10.88,0,0,0-3.23-1.85s-.87,8.43.92,13.25c.78,1.46,1.31,2.26,1.31,2.26a6.67,6.67,0,0,1-1.31-2.26A49.6,49.6,0,0,1,167,198.9s-5.25-3.28-10.93,14.13c0,0,1.16-20.34-9.36-12.43,0,0,2.26,8.69-6.25,20.34,0,0,5.88-13.29.5-19-1.15-1.22-2.33-.73-3.44.59-3.3,20.42-10.15,45.54-11.16,57.12a233.08,233.08,0,0,0,1.9,52.69c.31,1.17.79,2.89,1.41,5h40.53C171,315.59,170.4,314.18,164.43,313.54Z"/><path class="cls-8" d="M147.56,287.75c1.88,1.19,3.38,2.22,4.57,3.1a22.73,22.73,0,0,1,2.85,2.41c3.51,3.72-3.33,2.49-6.17,1.87l-.18,0-1-.24c6.47,5.95-6,6.38-6,6.38l8,.1c11.7-1.22-3.12,5.9,6,2.43,1.11-.43,4.81,9.36,8.77,9.78,6,.64,6.54,2,5.76,3.74h14.3c-8.16-7.22-12.66-15.2-15.52-20,.33,1.85.57,3.2.54,3.14a14.1,14.1,0,0,1-1.07-4c-.36-.59-.69-1.11-1-1.57s-.48-.75-.7-1.13l.75,3.95c-.24-.3-.27.14-.18,1s-.33-1.21-.69-3.17c-.1-.33-.2-.68-.3-1-.18-.65-.35-1.33-.52-2l-.08-.32c-.37-1.55-.22-.54,0,.86a.73.73,0,0,1,0-.09s.17,1.11.46,2.81c.25,1.47-.21-.94-.51-2.72a1.25,1.25,0,0,0-.19.45,7.76,7.76,0,0,0-.1,2.11c.72,3,1.31,5.14,1.31,5.14l-1.91-6.21-.29-.94-.07-.24-.61-2-1.11-3.61c.32,2.7.59,5.08.82,7.19.12,1.18.23,2.27.33,3.28l.06.71c.21,2.32.35,4.18.43,5.68a30.24,30.24,0,0,1,0,4.94,2.29,2.29,0,0,1-.22.86c-.2.34-.43-.07-.43-.07a1,1,0,0,0,.2-.55,6.83,6.83,0,0,0,.08-.91,51.8,51.8,0,0,0-.42-6.08c-.23-2-.53-4.21-.83-6.25,0-.38-.11-.74-.16-1.11-.1-.62-.19-1.22-.29-1.8-.62-3.88-1.14-6.41-1-4.58a29.81,29.81,0,0,1,.1,3.83c0,.32,0,.64-.05.93l0,.35c.53,2.64,1.09,5.62.92,4.78-.13-.57-.25-1.1-.39-1.59a19.77,19.77,0,0,0-.65-2c-.08.69-.17,1.25-.24,1.64s-.14.66-.14.66c0-.34,0-.67,0-1s0-.79,0-1.18c0-.12,0-.24,0-.36,0-.31,0-.6,0-.9s-.17-.37-.26-.54c-1.75-3.29-3.63-3-3.63-3a17.58,17.58,0,0,0,1.68-1.75l.12-.15-.12,0A22.41,22.41,0,0,1,147.56,287.75Z"/><path class="cls-8" d="M36.4,159.1v0c.06.88,1.08,7.55,17.08,1.68a2.62,2.62,0,0,1-1.38-1.57,2.2,2.2,0,0,0,.71.19,4.91,4.91,0,0,0,2-.19,21.79,21.79,0,0,0-.62-2.8c-.43-1.44-1.11-3-2.09-3.35s-.25-.24,1,.19a13,13,0,0,1,3.94,2s-.86-1.6-2-3.45A30.88,30.88,0,0,0,51.61,147c-1-1-.07-.37,1.38.83a37.36,37.36,0,0,1,4.52,4.34A24.32,24.32,0,0,1,55.57,148c-.83-2.31-1.38-5.14-.27-7.23a14.38,14.38,0,0,0-.06,3.35c.16,1.56.67,3.24,2,4a7.13,7.13,0,0,1,.46-4.5,15.12,15.12,0,0,0-.06,3.36,9.54,9.54,0,0,0,.2,1.17c0-.08,0-.19.07-.32a3.2,3.2,0,0,1-.13-.58l.19.18a10.35,10.35,0,0,0,0-2c-.1-1.78.31-7.51-.73-11.71-.49.15-1,.33-1.6.55a15.57,15.57,0,0,1,1.49-1c-.12-.42-.25-.82-.4-1.2l.63,1.06A9.42,9.42,0,0,1,60,132.12c1.93-.38-6.85-.66-8.41,1.24,0,0-.25-1.37,6.18-2.57a11.73,11.73,0,0,0-1.25-.1,12,12,0,0,1-2.24-.23l-.72.58c-.65.52-1.32,1-2,1.5L49,134.42c-7.54,5.43-13.58,10-15.11,11.66-1.7,1.84-1.06,5.1,0,7.9.2.54.42,1.06.65,1.55a32.3,32.3,0,0,0,1.87,3.55v0A.18.18,0,0,0,36.4,159.1Z"/><path class="cls-8" d="M82.87,141.44c0,.15-.08.3-.13.47-1.42,1.77-1.09,1.25-2,1.58,1-.22,2.69-.63,4.65-1.2l.28-.09c.45-.27.93-.59,1.52-1,0,0,.15.16,0,.53a37.78,37.78,0,0,0,5.3-2.12c-2-.82-3.54-1.48-3.65-1.33-1,1.41-1,1-1.22.31l-.46.29C85.68,139.81,84.16,140.74,82.87,141.44Z"/><path class="cls-8" d="M171.79,168.82c.83-.35,1.32-.62,1.22-.8l-.24-.4-.29-.11C164.33,169.63,169.81,169.06,171.79,168.82Z"/><path class="cls-8" d="M67.29,135c0-.08.06-.28.11-.55a1.75,1.75,0,0,0-.73.25c-.23.14-.44.29-.65.44a11.08,11.08,0,0,0-1,.93l.1-.22c-1.08.92-1.65,1.82-1.19,2.54,0,0-.12-.43.71-1.33a12.83,12.83,0,0,1,2.66-2l.63-.39a.68.68,0,0,0-.38-.18Z"/><path class="cls-8" d="M175.66,166.72l-1.32.32C174.88,167.23,175.37,167.22,175.66,166.72Z"/><path class="cls-8" d="M18.9,206.59c1.06.71,10.6,5.65,25.45-5.3s18.73-21.92,29.33-29,11.67-7.42,16.26-14.49,12.37-3.53,12.37-3.53a53.22,53.22,0,0,1,4.85,6,22.74,22.74,0,0,0,7.59-5.25l-2.55-4.16a54,54,0,0,0-7.56,1.8l6.89-2.89-1.86-3a5.06,5.06,0,0,1-2.86-2.56,21.71,21.71,0,0,0-3.39-1.06s1,0,2.62,0c-.85-.9-2.22-1.46-5.56-1-1.36.2-5-1.26-7.86-2.44-.74.5-1.66,1.12-2.64,1.76l2-.66-2.62,1.06a45.59,45.59,0,0,1-5.63,3.22c-.23.72.19,1.17-.58,1.33,0,0-1.66.12-1,.46a.24.24,0,0,1,.08.06c1.16.07,4.39-.62,12.19-3.26l-6.64,2.71-1.36.85.71-.21,1-.61,1.8-.28c-1.08.37-2,.66-2.79.89l-2.95,1.85a4.79,4.79,0,0,1-.68.71A34.38,34.38,0,0,0,81,156.9c-.75,4.51-8.6,5.41-8.6,5.41s1.85-.08-10,1.47l-.15.34L62,164l-.09.06h0l-.2.13.05-.1a15.62,15.62,0,0,1-3.16.18,5.86,5.86,0,0,1-3-.84c-1.1,3.44-3.55,9-8.49,11.89-7,4.1-8.82,8.68-11.53,10.83.74.84,1.19,1.44,1.19,1.44l-2.25,5.59c-2.51-6.27-6.19-7.92-6.19-7.92-9.37-1.85-10.31,12.25-10.31,12.25s-1.61-15.14,9.91-16c1.69-.13,3.49.88,5,2.12.61-1.24,2.14-2.82,5.37-4.75l.52-.32c-6,2.51-14.55,4.55-15.45-3.84-3.8,4.39-6.46,7.56-8.29,6.07-2.27-1.85-7.13-2.08-9.19-1.42s-2.7,5.33-3.53,7.07c-1.42,3-2.53,3.31-2.25,5.83A21.16,21.16,0,0,0,1,196.56l-.1.13c2.83,3.18,2.84,1,7.78,4.6.72.52,5.69,7.66,6.44,8.13a4.08,4.08,0,0,0,.63-1.42C16.42,204.82,17.84,205.88,18.9,206.59ZM85.46,156.8l.06-.22-.06.22c-4,14.91-21.14,9.32-21.14,9.32C81.23,168.72,85,158.46,85.46,156.8ZM21.34,191a4.2,4.2,0,0,1,5.72-1.56A4.38,4.38,0,1,1,21.34,191Z"/><path class="cls-8" d="M81.59,126c.8,1.08.18-1.1-1.1-3.68a8.75,8.75,0,0,0-2.64.66A12.69,12.69,0,0,1,81.59,126Z"/><path class="cls-8" d="M68.8,133.38l-.09.05v.13l-.11.63c.71-.4,1.52-.82,2.45-1.27a9.52,9.52,0,0,0-1.17.71c-.55.4-1,.88-.81,1.25,0,0,0-.16.75-.45a27,27,0,0,1,2.88-.87,17.79,17.79,0,0,1,2.82-1.92l-2.67-.54s12.91.88,4.53-7.75a5.36,5.36,0,0,0-1.12,2.14c-.24.75-2.08,2.29-3.64,3.56A9.33,9.33,0,0,1,75.2,128,31.1,31.1,0,0,1,68.8,133.38Z"/><path class="cls-8" d="M76.6,131.87l-.29.29.51-.24Z"/><path class="cls-8" d="M81.91,121.53q.28.38.57.78c-.06-.27-.14-.55-.22-.84l-.33,0Z"/><path class="cls-8" d="M59.15,135s1.38,2.28,2.4,4.34c.56-.36,1.07-.82,1.07-.51,0,0-.19-1.43,2.31-3.33l.48-.4c.44-1,.9-2.45-.39-1.42-.55.89-1.2,2.07-2,3.61-.46.89-.25.09-.34-1.22-.49.56-1,1.21-1.67,2,0,0,4-6.51-3.38-4.41A35.68,35.68,0,0,1,60,138.41,16,16,0,0,0,59.15,135Z"/><path class="cls-9" d="M126,263.81s-2.63,23,1.85,47.05l.38,1.44a233.08,233.08,0,0,1-1.9-52.69c1-11.58,7.86-36.7,11.16-57.12-2.76,3.32-5,11.89-5,11.89l2-12.6s-2,5-5.61,6.5-8.37,7.31-8.37,7.31,12.1-19,12.4-25.84l-6.4,8.73s3.46-5.22,6.16-10.28a1.48,1.48,0,0,0-1.41-.84,50.44,50.44,0,0,1-4.91,7.78s2.51-4.37,4.19-7.8c-.37,0-.72,0-1.06-.08-.78,1.17-1.84,2.66-3.28,4.54,0,0,1.36-2.24,2.67-4.64a7.31,7.31,0,0,1-1.71-.53c-1.73,2-4.47,4.78-8.78,8.77-2.81,9.29-8.14,21.82-16.79,38.4-3.84,7.36-7.69,18.12-10.86,30.32.48-1.59,1-3.18,1.5-4.81C92.25,259.31,96.75,271,126,263.81Z"/><path class="cls-10" d="M115.14,170.63a32.09,32.09,0,0,0-4.56,1.46c3.36-.48,6.17,0,8,2l.16.18.25-.16S120.55,170.76,115.14,170.63Z"/><path d="M22.4,196.85a4.38,4.38,0,0,0,4.66-7.39,4.38,4.38,0,0,0-4.66,7.39Z"/><path class="cls-11" d="M55.84,162.34c.1-.34.17-.65.24-.91l-.49,0q-.29.38-.69.87l.3.06A4.28,4.28,0,0,0,55.84,162.34Z"/><path class="cls-12" d="M119,106.49l.41-1.57-2,2.18C117.83,107,118.35,106.75,119,106.49Z"/><path class="cls-12" d="M122.67,104.5c-.1-.67-.22-1.53-.36-2.62v-.09l-.64.67c-.11.88-.24,1.83-.39,2.86C121.71,105.07,122.18,104.8,122.67,104.5Z"/><path class="cls-12" d="M114,94.73s1.32-2-.29-3.32a37.19,37.19,0,0,1-2.53,8.25s2.33-2.45,5.89-6.7A14.37,14.37,0,0,0,114.2,88l-.15,1.09C115.8,91.34,116.73,93.7,114,94.73Z"/><path class="cls-12" d="M117.75,85.75s.63,2.37,1.06,5.06l.8-1Z"/><path class="cls-12" d="M124.8,81.81s-4,4.41-4.89,7.65c1.52-1.89,3.17-4,4.91-6.3A5.5,5.5,0,0,0,124.8,81.81Z"/><path class="cls-12" d="M93.66,103.48c-.33-.12-.64-.22-.92-.3l-.8,2.64-.17.55a18.72,18.72,0,0,1,1-1.76C93.06,104.25,93.35,103.86,93.66,103.48Z"/><path class="cls-12" d="M87.66,97l-2-3.48-1.27-2.25A12.36,12.36,0,0,0,84,99.63a12.57,12.57,0,0,0,1.92,3.82c.07.1.15.19.22.28-.14.71-.29,1.41-.47,2-.31.31-.61.62-.9.94a3.77,3.77,0,0,0,.12-.78,14.9,14.9,0,0,0-.26-3.71s-.49,7.85-2.31,5.46c0,0,.42.88.62,1.46l-.16.27a14.33,14.33,0,0,1-1.15-1.62,8.1,8.1,0,0,0,.12,3.77,12.45,12.45,0,0,0,.25,9.14c.11.28.2.55.28.81s.16.57.22.84c.87,1.22,1.83,2.67,2.89,4.4L87,121s-.94,8.74,4,9.82c0,0-2.59-5.59-1.31-8,0,0,.74,6.45,2.43,5.9,0,0-.89-.95.31-4.08,0,0,.18,6.64,2.9,5,0,0,1.9-4.35-1.26-10.37-3-5.73-5.54-6.83-6.46-7l-.38-.05a2.18,2.18,0,0,1,.38.05l4.4.57a18,18,0,0,1,10,8.4s9.56-1.9,5.32-2.75l4.09.16a11.44,11.44,0,0,0,2.44-3.27q-.17-.78-.3-1.68c-.1-.62-.18-1.3-.25-2,0-.49-.09-1-.13-1.52-.06-1-.1-2-.12-3.1a33.52,33.52,0,0,1-1.94,5.06c-1.39,2.82-3.46,5.73-6.07,5.6a3.73,3.73,0,0,1-1.49-.4,8.63,8.63,0,0,1-3-2.68.18.18,0,0,1,0-.07s.11-.17.34-.46c1.12-1.4,5.08-5.71,13.25-8.25.54-.17,1.1-.33,1.68-.49V105l-.91,0a28.48,28.48,0,0,0-10.8,2.07c-1,.39-2.07.84-3.17,1.37a43,43,0,0,0-3.9,2.14c-.52.31-1,.63-1.56,1-1.07.71-.81.09.08-1.12l.64.28-.39-.62c.14-.19.29-.38.46-.59.3.25.63.5,1,.73l.54-.92a9.33,9.33,0,0,1-.79-.7,2.11,2.11,0,0,1,.19-.23l.8.6.55-1,0-.09.06.06c.19-.34.37-.68.55-1l.23-.45-.34-.24,1-1.19c1.6-1.83,3-3.4,3.32-3.73l.07-.07-.06,0L101,102.62a42.82,42.82,0,0,0,1.57-5.29l1.86-1,2.8-1.47s-1,.25-2.68.76l-1.73.56-.8.27c-.8-.69-1.68-1.49-2.64-2.43A23.55,23.55,0,0,1,101,96.87c-.59.22-1.2.45-1.83.71l-.16.06-1.78.75a10.25,10.25,0,0,1,3-6.17,8.65,8.65,0,0,0-3.89,2.71c-.69.32-1.8,1.36-3.47,4.26-.38-2.17-.73-5.63-.73-5.63l-2.44,7.56-.24-.2c-.12.27-.24.56-.37.88-.2.48-.4,1-.58,1.55-.42.32-.83.65-1.24,1,.36-.74.8-1.55,1.33-2.45.14-.22.27-.45.42-.67l.27-.44c-.11-.1-.24-.23-.37-.37l-.2-1.66s0,.55,0,1.42a6.76,6.76,0,0,1-.54-.72,4.14,4.14,0,0,1-.29-.55A2.47,2.47,0,0,1,87.66,97Zm-1.16,7.93c0-.2.07-.4.1-.6l.25.29Zm2.81,2.93c1.09-.67,2.46-3.35,3.35-5.32l1-.55a13,13,0,0,1,1.34,0,16.36,16.36,0,0,0,1.56-1.56l1.07-.56,3.7-1.94c.82,2.37.66,4.62-4.07,2.88l0-.24-.94,1.57a16.64,16.64,0,0,1,3.7,1L97,105c-.13-.07-.25-.14-.39-.2-.52-.26-1-.49-1.44-.68-.57,1-1.12,2-1.61,2.9l-4.21,2.49A7.49,7.49,0,0,1,89.31,107.86Z"/><path class="cls-12" d="M131.07,104c.21-.08.42-.18.63-.27l3.79-13.51h0C134.66,93.06,131.78,103,131.07,104Z"/><path class="cls-12" d="M150.49,99.91c1.41-.25,2.25-.33,2.25-.33A5,5,0,0,0,150.49,99.91Z"/><path class="cls-12" d="M150.49,99.91c-.78.13-1.75.31-2.85.56l-.48.48C148.41,100.52,149.56,100.16,150.49,99.91Z"/><path class="cls-12" d="M128.42,107.59a1,1,0,0,0,.24.71.8.8,0,0,0,.45.27c-.59.55-1.23,1.19-1.9,1.9-1.25,3.17-2.56,7.1-.95,6.26h0a39.76,39.76,0,0,1,2-5.72c0-.09.09-.18.13-.28a19,19,0,0,1,1.18-2.14,4,4,0,0,0,.71-.13c-.13-.12-.27-.23-.4-.33l.16-.22a5.5,5.5,0,0,1,.65.43,12.52,12.52,0,0,0,1.26-.52c0,.08.05.15.07.23l.89-1a6.16,6.16,0,0,0-1.07-3.2l0,.06a7.15,7.15,0,0,0-.17,2.28,6.75,6.75,0,0,0-.76.67l-.59.36,1.2-3.09a15.47,15.47,0,0,0-1.29.93,13.93,13.93,0,0,1-1.57,1.68,2,2,0,0,0-.2.49q.14-.24.3-.48S128.63,107.09,128.42,107.59Zm3.27-1.25a.41.41,0,0,0,0,.11l-.53.3Zm-1.77,1.49a1.54,1.54,0,0,0-.19.17,1.87,1.87,0,0,0-.73-.33S129.23,107.48,129.92,107.83Z"/><path class="cls-12" d="M122.12,108.41l1-1.75a6.17,6.17,0,0,1-.45-2C121.88,105.7,120.32,107.87,122.12,108.41Z"/><path class="cls-12" d="M123.35,105a11.9,11.9,0,0,1-.07,1.48l.49-.82A.92.92,0,0,1,123.35,105Z"/><path class="cls-12" d="M125.58,105.7s1-.36,2-3.44c0,0-1.8,2.66-3.07,3.29-.41.94-.84,2-1.25,3a12.26,12.26,0,0,0,2-.25,1.63,1.63,0,0,1,.12-.25l-.3-.1.37-.31c.1-.07.2-.16.32-.26.28-.62.57-1.22.86-1.79C126.15,105.92,125.75,106,125.58,105.7Z"/><path class="cls-12" d="M130,102a28.92,28.92,0,0,1-2.74,3l-.58,1.47C128,105.35,129.65,103.56,130,102Z"/><path class="cls-13" d="M130.72,108.34a5.5,5.5,0,0,0-.65-.43l-.16.22c.13.1.27.21.4.33a4,4,0,0,1-.71.13,19,19,0,0,0-1.18,2.14l.49,1c.77-1,1.79-2.21,3.14-3.69,0-.08-.05-.15-.07-.23A12.52,12.52,0,0,1,130.72,108.34Z"/><path class="cls-13" d="M99,106.19l.34.24c.24-.47.47-1,.68-1.43Z"/><path class="cls-13" d="M126.65,106.61a47.89,47.89,0,0,0-2.32,7.28c.46-.61.92-1.18,1.38-1.72a46.82,46.82,0,0,1,2.76-4.9,2,2,0,0,1,.2-.49,6.42,6.42,0,0,1,1.57-1.68,15.47,15.47,0,0,1,1.29-.93l.32-.22,0-.06-.11-.13.13,0a1.21,1.21,0,0,1,.05-.18l-.24.09c-.21.09-.42.19-.63.27A18.61,18.61,0,0,0,126.65,106.61Z"/><path class="cls-13" d="M117.29,107.17a11,11,0,0,1,.11,3.32c-.19,1.59.63-.62,1.55-4-.6.26-1.12.46-1.59.61Z"/><path class="cls-13" d="M98.54,107.84l0,.09v0Z"/><path class="cls-13" d="M96.33,109.44c-.17.21-.32.4-.46.59l.39.62-.64-.28c-.89,1.21-1.15,1.83-.08,1.12.52-.35,1-.67,1.56-1l.2-.34C97,109.94,96.63,109.69,96.33,109.44Z"/><path class="cls-13" d="M97.24,108.32a2.11,2.11,0,0,0-.19.23,9.33,9.33,0,0,0,.79.7l.2-.33Z"/><path class="cls-13" d="M115.71,108.94c-.78.88-1.56,1.76-2.33,2.66.07.71.15,1.39.25,2a4.25,4.25,0,0,1,.92.28A19.6,19.6,0,0,0,115.71,108.94Z"/><path class="cls-13" d="M129.11,108.57a.8.8,0,0,1-.45-.27,1,1,0,0,1-.24-.71c-.3.68-.75,1.73-1.21,2.88C127.88,109.76,128.52,109.12,129.11,108.57Z"/><path class="cls-13" d="M126.24,116.73h0a3.19,3.19,0,0,0,.66-.47s-1-.37,1.58-4c-.06-.41-.13-.83-.21-1.28A39.76,39.76,0,0,0,126.24,116.73Z"/><path class="cls-13" d="M122.71,104.71c.25-.3.43-.49.43-.49l-.47.28c-.49.3-1,.57-1.4.82-.27,1.83-.61,3.9-1,6.26l1.89-3.17C120.32,107.87,121.88,105.7,122.71,104.71Z"/><path class="cls-13" d="M125.39,108a1.63,1.63,0,0,0-.12.25,12.26,12.26,0,0,1-2,.25,32.52,32.52,0,0,0-2.23,7.62l1.36.61c0-.08.1-.16.14-.24a77.56,77.56,0,0,1,3.15-8.88h0A4.33,4.33,0,0,0,125.39,108Z"/><path class="cls-12" d="M54.18,130.44l.13,0a12,12,0,0,0,2.24.23,11.73,11.73,0,0,1,1.25.1c1.07-.2,2.32-.39,3.79-.57L58.17,128s5.64,2.51,7.77,0c0,0-4.5.14-5.77-1.11,0,0,4.56,1.07,4.66,0,0,0-.89.27-2.66-1.1,0,0,4.53,1.42,4.19-.45,0,0-2.4-2-7.35-1.68-4.72.34-6.17,1.47-6.57,1.93l-.14.2a.71.71,0,0,1,.14-.2l1.63-2.28a14.09,14.09,0,0,1,8.48-3.53s1.41-5.66-.35-3.54l1.41-2.47s2.27,5.74,4.93,4.94c0,0-4.62-2.27,1.4-9.32,0,0-4.78,6.74.55,5.13,0,0-2.85-.9.71-3.88,0,0-1.6,4.15,2.28,3.39,0,0,1-3.9.4-5.56a4.06,4.06,0,0,0-.51-.65,1,1,0,0,1,.51.65A11.27,11.27,0,0,1,75.37,116s2.31.07,6.11-8.4c-.42-.65-1-1.5-1.61-2.58s-1.36-2.26-1.86-3.15c-1.63-2.91-2.08-4.23-2.16-4.83v-.14c0-.36.14-.36.14-.36l-.21-.39-1.56-2.85-.35-.65s0-.77,0-1.93c-.07-2.43-.39-6.53-1.76-8.67,0,0,0,.17-.08.48-.29,1.8-1.23,8.31-.16,11.52l-3.94-3.49s5.85,7.27,6.65,11.4a2.88,2.88,0,0,1-.14,1.88s0,.11-.08.15S74,95.1,63.88,96.4c0,0,9.21.13,5.18,6,0,0,.29-5-4.41-3,0,0,5.08,2,2.59,6.67,0,0-4.56-2.61-6.06-5.12a24,24,0,0,0,7.21,9.71s-1,3.49-12.28-.18c0,0,10.55,6.71,1.53,8.56,0,0-3.22-3.88-1.81-10.95,0,0-3.67,4.39-1.64,13,.58,2.51-4.72-6.67-4.72-6.67l1.63,9.57s-3.38-.54-3.75-3.21L46.29,111s-2.77,13.84,4.86,18.33c.17.09.34.19.52.27A9.63,9.63,0,0,0,54.18,130.44Z"/><path class="cls-12" d="M63,137.3c.79-1.54,1.44-2.72,2-3.61a20.61,20.61,0,0,0-2.33,2.39C62.78,137.39,62.57,138.19,63,137.3Z"/><path class="cls-12" d="M67.53,134.4H67.4c-.05.27-.09.47-.11.55Z"/><path class="cls-12" d="M61.18,101a12.43,12.43,0,0,1-.46-1.38A2.86,2.86,0,0,0,61.18,101Z"/><path class="cls-13" d="M99.64,96.75l-.68.89.16-.06Z"/><path class="cls-13" d="M66,135.09c-.33.24-.64.48-.92.71L65,136A11.08,11.08,0,0,1,66,135.09Z"/><path class="cls-13" d="M55.67,134.31c.58-.22,1.11-.4,1.6-.55,0-.14-.07-.29-.11-.42A15.57,15.57,0,0,0,55.67,134.31Z"/><path class="cls-13" d="M68.71,133.43c-.71.39-1.4.8-2,1.22a1.75,1.75,0,0,1,.73-.25h.13a.68.68,0,0,1,.38.18l.69-.39.11-.63Z"/><path class="cls-13" d="M93.6,107c.49-.93,1-1.92,1.61-2.9.44.19.92.42,1.44.68.14.06.26.13.39.2l3-1.76a16.64,16.64,0,0,0-3.7-1l.94-1.57.42-.7-1.07.56A16.36,16.36,0,0,1,95.05,102a13,13,0,0,0-1.34,0l-1,.55c-.89,2-2.26,4.65-3.35,5.32a7.49,7.49,0,0,0,.08,1.63Zm-1.66-1.18.8-2.64c.28.08.59.18.92.3-.31.38-.6.77-.84,1.13a18.72,18.72,0,0,0-1,1.76Z"/><path class="cls-13" d="M88.52,101.88c-.53.9-1,1.71-1.33,2.45.41-.33.82-.66,1.24-1,.18-.54.38-1.07.58-1.55.13-.32.25-.61.37-.88.38-.85.67-1.42.67-1.42-.3.44-.57.86-.84,1.27l-.27.44C88.79,101.43,88.66,101.66,88.52,101.88Z"/><path class="cls-13" d="M73.37,107.86a4.06,4.06,0,0,1,.51.65A1,1,0,0,0,73.37,107.86Z"/><path class="cls-13" d="M52.44,125.63a.71.71,0,0,0-.14.2Z"/><path class="cls-14" d="M158.23,16.25s5.78-5.73,1.56,17.46c-3.73,20.52-29.48,51.21-38,58.92a12.17,12.17,0,0,1,.38,4.28C133.53,84,145.76,69.18,151.72,59c12.86-21.94,14-33.39,14-33.39s8.43,6-8,35.11c-5.38,9.53-21.59,26.93-35.94,41.13,0,.2,0,.4-.07.61l.64-.67a81.71,81.71,0,0,1,7.35-7.06c1.08-.8,3.14-2.24,5.83-4.52h0c7.61-6.43,20.22-19.56,29.88-43.88,13.08-32.94-1-36.16-1-36.16s-1.89-2.5-6.22,5.86C158.24,16,158.23,16.25,158.23,16.25Z"/><path class="cls-14" d="M105.12,84.77c-1.16-16.82-.64-18.24-.64-18.24s3.85-7.65,4.33,8.68c.39,13.13-1.5,23.53-4.64,31.79a28.48,28.48,0,0,1,10.8-2.07l.88-1c0-.28,0-.57,0-.86,0,0,.13.2.32.57,1.5-1.67,3-3.39,4.6-5.15a19.78,19.78,0,0,0,.35-5.29,6.93,6.93,0,0,1-1.7,1.18s.54-.69,1.48-2a.87.87,0,0,0-.44-.48.73.73,0,0,1,.85-.07c5.31-7.23,20.52-29.09,28-51.95,3.45-10.46,5.56-16.41,6.86-19.76a173.76,173.76,0,0,0-6,16.74c-5.44,17.44-16.42,34.37-25.35,46.24-1.74,2.3-3.39,4.41-4.91,6.3l-.3.37-.8,1c-.63.76-1.22,1.48-1.79,2.15-3.56,4.25-5.89,6.7-5.89,6.7a37.19,37.19,0,0,0,2.53-8.25c.15-.72.28-1.49.39-2.28L114.2,88a41.93,41.93,0,0,0,0-9.6c-1.33-12-7-14.25-7-14.25s-3.13-.51-3.72.07c-3,3,.26,21,.26,21a45.81,45.81,0,0,1-1,11l1.73-.56A48.22,48.22,0,0,0,105.12,84.77Z"/><path class="cls-14" d="M111.19,112c-2.21,2.07-4.26,4-6.07,5.6C107.73,117.77,109.8,114.86,111.19,112Z"/><path class="cls-14" d="M102.61,97.33a42.82,42.82,0,0,1-1.57,5.29l2.35-1.39c.43-1.58.79-3.21,1.08-4.88Z"/><path class="cls-14" d="M117.29,107.17l.07-.07,2-2.18.24-1-2.48,2.41C117.19,106.62,117.24,106.89,117.29,107.17Z"/><path class="cls-14" d="M100.06,105c-.21.48-.44,1-.68,1.43l-.23.45c-.18.34-.36.68-.55,1v0l-.55,1-.2.33-.54.92-.2.34a43,43,0,0,1,3.9-2.14,63.54,63.54,0,0,0,2.38-7.1C103.08,101.6,101.66,103.17,100.06,105Z"/><path class="cls-14" d="M115.82,107.62l-2.57,2.46c0,.53.08,1,.13,1.52.77-.9,1.55-1.78,2.33-2.66C115.75,108.52,115.79,108.08,115.82,107.62Z"/><path class="cls-14" d="M101,114c-.1.18-.19.36-.29.53a8.63,8.63,0,0,0,3,2.68c2.9-3.1,6.55-7,10.57-11.46C106,108.32,102.07,112.63,101,114Z"/><path class="cls-8" d="M121.26,91.89a1.51,1.51,0,0,1,.49.74c8.56-7.71,34.31-38.4,38-58.92,4.22-23.19-1.56-17.46-1.56-17.46s0-.29-.12-.23-.68.88-2,4.16-3.41,9.3-6.86,19.76C141.78,62.8,126.57,84.66,121.26,91.89Z"/><path class="cls-8" d="M119.37,94.4a6.93,6.93,0,0,0,1.7-1.18,2.8,2.8,0,0,0-.22-.78C119.91,93.71,119.37,94.4,119.37,94.4Z"/><path class="cls-8" d="M108.81,75.21c-.48-16.33-4.33-8.68-4.33-8.68s-.52,1.42.64,18.24a48.22,48.22,0,0,1-.53,10.87c1.65-.51,2.68-.76,2.68-.76l-2.8,1.47c-.29,1.67-.65,3.3-1.08,4.88l.06,0-.07.07a63.54,63.54,0,0,1-2.38,7.1c1.1-.53,2.16-1,3.17-1.37C107.31,98.74,109.2,88.34,108.81,75.21Z"/><path class="cls-8" d="M100.61,114.49a.18.18,0,0,0,0,.07c.1-.17.19-.35.29-.53C100.72,114.32,100.61,114.49,100.61,114.49Z"/><path d="M157.67,60.72c16.44-29.15,8-35.11,8-35.11s-1.1,11.45-14,33.39c-6,10.18-18.19,25-29.59,37.91,0,1.3-.16,2.92-.4,4.94C136.08,87.65,152.29,70.25,157.67,60.72Z"/><path d="M115,104.93l.91,0c0-.34,0-.68,0-1Z"/><path d="M119.6,104c.43-1.78.83-3.68,1.12-5.44-1.56,1.76-3.1,3.48-4.6,5.15a12.17,12.17,0,0,1,1,2.7Z"/><path d="M115.88,105.29c-.58.16-1.14.32-1.68.49-4,4.42-7.67,8.36-10.57,11.46a3.73,3.73,0,0,0,1.49.4c1.81-1.64,3.86-3.53,6.07-5.6a33.52,33.52,0,0,0,1.94-5.06c0,1.11.06,2.14.12,3.1l2.57-2.46C115.87,106.89,115.89,106.11,115.88,105.29Z"/><path d="M61.88,164.09,62,164l0,0Z"/><path d="M61.66,164.23l.2-.13-.15,0Z"/><path class="cls-15" d="M75.49,160.15c-5.86,2.53-9.63-2.5-9.63-2.5a4.36,4.36,0,0,1,1.29-1.28l0,0s-.42.14-1.21,1.16l-.18.24a33.45,33.45,0,0,0-3.36,6c11.84-1.55,10-1.47,10-1.47s7.85-.9,8.6-5.41a34.38,34.38,0,0,1,2.48-7.32c-.68.62-3.57.64-5.85,1.78C77.59,151.36,78.52,158.84,75.49,160.15Z"/><path class="cls-15" d="M72.14,154a28.82,28.82,0,0,0,5.45-2.62C76.7,151.81,74.42,152.9,72.14,154Z"/><path class="cls-6" d="M89.35,141.86,92,140.8l-2,.66-.48.31Z"/><path class="cls-6" d="M87.1,138.89l.46-.29a2.64,2.64,0,0,0-.3-.64c-.73.29-1.48.55-2.22.8-.65.81-1.37,1.65-2.1,2.41a2.68,2.68,0,0,1-.07.27C84.16,140.74,85.68,139.81,87.1,138.89Z"/><path class="cls-6" d="M62.62,138.84c0-.31-.51.15-1.07.51a8.79,8.79,0,0,1,1.06,2.85.59.59,0,0,0,.25.3c.06-.52.1-.75.1-.28a2.94,2.94,0,0,1,.1.34c.75,0,2-1.33,2-.84a2.44,2.44,0,0,1,.46-1.42c0-.16,0-.26,0-.26s0,.1,0,.25a7.58,7.58,0,0,1,1.83-1.91c1.44-1.1,3.29-3.12,5.38-4.82a27,27,0,0,0-2.88.87c-.73.29-.76.42-.75.45-.23-.37.26-.85.81-1.25a9.52,9.52,0,0,1,1.17-.71c-.93.45-1.74.87-2.45,1.27l-.69.39-.63.39a12.83,12.83,0,0,0-2.66,2c-.83.9-.71,1.33-.71,1.33-.46-.72.11-1.62,1.19-2.54.28-.23.59-.47.92-.71s.42-.3.65-.44c.64-.42,1.33-.83,2-1.22l.09-.05A31.1,31.1,0,0,0,75.2,128a9.33,9.33,0,0,0-2.58,1.1c-2.79,1.64-5.3,4.46-7.21,6.06l-.48.4C62.43,137.41,62.62,138.84,62.62,138.84Z"/><path class="cls-6" d="M78.85,133.18l-1,0-3.21,2-2.74,1.68c-.36.32-.58.66-.41.94,0,0,0-.17.74-.45a33.26,33.26,0,0,1,4.08-1.17,28.58,28.58,0,0,0,2-2.23C78.53,133.63,78.7,133.39,78.85,133.18Z"/><path class="cls-6" d="M60.38,150.18a11.81,11.81,0,0,0,0-1.83,78.45,78.45,0,0,0-.39-9.94,35.68,35.68,0,0,0-2.37-4.76l-.25-.45-.63-1.06c.15.38.28.78.4,1.2,0,.13.07.28.11.42,1,4.2.63,9.93.73,11.71a10.35,10.35,0,0,1,0,2A22.6,22.6,0,0,1,60.38,150.18Z"/><path class="cls-6" d="M69.66,137.15c-2.31,1.42-4.06,2.95-3.35,4.06,0,0-.13-.43.7-1.32a13,13,0,0,1,2.7-2.07A1.54,1.54,0,0,1,69.66,137.15Z"/><path class="cls-6" d="M56.44,158.88a9.09,9.09,0,0,0-.7-1.65,6.91,6.91,0,0,1-.9-.24c-1-.36-.31-.26.83.13A2.52,2.52,0,0,0,54.49,156c-1-.37-.24-.25,1,.18A14.43,14.43,0,0,1,59.22,158l.13,0c-.1-.19-.32-.59-.63-1.14a7,7,0,0,1-.93-1.18,12.72,12.72,0,0,1-.57-1.39A27.55,27.55,0,0,0,54,149.83c-1-1-.06-.37,1.39.83A38.85,38.85,0,0,1,59.91,155,23.86,23.86,0,0,1,58,150.9a16.12,16.12,0,0,1-.74-2.73c-1.32-.78-1.83-2.46-2-4a14.38,14.38,0,0,1,.06-3.35c-1.11,2.09-.56,4.92.27,7.23a24.32,24.32,0,0,0,1.94,4.09A37.36,37.36,0,0,0,53,147.78c-1.45-1.2-2.37-1.82-1.38-.83a30.88,30.88,0,0,1,3.44,4.92c1.11,1.85,2,3.45,2,3.45a13,13,0,0,0-3.94-2c-1.23-.43-2-.56-1-.19s1.66,1.91,2.09,3.35a21.79,21.79,0,0,1,.62,2.8,4.91,4.91,0,0,1-2,.19,2.2,2.2,0,0,1-.71-.19,2.62,2.62,0,0,0,1.38,1.57c1-.36,2-.75,3.05-1.2-.14-.4-.27-.79-.39-1.18Z"/><path class="cls-6" d="M56.16,161.44c.32,0,.63,0,.93,0l-.18-.86c-.12-.26-.22-.53-.32-.79-.77.38-1.66.8-2.61,1.24a7,7,0,0,0,1.61.35l.49,0Z"/><path class="cls-6" d="M72.77,139.32c1.09-.91,2-1.72,2.77-2.45l-.56.28c-1.85,1-3.51,2.34-2.77,3.82l4.8-3h0a14.22,14.22,0,0,1-3.25,1.32C73,139.5,72.77,139.32,72.77,139.32Z"/><path class="cls-6" d="M59.68,151.08a28.75,28.75,0,0,1-1.78-3.2c0,.13,0,.24-.07.32A4.21,4.21,0,0,0,59.68,151.08Z"/><path class="cls-6" d="M76.18,142.2A19.53,19.53,0,0,0,81.07,140l.16-.09c-2.2.59-3.78.91-3.78.91a10,10,0,0,0,2.49-1.89l-.2.05a1.45,1.45,0,0,0,.23-.08c.61-.59,1.22-1.26,1.8-1.94L81,137s-.06,0-.06,0,0,0,.06,0,.46-.1.91-.21h0a1.91,1.91,0,0,0-.68-.7c-.15.21-.32.44-.54.72a35.21,35.21,0,0,1-4.4,4.45c-.23.34-.46.7-.69,1.05A4.22,4.22,0,0,0,76.18,142.2Z"/><path class="cls-13" d="M80.7,143.49a5.14,5.14,0,0,0-.52.21S78,144.93,81,144a16.94,16.94,0,0,0,4.62-1.84l-.28.09C83.39,142.86,81.67,143.27,80.7,143.49Z"/><path class="cls-13" d="M86.36,147.23l1.36-.85,6.64-2.71c-7.8,2.64-11,3.33-12.19,3.26C82.47,147.33,81.61,148.54,86.36,147.23Z"/><path class="cls-13" d="M58.85,163.36a9.24,9.24,0,0,1-1.94-2.77l.18.86c.07.42.11.68.11.68a5.44,5.44,0,0,1-1.36.21,4.28,4.28,0,0,1-.64,0l-.3-.06a2,2,0,0,1-.41-.13,2.54,2.54,0,0,0,.18.41,2.43,2.43,0,0,0,.84.93,5.86,5.86,0,0,0,3,.84,15.62,15.62,0,0,0,3.16-.18l.15,0h0l0-.08A12,12,0,0,0,58.85,163.36Z"/><path class="cls-13" d="M65,141.72c0-.49-1.21.88-2,.84a72,72,0,0,1,1.2,8.25s2,.13.76-4.06c0,0,.5-5.11.47-6.41v0A2.44,2.44,0,0,0,65,141.72Z"/><path class="cls-13" d="M62.61,142.2a8.79,8.79,0,0,0-1.06-2.85c-1-2.06-2.4-4.34-2.4-4.34a16,16,0,0,1,.86,3.4,78.45,78.45,0,0,1,.39,9.94,11.81,11.81,0,0,1,0,1.83,4.81,4.81,0,0,1,1,2c.19,1.75.72,2.1,1.34,4.32,0,0-.08-1.87-.21-3.9,1.06,1,0-6.49,0-6.49s.19-2.5.32-3.63A.59.59,0,0,1,62.61,142.2Z"/><path class="cls-13" d="M60.72,158.57a11.75,11.75,0,0,1-2-1.63c.31.55.53.95.63,1.14A8.65,8.65,0,0,1,60.72,158.57Z"/><path class="cls-13" d="M59.91,155a38.85,38.85,0,0,0-4.52-4.33c-1.45-1.2-2.37-1.82-1.39-.83a27.55,27.55,0,0,1,3.22,4.54A15,15,0,0,0,56,151.86l-.23-.19a6.42,6.42,0,0,0-1-1.39c-.09-.1-.16-.19-.25-.28l.25.28A12.81,12.81,0,0,1,56,151.86c1.1.95,3.25,3,4.84,4.6a7.8,7.8,0,0,1-.81-1.61,4.39,4.39,0,0,0-.31-3.77,4.21,4.21,0,0,1-1.85-2.88,9.54,9.54,0,0,1-.2-1.17,15.12,15.12,0,0,1,.06-3.36,7.13,7.13,0,0,0-.46,4.5A16.12,16.12,0,0,0,58,150.9,23.86,23.86,0,0,0,59.91,155Z"/><path class="cls-13" d="M54.49,156a2.52,2.52,0,0,1,1.18,1.14l.15,0c.72.25,2.15.52,3.4.87a14.43,14.43,0,0,0-3.74-1.88C54.25,155.73,53.51,155.61,54.49,156Z"/><path class="cls-13" d="M56.44,158.88l.42.6,2.24-1a9.06,9.06,0,0,0-3.36-1.27A9.09,9.09,0,0,1,56.44,158.88Z"/><path class="cls-13" d="M58.36,161.15c.46.06.86,1,1.72.73a12.65,12.65,0,0,0-.49-2.7,1.47,1.47,0,0,0-.46-.66c-.47.25-1.22.64-2.16,1.1C57.49,160.33,58.11,161.11,58.36,161.15Z"/><path class="cls-16" d="M88.06,146.41l-1,.61c.79-.23,1.71-.52,2.79-.89Z"/><path class="cls-16" d="M65.48,140.3v0c0-.15,0-.25,0-.25S65.46,140.14,65.48,140.3Z"/><path class="cls-16" d="M85.17,143.51a5.18,5.18,0,0,0,2-1.77c.17-.37,0-.53,0-.53-.59.4-1.07.72-1.52,1A16.94,16.94,0,0,1,81,144c-3,.89-.83-.34-.83-.34a5.14,5.14,0,0,1,.52-.21c1-.33.62.19,2-1.58.05-.17.09-.32.13-.47a2.68,2.68,0,0,0,.07-.27c.41-1.62,0-1.43,0-1.43a3.85,3.85,0,0,1-1.74,2.88c-1.41,1,.18-1.63.18-1.63-2.58,1.48-3,1.51-3.86,1.7s-5,5.74-5,5.74c1.68-3.78.45-2.72,1.68-4.19.33-.42.84-1.17,1.37-2,.23-.35.46-.71.69-1.05l1.29-2-3.48,4.22-2.8,5.84c-.74-1.48-1.43-2.37.42-3.36a4.64,4.64,0,0,0,2.09-3.35,2.65,2.65,0,0,1-2.51,2.09l-1.26,1.26c-2.1,1.26-1.26-1.67-1.26-5.87a17.5,17.5,0,0,0-1.26,5c-.83.9.43,3.53.43,3.53-.87-1.36-3.09-1.7-2.1-2.69a25,25,0,0,0-.37-5.57c0,1.3-.52,6.45-.47,6.41,1.26,4.19-.76,4.06-.76,4.06a72,72,0,0,0-1.2-8.25,2.94,2.94,0,0,0-.1-.34c0-.47,0-.24-.1.28-.13,1.13-.32,3.63-.32,3.63s1,7.45,0,6.49c.13,2,.21,3.9.21,3.9-.62-2.22-1.15-2.57-1.34-4.32a4.81,4.81,0,0,0-1-2,22.6,22.6,0,0,0-2.42-2.7l-.19-.18a3.2,3.2,0,0,0,.13.58,28.75,28.75,0,0,0,1.78,3.2,4.39,4.39,0,0,1,.31,3.77,7.8,7.8,0,0,0,.81,1.61c-1.59-1.61-3.74-3.65-4.84-4.6a15,15,0,0,1,1.26,2.51,12.72,12.72,0,0,0,.57,1.39,7,7,0,0,0,.93,1.18,11.75,11.75,0,0,0,2,1.63,8.65,8.65,0,0,0-1.37-.49l-.13,0c-1.25-.35-2.68-.62-3.4-.87l-.15,0c-1.14-.39-1.78-.49-.83-.13a6.91,6.91,0,0,0,.9.24,9.06,9.06,0,0,1,3.36,1.27l.61-.28-.58.3a1.47,1.47,0,0,1,.46.66,12.65,12.65,0,0,1,.49,2.7c-.86.25-1.26-.67-1.72-.73-.25,0-.87-.82-1.39-1.53l-.38.18c.1.26.2.53.32.79a9.24,9.24,0,0,0,1.94,2.77,12,12,0,0,1,3.07.65l0,0,.25.09.15-.34a33.45,33.45,0,0,1,3.36-6l.18-.24c.79-1,1.21-1.16,1.21-1.16l0,0a17.05,17.05,0,0,1,4.16-2.07l.83-.32c2.28-1.08,4.56-2.17,5.45-2.62,2.28-1.14,5.17-1.16,5.85-1.78a4.79,4.79,0,0,0,.68-.71L87.07,147l-.71.21c-4.75,1.31-3.89.1-4.19-.3a.24.24,0,0,0-.08-.06c-.61-.34,1-.46,1-.46.77-.16.35-.61.58-1.33A3.08,3.08,0,0,1,85.17,143.51Z"/><path class="cls-16" d="M56.14,158.44c.12.39.25.78.39,1.18l.33-.14-.42-.6Z"/><path class="cls-16" d="M55.73,151.67l.23.19a12.81,12.81,0,0,0-1.23-1.58A6.42,6.42,0,0,1,55.73,151.67Z"/><path class="cls-16" d="M54.73,150.28l-.25-.28C54.57,150.09,54.64,150.18,54.73,150.28Z"/><path class="cls-15" d="M65.86,157.65s3.77,5,9.63,2.5c3-1.31,2.1-8.79,2.1-8.79A28.82,28.82,0,0,1,72.14,154c-2,1-4,1.89-5,2.39A4.36,4.36,0,0,0,65.86,157.65Zm2.88-1.5a1.07,1.07,0,0,1,1.43-.52,1.1,1.1,0,0,1,.38.29,1.46,1.46,0,1,1-.39,1.66,1.05,1.05,0,0,1-.9,0A1.07,1.07,0,0,1,68.74,156.15Z"/><path class="cls-17" d="M65.86,157.65s3.77,5,9.63,2.5c3-1.31,2.1-8.79,2.1-8.79A28.82,28.82,0,0,1,72.14,154c-2,1-4,1.89-5,2.39A4.36,4.36,0,0,0,65.86,157.65Zm2.88-1.5a1.07,1.07,0,0,1,1.43-.52,1.1,1.1,0,0,1,.38.29,1.46,1.46,0,1,1-.39,1.66,1.05,1.05,0,0,1-.9,0A1.07,1.07,0,0,1,68.74,156.15Z"/><path class="cls-16" d="M71.31,154.3a17.05,17.05,0,0,0-4.16,2.07c1-.5,3-1.44,5-2.39Z"/><path class="cls-17" d="M71.31,154.3a17.05,17.05,0,0,0-4.16,2.07c1-.5,3-1.44,5-2.39Z"/><path d="M70.69,157.06a1.07,1.07,0,0,1-.53.52,1.47,1.47,0,1,0,.39-1.66A1.09,1.09,0,0,1,70.69,157.06Z"/><path class="cls-8" d="M69.26,157.58a1.05,1.05,0,0,0,.9,0,1.07,1.07,0,0,0,.53-.52,1.06,1.06,0,0,0-.52-1.43,1.08,1.08,0,1,0-.91,2Z"/><path class="cls-12" d="M184.59,206.64c0,.11.09.22.13.32.42-.26.73-.43.73-.43A6.7,6.7,0,0,0,184.59,206.64Z"/><path class="cls-12" d="M180.9,200.62a19.61,19.61,0,0,1,2.19,3,8.51,8.51,0,0,1,.66-.56A5.72,5.72,0,0,0,180.9,200.62Z"/><path class="cls-12" d="M184.63,204.39c-.27.17-.54.36-.8.56l.26.52c.26-.22.53-.44.79-.63Z"/><path class="cls-12" d="M187.82,233.71a3.87,3.87,0,0,1-.82-.21A.88.88,0,0,0,187.82,233.71Z"/><path class="cls-12" d="M189.19,190.19a5.5,5.5,0,0,1-.81,2.34c.09.17.17.35.26.53C189.67,190.71,189.19,190.19,189.19,190.19Z"/><path class="cls-12" d="M192.87,223.16,191.59,221l.09.94C192.4,222.63,192.87,223.16,192.87,223.16Z"/><path class="cls-12" d="M179.67,256.05l0-.4h0C179.64,255.91,179.67,256.05,179.67,256.05Z"/><path class="cls-12" d="M187.5,211.68a19.43,19.43,0,0,0-1.93-1.34c.46,3.58-.44,7.7-4.69,11.55,0,0,8.2-10.6-2.86-13.39,0,0,6.48,5.86-.29,8.7,0,0,1.33-5.15-2.14-8.8.13.61-1.78,8.74-1.28,10.38,1.66,5.48-1.56,5-2.06,8.72l-5.25,7c.33-.35,5.31-4.14-1.21,5.51-.56.83-.44,3.71.12,6,1.14-1.26,5.55-3.23,4.93-9.45-.46-4.62,1.78-3.93,1,8.54a3.74,3.74,0,0,0,.77,2.71,4.93,4.93,0,0,0,2.23,1.45c-.05-1.48.11-2.6.69-2.79,1.1-.35,2,1.34,2.71,3.39l.86,0c-.94-6.26-2.48-7.93-2.48-7.93.74-10.94,5-.26,5-.26-2.55-12.3-.55-14.25-.55-14.25,2.21,4.22,4.67,5.62,5.92,6.07-1.52-1.14-3.21-5.82-3.21-5.82,2.64-4,4,1.42,4,1.42,1-5.95-1.88-4.43-1.88-4.43,3.28-6.1,3.7,4.59,3.7,4.59.38-12-4.79-10.37-4.79-10.37,1.08-2,4.2.45,6.23,2.38-.67-2.4-1.68-5.76-2.89-9.08Z"/><path class="cls-12" d="M193.2,219.85c-.59-1.27-1.28-2.62-2.07-4l.34,3.81a8.34,8.34,0,0,1,2.29,1.42l-.06-.14A2.78,2.78,0,0,1,193.2,219.85Z"/><path class="cls-12" d="M175.55,208.36c-.19-.2-.4-.39-.61-.58C174.72,208,174.75,208.16,175.55,208.36Z"/><path class="cls-12" d="M194.73,167.25a4.37,4.37,0,0,0,.75.45S195.19,167.5,194.73,167.25Z"/><path class="cls-12" d="M192.82,174.33l.22.18c-1.19-3.61-2.4-5.51-3.46-6.44a8.51,8.51,0,0,0,.46,2.46C190.91,170.27,192.07,172.57,192.82,174.33Z"/><path class="cls-12" d="M183.49,187s.77-.78,2.5,1.46c0-1.61.61-1.74,1.43-1.28C185,185.5,182.83,184.47,183.49,187Z"/><path class="cls-12" d="M190.72,190.52l-.71-1.39c-.59-.48-1.24-1-1.89-1.46A20.06,20.06,0,0,1,190.72,190.52Z"/><path class="cls-12" d="M186.31,185.1s.86.21,2.78,2.15c-.36-.76-.69-1.47-1-2.13C187,184.56,186.28,184.42,186.31,185.1Z"/><path class="cls-12" d="M192.81,203.7c.39.77.63,1.29.63,1.29-.61-1.68-1.19-3.15-1.74-4.43,0,.13.09.25.13.38C192.17,201.87,192.49,202.79,192.81,203.7Z"/><path class="cls-12" d="M183.56,181s1.65.91,3.8,2.31c-.4-1.05-.7-1.94-.92-2.69A3,3,0,0,0,183.56,181Z"/><path class="cls-18" d="M195.42,225.52a22.16,22.16,0,0,0,.67,2.32S195.88,227,195.42,225.52Z"/><path class="cls-18" d="M172.63,219.18a6.67,6.67,0,0,0,1.31,2.26S173.41,220.64,172.63,219.18Z"/><path class="cls-18" d="M178.35,181a24.55,24.55,0,0,0-5.46-2.27A52.48,52.48,0,0,0,178.35,181Z"/><path class="cls-18" d="M131.65,183.43a15.64,15.64,0,0,1-2.15,3.83c.34,0,.69.07,1.06.08C131.79,184.84,132.59,182.85,131.65,183.43Z"/><path class="cls-18" d="M135.32,179s-1.74,4.05-4,8.39a1.48,1.48,0,0,1,1.41.84C135,183.87,136.76,179.66,135.32,179Z"/><path class="cls-18" d="M129.91,182s1,.36-2.73,4.63a7.31,7.31,0,0,0,1.71.53C130.8,183.65,132.61,179.78,129.91,182Z"/><path class="cls-18" d="M189.59,163.75c-7.79,7.32-8.12,4.31-7.47,1.47l-3.16.72c-1.23.28-2.32.54-3.3.78-.29.5-.78.51-1.32.32l-1.39.35,1.12.75s-.51-.22-1.3-.52l.24.4c.1.18-.39.45-1.22.8l.64-.08c-5.69,1.9,10.36,6.64,10.36,6.64-8.35-.81-10.11-2.44-10.11-2.44-2.4,1.49,12.85,6.72,12.85,6.72-6.65-.23-18.66-6.92-18.66-6.92a2.18,2.18,0,0,0,0,.57c1.77.43,6.84,2.17,14.92,8.88,3.62,1.11,6.46,1.76,6.46,1.76l-5.23-.73c1,.85,2,1.76,3.07,2.75,0,0-1.84-1.36-4.33-2.92l-8.56-1.19c7.88,5.22,12.72,9,15.64,11.69-.07-.17-.15-.33-.22-.49s-.17-.36-.26-.53a24.72,24.72,0,0,0-2.39-4.09c-1.73-2.24-2.5-1.46-2.5-1.46-.66-2.51,1.54-1.48,3.93.18.23.17.47.33.7.51.65.48,1.3,1,1.89,1.46,1.38,1.12,2.43,2.06,2.43,2.06a42.79,42.79,0,0,0-3.35-3.94c-1.92-1.94-2.78-2.15-2.78-2.15,0-.68.71-.54,1.81,0,2.91,1.49,8.31,5.94,8.31,5.94-1.85-2.76-6-5.76-9.07-7.76-2.15-1.4-3.8-2.31-3.8-2.31a3,3,0,0,1,2.88-.38c5.27,1.39,14,10.32,14,10.32l-8.14-9.85c22,9.93,20.62,4.88,20.62,4.88-2.77,2.71-21.92-9.1-17.84-7.59s8.73.1,8.73.1c-5.21-.82-8.6-2.27-10.76-4l-.22-.18a8.74,8.74,0,0,1-2.78-3.8,8.51,8.51,0,0,1-.46-2.46,8.84,8.84,0,0,1,0-1.27,11.32,11.32,0,0,1,.79-3.18Z"/><path class="cls-18" d="M182.93,191.59,172.24,186c-.18,0-.07.17.43.55a14.25,14.25,0,0,1,1.73,1.56,25.94,25.94,0,0,1,4.33,4.95c2.51,4,9.15,10.57,9.15,10.57s-12.31-10.77-20.74-16.84a9.27,9.27,0,0,0-6.9.12c.16,2.45-1.3,3-3.3,2.47a12.46,12.46,0,0,0-2.15,3.36c.18-1.48.31-2.8.4-4-3.89-1.74-8.58-5.85-8.55-7.59,0-.85,0-1.63,0-2.35a3.64,3.64,0,0,0-1-.41c-3.15,2.49-6.52,7.29-7.81,16.51a11.85,11.85,0,0,1,0-7.5c1.32-4.26-9.13,18.16-6.66,19.13,0,0-4.54,3.75,4.18-20.1l-2.4,3.29c-.3,6.82-12.4,25.84-12.4,25.84s4.81-5.77,8.37-7.31,5.61-6.5,5.61-6.5l-2,12.6s2.27-8.57,5-11.89c1.11-1.32,2.29-1.81,3.44-.59,5.38,5.75-.5,19-.5,19,8.51-11.65,6.25-20.34,6.25-20.34,10.52-7.91,9.36,12.43,9.36,12.43C161.74,195.62,167,198.9,167,198.9a49.6,49.6,0,0,0,5.64,20.28c-1.79-4.82-.92-13.25-.92-13.25a10.88,10.88,0,0,1,3.23,1.85c.21.19.42.38.61.58l0,0c3.47,3.65,2.14,8.8,2.14,8.8,6.77-2.84.29-8.7.29-8.7,11.06,2.79,2.86,13.39,2.86,13.39,4.25-3.85,5.15-8,4.69-11.55a16.24,16.24,0,0,0-.85-3.38c0-.1-.08-.21-.13-.32-.15-.4-.32-.79-.5-1.17l-.26-.52c-.24-.48-.49-.93-.74-1.34a19.61,19.61,0,0,0-2.19-3,5.72,5.72,0,0,1,2.85,2.43c.3.41.59.86.88,1.34l.25.45a52.05,52.05,0,0,1,3.26,7.35c1.21,3.32,2.22,6.68,2.89,9.08.57,2.06.9,3.41.9,3.41l-.25-2.77-.09-.94-.12-1.29-.34-3.81c.79,1.36,1.48,2.71,2.07,4,.18.38.34.75.5,1.11l.06.14c.74,1.72,1.28,3.26,1.66,4.42-.87-3.83.74-3.67.74-3.67l4.84,9.5s-2.89-12.44-8.19-27.65c-.32-.91-.64-1.83-1-2.76,0-.13-.09-.25-.13-.38-.52-1.42-1-2.69-1.47-3.83a59.72,59.72,0,0,0-9.73-6.68C182,191,182.93,191.59,182.93,191.59Z"/><path class="cls-12" d="M148.45,100.11l-.41,0-.33.32C148,100.3,148.19,100.2,148.45,100.11Z"/><path class="cls-12" d="M133.62,106.37l1.27-1.32-.12,0-.2,0a.61.61,0,0,1,.2,0h.14c.69-.71,1.43-1.45,2.24-2.25l3.65-3.54.53-1-6,5.14s-1-2.6.69-4l6.5-4.87s-8.82,3.11-10.54,9a1.21,1.21,0,0,0-.05.18C132.19,103.91,133,104.39,133.62,106.37Z"/><path class="cls-13" d="M172.44,126l0,0,.06-.14-.29,0A.84.84,0,0,0,172.44,126Z"/><path class="cls-13" d="M160.39,127.11a5.44,5.44,0,0,0,.52.55A.82.82,0,0,0,160.39,127.11Z"/><path class="cls-13" d="M159.64,123.4c-.22-.22-.47-.45-.75-.7a11.23,11.23,0,0,0,.18,1.26C159.63,124.31,160.22,124.52,159.64,123.4Z"/><path class="cls-13" d="M134.77,105l.12,0h-.12Z"/><path class="cls-13" d="M129.92,107.83c-.69-.35-.92-.16-.92-.16a1.87,1.87,0,0,1,.73.33A1.54,1.54,0,0,1,129.92,107.83Z"/><path class="cls-13" d="M134.57,105l.2,0A.61.61,0,0,0,134.57,105Z"/><path class="cls-12" d="M155.07,139.82s4.35-4.43,12.46,1.25l-.15-1.2c-1.2-2.07,0-4.3-2.54-5.53a.6.6,0,0,1-.14-.11,22.37,22.37,0,0,0-7.67,2.39,26.94,26.94,0,0,1,6.93.21,33.6,33.6,0,0,0-8.88,2.32A2.5,2.5,0,0,0,155.07,139.82Z"/><path class="cls-12" d="M162.94,145.22s1.95-2.8,5.13-.07l-.39-3C164.92,140.68,162.39,140.44,162.94,145.22Z"/><path class="cls-12" d="M168.76,145.18c-.08-.13-.15-.14-.2-.08a.78.78,0,0,0-.13.37c.22.22.45.46.69.74A3.93,3.93,0,0,0,168.76,145.18Z"/><path class="cls-12" d="M157,102.35s-10.55-2-10.79,8.58a15.37,15.37,0,0,1,1.13-2l-.26-.25a2.07,2.07,0,0,1,.26.24c1.1-1.65,2.87-3.61,4.78-2.91a9.61,9.61,0,0,1,1.37-1.47c-.25.56-.5,1.16-.72,1.81a4.8,4.8,0,0,1,.86.8,12.54,12.54,0,0,0-5,3l.55.53-.58.79a7.76,7.76,0,0,0-.31-1,12.09,12.09,0,0,0-3.08,6.86s7.3-3.15,11-6.89c1.09-1.32,1.66-2.14,1.66-2.14a9.25,9.25,0,0,1-1.66,2.14,65,65,0,0,1-16.11,14.12,2.29,2.29,0,0,0,.4,1.88c.27-.28.53-.53.78-.77a3.55,3.55,0,0,1,.94.19c.22-.16.46-.33.72-.5,0,0-.17.24-.42.65a1.07,1.07,0,0,1,.46,1.37l-.15.46a13,13,0,0,0,3.36.37,19.74,19.74,0,0,0,2.45-7.15c.1-.67.18-1.3.24-1.9l1.48-1.57s1.23-.47,3-1.26a22.37,22.37,0,0,1,1.87,12.67s6.29,3,7.86,2.7a32.38,32.38,0,0,0-1.73-3.16c-.64,1.07-.26-.18-.54-1a5.44,5.44,0,0,1-.52-.55,1.06,1.06,0,0,0-.45,0l-1.42-.36a.77.77,0,0,0,.89-.8s0-.08,0-.12a5.71,5.71,0,0,0-1-2.35s.35.28.71.51a11.23,11.23,0,0,1-.18-1.26c.28.25.53.48.75.7a17.56,17.56,0,0,0-1.46-2.24c-.33-.47-.73-1-1.19-1.6,0,0,4.46,4.42,1.73-5.47a19.36,19.36,0,0,1,1.48,4.27c.22,1.29.11-2.24-.33-5.16l.32-.18c.18.8.38,1.8.59,3.08.18,1.06.36,2.29.55,3.75l1-3.48s-1,5.71.46,7.75c0,0-.36-4.49.25-5.79,0,0-.3,4.59.28,4.65a5.43,5.43,0,0,1,.44-2.69s-.5,4.57.5,4.17c0,0,1-2.47.47-7.39-.39-3.88-.94-5.52-1.28-6.19l.05,0,1.12,1.27a20.58,20.58,0,0,1,2.46,8.35s3.2,1.22,1.92-.47l1.45,1.32s-3,2.46-2.41,5.1c0,0,1-4.7,5.2,1.07,0,0-4-4.54-2.78.73,0,0,.32-2.88,2.17.58,0,0-2.37-1.46-1.72,2.38,0,0,2.21.84,3.08.21a3.7,3.7,0,0,0,.33-.53.82.82,0,0,1-.33.53,4.21,4.21,0,0,1-4,1.75s.1,2.3,5,5.81c.33-.45.77-1,1.32-1.7,4.32-5.46,4.41-4.17,4.41-4.17l2-2.25s4.1,0,5.71-2.12c0,0-4.62-1.21-6.61.16l1.67-4s-5.23,8.78-7,6.87c0,0,4.25-.61,3.67-9,.66.24,1.32.5,2,.79a17,17,0,0,0-2.1-1.81L180,121s0,.27,0,.68a29.15,29.15,0,0,0-3.38-2.14,6.25,6.25,0,0,1,.66-1.07,9,9,0,0,0-1,.9,37.87,37.87,0,0,0-4.9-2.19c.07-1,.18-2.17.32-3.46a25.42,25.42,0,0,1-1.14,3.17c-1.05-.36-2.19-.7-3.4-1l-.06-.33a5.11,5.11,0,0,1,5.9-2.18s-2.64-3.51-7.26-1.2c-.54.27-.09-.49.64-1.48,2.89-.66,5.19-1.13,5.19-1.13l-4-.4c.81-1,1.56-1.92,1.56-1.92l-3.71,1.4,1.4-2.36a34.26,34.26,0,0,0,3-1.92l10.4,1.56a80.12,80.12,0,0,0-8.69-2.93,8.59,8.59,0,0,0,2-2.38s-2,.75-4.11,1.82c-1.17-.29-2.41-.57-3.68-.82l.07-.37-.14.36a56,56,0,0,0-9.71-1.11c.28-.33.44-.5.44-.5a2.1,2.1,0,0,0-.5.49,30.74,30.74,0,0,0-9,1.07l-.06-.24s0,.1,0,.26l-.47.15c-3.9,4-7.37,8.13-7.43,10.44C139,112.15,146.64,97.78,157,102.35Zm-7.88,12.46a17.05,17.05,0,0,0-.26-2.31l.67-1.45,1.95,1.88s.13.17.35.5C150.86,113.87,150,114.33,149.12,114.81Zm23.41,11-.06.14,0,0a.84.84,0,0,1-.2-.2,5.57,5.57,0,0,1-.76-2.68,10.54,10.54,0,0,1,2.26,0A23.4,23.4,0,0,0,172.53,125.81Zm7.53-3.13c-.05,2.46-.5,6.44-3,3.69,0,0,2.62.11,1.42-4.24C179,122.3,179.53,122.48,180.06,122.68Zm-4.15-1.31q1.2.31,2.46.72c-.17.87-.91,3.9-2.78,3,.48-.74,1-1.52,1.57-2.32,0,0-.85.68-2.17,1.58C175.13,123.83,175.47,122.61,175.91,121.37Zm-1-.24a15.94,15.94,0,0,0-1,1.54,9.71,9.71,0,0,0-2.57-.35c0-.55-.06-1.16-.06-1.87C172.48,120.61,173.68,120.83,174.94,121.13Zm-9.54-17.46,1.06.16a7.77,7.77,0,0,0-1.16.37Zm-.5-.07-.48,1.05a6.76,6.76,0,0,0-2.5,2.77,6.25,6.25,0,0,0-.49-4.34Zm-5.62,7A2.21,2.21,0,0,0,159,110s.16-.06.44.51Zm.08-7.81L161,103c.56,1.87.59,4.23-3,4,0,0,3.57-1.85.28-4.3A8.23,8.23,0,0,1,159.36,102.76Zm-4.73,4.51a24,24,0,0,1,.27-3.7,7.13,7.13,0,0,1,3.33-.87C158.29,103.07,158.76,107.07,154.63,107.27Z"/><path class="cls-12" d="M154.79,192.75a12.46,12.46,0,0,1,2.15-3.36,11.21,11.21,0,0,1-1.75-.62C155.1,190,155,191.27,154.79,192.75Z"/><path class="cls-12" d="M188.27,184s-2.84-.65-6.46-1.76l1.23,1Z"/><path class="cls-12" d="M146.65,177.68c-.34.22-.68.47-1,.74a3.64,3.64,0,0,1,1,.41C146.66,178.43,146.65,178.05,146.65,177.68Z"/><path class="cls-12" d="M197.86,136.08a7.07,7.07,0,0,0-3.05.11A29.9,29.9,0,0,1,197.86,136.08Z"/><path class="cls-12" d="M159.58,184a11.52,11.52,0,0,1,.66,2.95,9.27,9.27,0,0,1,6.9-.12C162.26,183.27,158.68,181.32,159.58,184Z"/><path class="cls-12" d="M174.4,188.12a14.25,14.25,0,0,0-1.73-1.56c-.5-.38-.61-.55-.43-.55l-1.06-.56A41.74,41.74,0,0,1,174.4,188.12Z"/><path class="cls-12" d="M181.78,183.05c-1.05-.67-2.23-1.37-3.43-2a52.48,52.48,0,0,1-5.46-2.27c-1.59-.38-2.92-.34-3.69.44-1.87,1.9,6.88,8,11.3,10.84a59.72,59.72,0,0,1,9.73,6.68c1.52,1.38,2.45,2.65,2.34,3.6,0,0,2.67-.89-3.71-6.78-2.92-2.71-7.76-6.47-15.64-11.69Z"/><path class="cls-12" d="M172.48,167.51c-4.2-1.56-14.76-4.82-6.31,5.66a5.11,5.11,0,0,1,.72.14,2.18,2.18,0,0,1,0-.57s12,6.69,18.66,6.92c0,0-15.25-5.23-12.85-6.72,0,0,1.76,1.63,10.11,2.44,0,0-16-4.74-10.36-6.64l-.64.08C169.81,169.06,164.33,169.63,172.48,167.51Z"/><path class="cls-19" d="M158.08,152.82c6.93,2.25,11.92,2,14.77,1.45,0-.11,0-.23,0-.34-3.92-.5-10.08-3.4-10.08-3.4,0-5,4.11-3.93,6.42-2.93.07-.16.14-.32.19-.46-.08-.37-.15-.67-.22-.93-.24-.28-.47-.52-.69-.74a8.63,8.63,0,0,0-.11,1.58l-.25-1.9c-3.18-2.73-5.13.07-5.13.07-.55-4.78,2-4.54,4.74-3l-.15-1.12c-8.11-5.68-12.46-1.25-12.46-1.25a2.5,2.5,0,0,1,0-.67c-2.92,1.27-5.82,3.17-7.35,6a3.37,3.37,0,0,0-.26.61c6,0,9,.63,10.42,1.25,1.22-.27,2-.49,2-.49l-1.72.64c1.36.72.84,1.45.84,1.45a2.92,2.92,0,0,0-2-1l-8.17,3s4.6-.56,6.58,1.72l.21.22c1.16.2,1.94.31,1.94.31l-1.76-.13a10.84,10.84,0,0,0,2.65,1.63A2.57,2.57,0,0,1,158.08,152.82Z"/><path class="cls-19" d="M143,125.46c-.26.17-.5.34-.72.5a1.4,1.4,0,0,1,.3.15C142.85,125.7,143,125.46,143,125.46Z"/><path class="cls-19" d="M148.29,147.62a.33.33,0,0,0,.12,0l.41,0-.36.05c1.63.59,4.76.24,7.34-.23A43,43,0,0,0,148.29,147.62Z"/><path class="cls-19" d="M173.11,154.22c.36-.07.69-.15,1-.22a7.55,7.55,0,0,1-.93,0C173.13,154.05,173.12,154.14,173.11,154.22Z"/><path class="cls-19" d="M163.18,131.8c-1.57.26-7.86-2.7-7.86-2.7a22.37,22.37,0,0,0-1.87-12.67c-1.78.79-3,1.26-3,1.26L149,119.26c-.06.6-.14,1.23-.24,1.9a19.74,19.74,0,0,1-2.45,7.15,40.61,40.61,0,0,0,8-1s-8.26,4-10.58,8.16l-.55,1.51a3.11,3.11,0,0,0,.52,2.29l1.29-.39a10.3,10.3,0,0,1-1.1.65,6.25,6.25,0,0,0,1.68,1.39A22.4,22.4,0,0,1,157,136.62a22.37,22.37,0,0,1,7.67-2.39A12.66,12.66,0,0,1,163.18,131.8Z"/><path class="cls-19" d="M128.29,111c.08.45.15.87.21,1.28l.41-.55-.49-1C128.38,110.83,128.33,110.92,128.29,111Z"/><path class="cls-19" d="M146.64,181.18c0,1.74,4.66,5.85,8.55,7.59a11.21,11.21,0,0,0,1.75.62c2,.5,3.46,0,3.3-2.47a11.52,11.52,0,0,0-.66-2.95c-.9-2.65,2.68-.7,7.56,2.83,8.43,6.07,20.74,16.84,20.74,16.84s-6.64-6.59-9.15-10.57a25.94,25.94,0,0,0-4.33-4.95,41.74,41.74,0,0,0-3.22-2.67l1.06.56,10.69,5.58s-1-.6-2.43-1.54c-4.42-2.87-13.17-8.94-11.3-10.84.77-.78,2.1-.82,3.69-.44a24.55,24.55,0,0,1,5.46,2.27c1.2.64,2.38,1.34,3.43,2,2.49,1.56,4.33,2.92,4.33,2.92-1.07-1-2.09-1.9-3.07-2.75l-1.23-1c-8.08-6.71-13.15-8.45-14.92-8.88a5.11,5.11,0,0,0-.72-.14c-8.45-10.48,2.11-7.22,6.31-5.66l.29.11c.79.3,1.3.52,1.3.52l-1.12-.75c-8.28-5.54-12-9.25-13.6-11.54-4.12-.17-10.71,1.66-15.63,2.59,1.51,2,2.72,5.37,3.19,4.84,5.83-6.64-3.67,5.58,3.85.16l5.15-2.82s-8,4.94-3.82,8.3c0,0-12.08,2.14.08,6.8a11,11,0,0,0-5.52,2c0,.37,0,.75,0,1.15C146.67,179.55,146.66,180.33,146.64,181.18Z"/><path class="cls-19" d="M133.62,106.37c-.64-2-1.43-2.46-1.73-2.57l-.13,0,.11.13a6.16,6.16,0,0,1,1.07,3.2Z"/><path class="cls-19" d="M149.53,111.05l-.67,1.45a17.05,17.05,0,0,1,.26,2.31c.83-.48,1.74-.94,2.71-1.38-.22-.33-.35-.5-.35-.5Z"/><path class="cls-19" d="M149.21,110.74l-.55-.53-.34.36a7.76,7.76,0,0,1,.31,1Z"/><path class="cls-13" d="M175.65,153.46a10.08,10.08,0,0,1-1.57.54A2.24,2.24,0,0,0,175.65,153.46Z"/><path class="cls-13" d="M147.34,108.94h0a2.07,2.07,0,0,0-.26-.24Z"/><path class="cls-12" d="M177.34,118.46a5.09,5.09,0,0,1,.73-.52A1.24,1.24,0,0,0,177.34,118.46Z"/><path class="cls-12" d="M173.92,143.14l.18,0c.47,0,1.87.17,4.46,2.66l.4.39c.32.32.65.67,1,1.06a15.12,15.12,0,0,0-1.32-1,10.24,10.24,0,0,0-1-.59,3.46,3.46,0,0,0-1.53-.44.88.88,0,0,0-.86.8c-.27,1.33,2.43,3.36,3.77,4.29.44.3.74.48.74.48l-3.12-1.48-.31-.14a9.64,9.64,0,0,1,1,1,10.77,10.77,0,0,1,1.52,2.09,34.4,34.4,0,0,0,3.22,4.46s-4-4.1-6.62-6.19c-1.52-1.21-2.57-1.75-2.1-.43a12.77,12.77,0,0,1,.44,1.53c.27,1.33,0,1.84-.57,1.86a1.24,1.24,0,0,1-.48-.08,5.15,5.15,0,0,1-2.79-2.91c-.08-.47-.15-.9-.22-1.3-.14-.82-.27-1.49-.39-2-.05.14-.12.3-.19.46-2.31-1-6.4-2.06-6.42,2.93,0,0,6.16,2.9,10.08,3.4,0,.11,0,.23,0,.34-2.85.54-7.84.8-14.77-1.45a2.57,2.57,0,0,0,.4,1.6,29.18,29.18,0,0,0,4.76,1.64s-1.55-.11-3.89-.21c1.63,2.29,5.32,6,13.6,11.54l1.39-.35,1.32-.32c1-.24,2.07-.5,3.3-.78l3.16-.72c-.65,2.84-.32,5.85,7.47-1.47l.82-.13a11.32,11.32,0,0,0-.79,3.18,25.79,25.79,0,0,1,4.83,2.62l-2.94-3a6.7,6.7,0,0,1,3.22.84,2.63,2.63,0,0,1-1.25-2l3.15.38s-1.42-1-3.61-2.35c5.3-.61,5.09.33,5.09.33l8.92-1.66s-2-3.93,22.69,2.3c0,0-16.47-6.66-24.75-6.42l8.83-4.93s-25.18,9.09-30.45,4.19c0,0,18.48,3.78,19.91-14,0,0-4,15.57-14.59,5.78,0,0,10.13,3,7.94-6,0,0-6.18,7.64-14.87,1.06,0,0,7.27-6.44,13.07-7.72a53.18,53.18,0,0,0-13.18,2.72.71.71,0,0,0-.21-.37c0,.13.06.27.08.42a49.26,49.26,0,0,0-5.78,2.42c-.73-.32-1.21-.82-.71-1.62a7.59,7.59,0,0,1-.85.73c-.16.1-.24.09-.07-.22a12.18,12.18,0,0,1,.82-1.19C173.74,138.84,170.87,138.62,173.92,143.14Zm.16,10.86c-.28.07-.61.15-1,.22,0-.08,0-.17,0-.26a7.55,7.55,0,0,0,.93,0,10.08,10.08,0,0,0,1.57-.54A2.24,2.24,0,0,1,174.08,154Z"/><path class="cls-18" d="M170,133.13a4.21,4.21,0,0,0,4-1.75c-.87.63-3.08-.21-3.08-.21-.65-3.84,1.72-2.38,1.72-2.38-1.85-3.46-2.17-.58-2.17-.58-1.21-5.27,2.78-.73,2.78-.73-4.24-5.77-5.2-1.07-5.2-1.07-.61-2.64,2.41-5.1,2.41-5.1L169,120c1.28,1.69-1.92.47-1.92.47a20.58,20.58,0,0,0-2.46-8.35l-1.12-1.27-.05,0c.34.67.89,2.31,1.28,6.19.5,4.92-.47,7.39-.47,7.39-1,.4-.5-4.17-.5-4.17a5.43,5.43,0,0,0-.44,2.69c-.58-.06-.28-4.65-.28-4.65-.61,1.3-.25,5.79-.25,5.79-1.49-2-.46-7.75-.46-7.75l-1,3.48c-.19-1.46-.37-2.69-.55-3.75-.21-1.28-.41-2.28-.59-3.08l-.32.18c.44,2.92.55,6.45.33,5.16a19.36,19.36,0,0,0-1.48-4.27c2.73,9.89-1.73,5.47-1.73,5.47.46.6.86,1.13,1.19,1.6a17.56,17.56,0,0,1,1.46,2.24c.58,1.12,0,.91-.57.56-.36-.23-.71-.51-.71-.51a5.71,5.71,0,0,1,1,2.35s0,.08,0,.12a.77.77,0,0,1-.89.8l1.42.36a1.06,1.06,0,0,1,.45,0,.82.82,0,0,1,.52.55c.28.8-.1,2.05.54,1a32.38,32.38,0,0,1,1.73,3.16,12.66,12.66,0,0,0,1.52,2.43.6.6,0,0,0,.14.11c2.49,1.23,1.34,3.46,2.54,5.53l.15,1.2.15,1.12.39,3,.25,1.9a8.63,8.63,0,0,1,.11-1.58.78.78,0,0,1,.13-.37c.05-.06.12,0,.2.08a3.93,3.93,0,0,1,.36,1c.07.26.14.56.22.93.12.55.25,1.22.39,2,.07.4.14.83.22,1.3a5.15,5.15,0,0,0,2.79,2.91,1.24,1.24,0,0,0,.48.08c.54,0,.84-.53.57-1.86a12.77,12.77,0,0,0-.44-1.53c-.47-1.32.58-.78,2.1.43,2.61,2.09,6.62,6.19,6.62,6.19a34.4,34.4,0,0,1-3.22-4.46,10.77,10.77,0,0,0-1.52-2.09,9.64,9.64,0,0,0-1-1l.31.14,3.12,1.48s-.3-.18-.74-.48c-1.34-.93-4-3-3.77-4.29a.88.88,0,0,1,.86-.8,3.46,3.46,0,0,1,1.53.44,10.24,10.24,0,0,1,1,.59,15.12,15.12,0,0,1,1.32,1c-.35-.39-.68-.74-1-1.06l-.4-.39c-2.59-2.49-4-2.69-4.46-2.66l-.18,0c-3-4.52-.18-4.3,1-4.06l.44.1-.34-.24C170.12,135.43,170,133.13,170,133.13Z"/><path class="cls-18" d="M159,110a2.21,2.21,0,0,1,.29.56l.15,0C159.15,110,159,110,159,110Z"/><path class="cls-13" d="M174,131.38a.82.82,0,0,0,.33-.53A3.7,3.7,0,0,1,174,131.38Z"/><path class="cls-20" d="M95.27,212.06c-.59.46-1.27,1-2.08,1.77C93.19,213.83,94,213.19,95.27,212.06Z"/><path class="cls-20" d="M98.72,191.64s.72-.87,2-2.28A13.39,13.39,0,0,0,98.72,191.64Z"/><path class="cls-20" d="M103.42,143.09a21.71,21.71,0,0,1,3.39,1.06,7.76,7.76,0,0,0-.77-1C104.43,143.12,103.42,143.09,103.42,143.09Z"/><path class="cls-20" d="M117.31,155.33a9.63,9.63,0,0,0,.53-1.09,12.29,12.29,0,0,0-1.47-1.46,5.15,5.15,0,0,1-.38.65,13.39,13.39,0,0,1-1.19,1.51q.06.23.09.3l-.14-.23a22.74,22.74,0,0,1-7.59,5.25,36.68,36.68,0,0,1-8.35,2.57,24.67,24.67,0,0,0,9.49-.79,27.85,27.85,0,0,0,8.09-3.76Z"/><path class="cls-20" d="M104.64,152.65a54,54,0,0,1,7.56-1.8l-.67-1.09Z"/><path class="cls-20" d="M127.18,186.63c3.74-4.27,2.73-4.63,2.73-4.63,2.7-2.22.89,1.65-1,5.16-1.31,2.4-2.67,4.64-2.67,4.64,1.44-1.88,2.5-3.37,3.28-4.54a15.64,15.64,0,0,0,2.15-3.83c.94-.58.14,1.41-1.09,3.91-1.68,3.43-4.19,7.8-4.19,7.8a50.44,50.44,0,0,0,4.91-7.78c2.3-4.34,4-8.39,4-8.39,1.44.69-.32,4.9-2.63,9.23-2.7,5.06-6.16,10.28-6.16,10.28l6.4-8.73,2.4-3.29c-8.72,23.85-4.18,20.1-4.18,20.1-2.47-1,8-23.39,6.66-19.13a11.85,11.85,0,0,0,0,7.5c1.29-9.22,4.66-14,7.81-16.51.34-.27.68-.52,1-.74a11,11,0,0,1,5.52-2c-12.16-4.66-.08-6.8-.08-6.8-4.18-3.36,3.82-8.3,3.82-8.3l-5.15,2.82c-7.52,5.42,2-6.8-3.85-.16-.47.53-1.68-2.81-3.19-4.84l-.89.17c-1.38.24-2.57-.75-3.51-.93a4.87,4.87,0,0,1-.75.1,2.13,2.13,0,0,0-1.3,2.37c2.55,10.78-13.29,13.24-12.75,9.23.83-6.15.91-9.11.62-10.23-.36,0-.71,0-1-.08a25.68,25.68,0,0,0-2.48,5.44v0l1-5.65a3.26,3.26,0,0,1-1.89-.85c-.38-.54-.74-1-1.08-1.48a3.77,3.77,0,0,0-2.28,1.24c4.77,3.45-2.68,9.08-7.57,12.14-2.08,1.3-3.7,2.14-3.7,2.14,1.35-.35,2.57-.63,3.66-.85a24.75,24.75,0,0,1,5.36-.57c5.41.13,3.85,3.45,3.85,3.45l-.25.16a92.74,92.74,0,0,0-18,15.12c4.34-4,12-7.62,12-7.62a17.13,17.13,0,0,1-10.1,10.94c2.63,4.31,7.85-4.24,7.85-4.24-2.4,10.87-12,9.35-12,9.35,8.94,4.15,19.19-11,19.19-11C116.38,192.26,96,208.65,96,208.65l7.94-5.23a99.7,99.7,0,0,1-8.66,8.64c3.45-2.72,3.32-1.27,3.32-1.27l-8.52,9s12.57-10,27.34-23.5l1-.92C122.71,191.41,125.45,188.6,127.18,186.63Z"/><path class="cls-20" d="M142.6,126.11a1.4,1.4,0,0,0-.3-.15,3.55,3.55,0,0,0-.94-.19c-.25.24-.51.49-.78.77a4,4,0,0,0,2.33,1.4l.15-.46A1.07,1.07,0,0,0,142.6,126.11Z"/><path class="cls-20" d="M143.12,137l.55-1.51A5,5,0,0,0,143.12,137Z"/><path class="cls-12" d="M106.82,127.91l.11,0a6,6,0,0,1,3.35-3.77,12.16,12.16,0,0,0-2.22-1.37C106.69,124.58,105.75,126.6,106.82,127.91Z"/><path class="cls-12" d="M121.31,118.51a1.1,1.1,0,0,0,.52.46s.24-1,.67-2.45c0,.08-.09.16-.14.24C122,117.32,121.65,117.91,121.31,118.51Z"/><path class="cls-12" d="M124.78,114.76a8.3,8.3,0,0,1,.93-2.59c-.46.54-.92,1.11-1.38,1.72C124.22,114.65,124.33,115,124.78,114.76Z"/><path class="cls-12" d="M78.85,133.18c1.11,0,2.08.07,2.93.12a33,33,0,0,0-5-1.38l-.51.24c-1.7.77-2.7,1-1.21,1h.19c.91,0,1.76,0,2.54,0Z"/><path class="cls-12" d="M81,137l.76,0H82l-.06-.17h0C81.47,136.88,81.14,137,81,137Z"/><path class="cls-12" d="M114.89,152.38l.6-.12A.55.55,0,0,0,114.89,152.38Z"/><path class="cls-12" d="M117.31,155.33l-.92,2.95-.61,2a8.8,8.8,0,0,1,1.61-2.47,3.77,3.77,0,0,1,2.28-1.24c-.7-.94-1.3-1.69-1.83-2.29A9.63,9.63,0,0,1,117.31,155.33Z"/><path class="cls-12" d="M148.29,147.62a43,43,0,0,1,7.51-.16c.76-.13,1.48-.28,2.09-.41-1.42-.62-4.38-1.2-10.42-1.25A1.33,1.33,0,0,0,148.29,147.62Z"/><path class="cls-12" d="M159.05,148.65s.52-.73-.84-1.45l-1.18.44A2.92,2.92,0,0,1,159.05,148.65Z"/><path class="cls-12" d="M143.64,139.3l.19.26a10.3,10.3,0,0,0,1.1-.65Z"/><path class="cls-13" d="M106.93,127.89c1.85-.33,6.24-1.39,3.35-3.77A6,6,0,0,0,106.93,127.89Z"/><path class="cls-13" d="M148.41,147.67l.05,0,.36-.05Z"/><path class="cls-13" d="M155.65,152.61l.18.18,1.76.13S156.81,152.81,155.65,152.61Z"/><path class="cls-13" d="M120.18,140.28c-2.48.89-6.74-7.19-7.32-6.43-4.78,6.24,2.71-5.32-4.11-.37L103.88,136s7.44-4.45,2.3-8l.64-.09c-1.07-1.31-.13-3.33,1.24-5.16-.91-.45-2-.93-3.41-1.46a10.22,10.22,0,0,0,6.84-2.73l-4.09-.16c4.24.85-5.32,2.75-5.32,2.75a18,18,0,0,0-10-8.4l-4.4-.57c.92.21,3.45,1.31,6.46,7,3.16,6,1.26,10.37,1.26,10.37-2.72,1.64-2.9-5-2.9-5-1.2,3.13-.31,4.08-.31,4.08-1.69.55-2.43-5.9-2.43-5.9-1.28,2.41,1.31,8,1.31,8-5-1.08-4-9.82-4-9.82l-1.67,5.76c-1.06-1.73-2-3.18-2.89-4.4q-.28-.41-.57-.78l0,0,.33,0c-.08-.26-.17-.53-.28-.81a12.45,12.45,0,0,1-.25-9.14,8.1,8.1,0,0,1-.12-3.77v0c.07-.46.13-.77.13-.77l-.27.59c-3.8,8.47-6.11,8.4-6.11,8.4a11.27,11.27,0,0,0-1.49-7.44c.58,1.66-.4,5.56-.4,5.56-3.88.76-2.28-3.39-2.28-3.39-3.56,3-.71,3.88-.71,3.88-5.33,1.61-.55-5.13-.55-5.13-6,7-1.4,9.32-1.4,9.32-2.66.8-4.93-4.94-4.93-4.94l-1.41,2.47c1.76-2.12.35,3.54.35,3.54a14.09,14.09,0,0,0-8.48,3.53l-1.63,2.28c.4-.46,1.85-1.59,6.57-1.93,5-.35,7.35,1.68,7.35,1.68.34,1.87-4.19.45-4.19.45,1.77,1.37,2.66,1.1,2.66,1.1-.1,1-4.66,0-4.66,0,1.27,1.25,5.77,1.11,5.77,1.11-2.13,2.48-7.77,0-7.77,0l3.42,2.23c-1.47.18-2.72.37-3.79.57-6.43,1.2-6.18,2.57-6.18,2.57,1.56-1.9,10.34-1.62,8.41-1.24a9.42,9.42,0,0,0-2.64,1.08l.25.45c7.4-2.1,3.38,4.41,3.38,4.41.63-.77,1.18-1.42,1.67-2A20.61,20.61,0,0,1,65,133.69c1.29-1,.83.39.39,1.42,1.91-1.6,4.42-4.42,7.21-6.06,1.56-1.27,3.4-2.81,3.64-3.56a5.36,5.36,0,0,1,1.12-2.14c8.38,8.63-4.53,7.75-4.53,7.75l2.67.54a17.79,17.79,0,0,0-2.82,1.92c-2.09,1.7-3.94,3.72-5.38,4.82a7.58,7.58,0,0,0-1.83,1.91v.05a25,25,0,0,1,.37,5.57c-1,1,1.23,1.33,2.1,2.69,0,0-1.26-2.63-.43-3.53a17.5,17.5,0,0,1,1.26-5c0,4.2-.84,7.13,1.26,5.87l1.26-1.26a2.65,2.65,0,0,0,2.51-2.09,4.64,4.64,0,0,1-2.09,3.35c-1.85,1-1.16,1.88-.42,3.36l2.8-5.84,3.48-4.22-1.29,2a35.21,35.21,0,0,0,4.4-4.45c.22-.28.39-.51.54-.72a1.91,1.91,0,0,1,.68.7h0l.06.17c.26,1-1.39,1.71-2,1.95a1.45,1.45,0,0,1-.23.08l.2-.05,4-1a7.58,7.58,0,0,1,.93-.36c-.43.32-.86.62-1.27.89-1.1.75-2,1.28-2.36,1.48l-.16.09a19.53,19.53,0,0,1-4.89,2.22,4.22,4.22,0,0,1-.57.08c-.53.79-1,1.54-1.37,2-1.23,1.47,0,.41-1.68,4.19,0,0,4.16-5.56,5-5.74s1.28-.22,3.86-1.7c0,0-1.59,2.59-.18,1.63A3.85,3.85,0,0,0,83,139.74s.38-.19,0,1.43c.73-.76,1.45-1.6,2.1-2.41l.06-.07c.38-.47.73-.93,1.06-1.36a1.38,1.38,0,0,1,1.1.63,2.64,2.64,0,0,1,.3.64c.23.67.26,1.1,1.22-.31.11-.15,1.67.51,3.65,1.33a37.78,37.78,0,0,1-5.3,2.12,5.18,5.18,0,0,1-2,1.77,3.08,3.08,0,0,0-1.45,1.57,45.59,45.59,0,0,0,5.63-3.22l.15-.09.48-.31c1-.64,1.9-1.26,2.64-1.76,2.86,1.18,6.5,2.64,7.86,2.44,3.34-.49,4.71.07,5.56,1a7.76,7.76,0,0,1,.77,1,5.06,5.06,0,0,0,2.86,2.56l1.86,3,.67,1.09,2.55,4.16.14.23q0-.08-.09-.3c-.15-.65-.37-2.09.09-2.56a.55.55,0,0,1,.6-.12,3,3,0,0,1,.88.52,12.29,12.29,0,0,1,1.47,1.46c.53.6,1.13,1.35,1.83,2.29.34.45.7.94,1.08,1.48a3.26,3.26,0,0,0,1.89.85l1.9-10.51C122,145.93,128.17,137.44,120.18,140.28ZM77.85,123a8.75,8.75,0,0,1,2.64-.66c1.28,2.58,1.9,4.76,1.1,3.68A12.69,12.69,0,0,0,77.85,123Zm.28,11.83a14.59,14.59,0,0,1,2.57,1L77,138h0l-4.8,3c-.74-1.48.92-2.83,2.77-3.82l.56-.28a24.94,24.94,0,0,1,3.32-1.32c-1,.22-1.83.41-2.57.59a33.26,33.26,0,0,0-4.08,1.17c-.73.28-.75.41-.74.45-.17-.28,0-.62.41-.94a4.08,4.08,0,0,1,.39-.31,10.43,10.43,0,0,1,1.17-.71,39.6,39.6,0,0,0-3.73,2,13,13,0,0,0-2.7,2.07c-.83.89-.7,1.32-.7,1.32-.71-1.11,1-2.64,3.35-4.06.49-.3,1-.6,1.54-.89a22.6,22.6,0,0,0,4.09-3.12H75.1c-1.49,0-.49-.21,1.21-1l.29-.29.22,0a33,33,0,0,1,5,1.38C85.16,134.72,78.13,134.79,78.13,134.79Z"/><path class="cls-13" d="M124.09,159.07c.34,0,.69.06,1,.08C124.94,158.36,124.55,158.49,124.09,159.07Z"/><path class="cls-13" d="M87.7,112.18a2.18,2.18,0,0,0-.38-.05Z"/><path class="cls-21" d="M157.29,88.43c.53-.43,1.13-1,1.84-1.64C159.13,86.79,158.42,87.38,157.29,88.43Z"/><path class="cls-21" d="M134.91,105h0l-1.27,1.32-.68.72-.89,1c-1.35,1.48-2.37,2.7-3.14,3.69l-.41.55c-2.63,3.6-1.58,4-1.58,4a3.19,3.19,0,0,1-.66.47c-1.61.84-.3-3.09.95-6.26.46-1.15.91-2.2,1.21-2.88.21-.5.35-.8.35-.8q-.17.24-.3.48a46.82,46.82,0,0,0-2.76,4.9,8.3,8.3,0,0,0-.93,2.59c-.45.27-.56-.11-.45-.87a47.89,47.89,0,0,1,2.32-7.28l0,0,.58-1.47c.38-1,.64-1.6.64-1.6a20.78,20.78,0,0,0-1.25,2.08c-.29.57-.58,1.17-.86,1.79l-.13.28a77.56,77.56,0,0,0-3.15,8.88c-.43,1.49-.67,2.45-.67,2.45a1.1,1.1,0,0,1-.52-.46,3.7,3.7,0,0,1-.31-2.36,32.52,32.52,0,0,1,2.23-7.62c.41-1,.84-2,1.25-3,1.34-3,2.54-5.37,2.54-5.37l-3.25,5.45-.49.82-.12.21-1,1.75-1.89,3.17c.43-2.36.77-4.43,1-6.26.15-1,.28-2,.39-2.86,0-.21,0-.41.07-.61.24-2,.36-3.64.4-4.94a12.17,12.17,0,0,0-.38-4.28,1.51,1.51,0,0,0-.49-.74.73.73,0,0,0-.85.07.87.87,0,0,1,.44.48,2.8,2.8,0,0,1,.22.78,19.78,19.78,0,0,1-.35,5.29c-.29,1.76-.69,3.66-1.12,5.44l-.24,1-.41,1.57c-.92,3.38-1.74,5.59-1.55,4a11,11,0,0,0-.11-3.32c-.05-.28-.1-.55-.17-.81a12.17,12.17,0,0,0-1-2.7c-.19-.37-.32-.57-.32-.57,0,.29,0,.58,0,.86s0,.69,0,1v.31c0,.82,0,1.6-.06,2.33,0,.46-.07.9-.11,1.32a19.6,19.6,0,0,1-1.16,5,15.11,15.11,0,0,1-.62,1.4,11.44,11.44,0,0,1-2.44,3.27,10.22,10.22,0,0,1-6.84,2.73c1.38.53,2.5,1,3.41,1.46a12.16,12.16,0,0,1,2.22,1.37c2.89,2.38-1.5,3.44-3.35,3.77l-.11,0-.64.09c5.14,3.54-2.3,8-2.3,8l4.87-2.51c6.82-4.95-.67,6.61,4.11.37.58-.76,4.84,7.32,7.32,6.43,8-2.84,1.82,5.65,4.36,8.07l-1.9,10.51-1,5.65a25.68,25.68,0,0,1,2.48-5.44c.46-.58.85-.71,1,.08.29,1.12.21,4.08-.62,10.23-.54,4,15.3,1.55,12.75-9.23a2.13,2.13,0,0,1,1.3-2.37,1,1,0,0,1,.75-.1c.94.18,2.13,1.17,3.51.93l.89-.17c4.92-.93,11.51-2.76,15.63-2.59,2.34.1,3.89.21,3.89.21a29.18,29.18,0,0,1-4.76-1.64,10.84,10.84,0,0,1-2.65-1.63l-.18-.18-.21-.22c-2-2.28-6.58-1.72-6.58-1.72l8.17-3,1.18-.44,1.72-.64s-.82.22-2,.49c-.61.13-1.33.28-2.09.41-2.58.47-5.71.82-7.34.23l-.05,0a.33.33,0,0,1-.12,0,1.33,1.33,0,0,1-.82-1.82,3.37,3.37,0,0,1,.26-.61c1.53-2.87,4.43-4.77,7.35-6a33.6,33.6,0,0,1,8.88-2.32,26.94,26.94,0,0,0-6.93-.21A22.4,22.4,0,0,0,145.51,141a6.25,6.25,0,0,1-1.68-1.39l-.19-.26a3.11,3.11,0,0,1-.52-2.29,5,5,0,0,1,.55-1.51c2.32-4.18,10.58-8.16,10.58-8.16a40.61,40.61,0,0,1-8,1,13,13,0,0,1-3.36-.37,4,4,0,0,1-2.33-1.4,2.29,2.29,0,0,1-.4-1.88,65,65,0,0,0,16.11-14.12c-3.75,3.74-11,6.89-11,6.89a12.09,12.09,0,0,1,3.08-6.86l.34-.36a12.54,12.54,0,0,1,5-3,4.8,4.8,0,0,0-.86-.8,3.13,3.13,0,0,0-.65-.34c-1.91-.7-3.68,1.26-4.78,2.91h0a15.37,15.37,0,0,0-1.13,2c.24-10.59,10.79-8.58,10.79-8.58-10.36-4.57-18,9.8-18,9.8.06-2.31,3.53-6.48,7.43-10.44l.76-.76.48-.48.07-.07.33-.32c4.59-4.49,9.21-8.33,9.21-8.33l-7.31,4.75a67.64,67.64,0,0,1,7.35-8.07c-3.08,2.5-3.25,1.08-3.25,1.08L161.16,81S152,88.54,140.8,99.25l-3.65,3.54C136.34,103.59,135.6,104.33,134.91,105Z"/><path class="cls-21" d="M156.29,110.54A9.25,9.25,0,0,0,158,108.4S157.38,109.22,156.29,110.54Z"/><path class="cls-11" d="M38.75,178.56l-.52.32c-3.23,1.93-4.76,3.51-5.37,4.75-1.53-1.24-3.33-2.25-5-2.12-11.52.9-9.91,16-9.91,16s.94-14.1,10.31-12.25c0,0,3.68,1.65,6.19,7.92l2.25-5.59s-.45-.6-1.19-1.44C38.2,184,40,179.46,47,175.36c4.94-2.89,7.39-8.45,8.49-11.89a2.43,2.43,0,0,1-.84-.93c-.87,1.07-2,2.48-3.39,4.05-20.24,4-21.6.94-21.6.94C25.1,176.08,45.4,169,51,166.89a89.89,89.89,0,0,1-9.45,9.57c-14.35,3.56-17.48-.22-18.15-1.87a2.56,2.56,0,0,1-.19-.7c0,.29,0,.57.07.83C24.2,183.11,32.77,181.07,38.75,178.56Z"/><path class="cls-11" d="M54,161c1-.44,1.84-.86,2.61-1.24l.38-.18c.94-.46,1.69-.85,2.16-1.1l.58-.3-.61.28-2.24,1-.33.14c-1.08.45-2.09.84-3.05,1.2-16,5.87-17-.8-17.08-1.68v0a.18.18,0,0,1,0,0v0s0,.1-.05.16C32.54,169.54,45.9,164.71,54,161Z"/><path class="cls-11" d="M85.46,156.8l.06-.22Z"/><path class="cls-11" d="M85.46,156.8c-.49,1.66-4.23,11.92-21.14,9.32C64.32,166.12,81.46,171.71,85.46,156.8Z"/><path class="cls-22" d="M116.59,317.28a63.13,63.13,0,0,0,11.23-6.64s0,.07.05.22c-4.48-24.06-1.85-47.05-1.85-47.05-29.27,7.21-33.77-4.5-33.77-4.5-.53,1.63-1,3.22-1.5,4.81-6.29,20.75-8.47,38.13-8.3,52.44.17.12.56.38,1.13.72Z"/><path class="cls-9" d="M108.91,168.82c.9-3.6-9.9-1.35-9.9-1.35-25.67,9-25.67,14.86-39.17,30.17s-33.77,15.75-33.77,15.75.34.08.95.17a35.5,35.5,0,0,0,19.76-2.87C57.14,205.74,73.34,194,73.34,194c6.19-3.53,11.51-9.24,22.78-16.26l.63-.39C108.46,170.17,108.91,168.82,108.91,168.82Z"/><path class="cls-7" d="M82.45,316.56l-.1-.07c0,.27,0,.52,0,.79h1.21C83,316.94,82.62,316.68,82.45,316.56Z"/><path class="cls-7" d="M127.87,310.86c0-.15-.05-.22-.05-.22a63.13,63.13,0,0,1-11.23,6.64h13.07c-.62-2.09-1.1-3.81-1.41-5Z"/><path class="cls-21" d="M174.84,249.25h0a4.93,4.93,0,0,1-2.23-1.45,3.74,3.74,0,0,1-.77-2.71c.81-12.47-1.43-13.16-1-8.54.62,6.22-3.79,8.19-4.93,9.45a.91.91,0,0,0-.26.49c-.07.91-.27.77-.53.11a51.71,51.71,0,0,1-1.52-6.21l.78,6.48L163.71,259c-1.19,2.83.65,10.75-3.56,7.64-1.31-1,.71,10.15.38,9.29-2.73-7.1,1.62,6.07-2.09.5l-2.61-2.79s4,5,1.55,9.16l.33.09.06,0c1,.33,3.25,1.47,1.88,4.27a8.94,8.94,0,0,1-1,1.47l-.12.15a17.58,17.58,0,0,1-1.68,1.75s1.88-.28,3.63,3c.09.17.17.35.26.54s0,.59,0,.9c0,.12,0,.24,0,.36,0,.39,0,.78,0,1.18s0,.66,0,1c0,0,.06-.24.14-.66s.16-.95.24-1.64a19.77,19.77,0,0,1,.65,2c.14.49.26,1,.39,1.59.17.84-.39-2.14-.92-4.78l0-.35c0-.29,0-.61.05-.93a29.81,29.81,0,0,0-.1-3.83c-.17-1.83.35.7,1,4.58.1.58.19,1.18.29,1.8.05.37.11.73.16,1.11.3,2,.6,4.23.83,6.25a51.8,51.8,0,0,1,.42,6.08,6.83,6.83,0,0,1-.08.91,1,1,0,0,1-.2.55s.23.41.43.07a2.29,2.29,0,0,0,.22-.86,30.24,30.24,0,0,0,0-4.94c-.08-1.5-.22-3.36-.43-5.68l-.06-.71c-.1-1-.21-2.1-.33-3.28-.23-2.11-.5-4.49-.82-7.19l1.11,3.61.61,2,.07.24.29.94,1.91,6.21s-.59-2.17-1.31-5.14a7.76,7.76,0,0,1,.1-2.11,1.25,1.25,0,0,1,.19-.45c-.24-1.4-.39-2.41,0-.86l.08.32c.17.71.34,1.39.52,2,.1.36.2.71.3,1,.36,2,.78,4.1.69,3.17s-.06-1.31.18-1l-.75-3.95c.22.38.45.76.7,1.13s.64,1,1,1.57a14.1,14.1,0,0,0,1.07,4c0,.06-.21-1.29-.54-3.14,2.86,4.82,7.36,12.8,15.52,20H214c2.14-2.08,6-6.52,6-11.17V306c3.14-.78,5.69-1.58,7.51-2.2a43.24,43.24,0,0,1-7.65.94,8.35,8.35,0,0,0-2.06-4,12.55,12.55,0,0,1-.85,4.11c-4.39.08-8-.14-8-.14a10.84,10.84,0,0,1,6.77-4.91l.63-.17a23.9,23.9,0,0,1,8.34-.36,6.75,6.75,0,0,0-1-1.19,7.22,7.22,0,0,0-.85-.66c-2.6-1.63-5.86-.67-8,.33h0a17.2,17.2,0,0,0-2.32,1.31c3.79-9.87,18.77-2.62,18.77-2.62-13.87-9.56-29.87.1-29.87.1.83-2.15,7.32-4.32,14.38-6.08.45-.11.9-.23,1.36-.33l.87-.21.12,0,.6-.14c8.25-1.9-21.85,4.88-21.85,4.88L209.55,291c5.22-2-13.87,1.68-10.69,1-5.38.79-.51-1.53-.51-1.53l-10.19,3.56s-12.22,7.64-.51-1.52c1.73-1.36,16.24-6.33,14-5.81-1.45.34-2.79.67-4,1h0l-2.32.6-1.23.33-1.63.46c-2.48.71-4.38,1.34-5.84,1.89l-.78.31c-5.06,2.06-3.63,3-3.63,3a6.63,6.63,0,0,1-1.13.11c-2.65,0,.56-3.08,3.44-5.43,1.05-.86,2.05-1.62,2.71-2.11l.78-.57-.6.29a50.69,50.69,0,0,0-5.67,3.23,8.71,8.71,0,0,0-2.14,1.85,7.26,7.26,0,0,1-.61-.62,2.79,2.79,0,0,1,.15-.3c.85-1.38,3.62-3.86,5.8-5.69l0,0c.48-.41.93-.78,1.33-1.1l1.47-1.19a19.9,19.9,0,0,0-2.52,1.34c-.63.38-1.25.8-1.86,1.25l-.28.2c-.77.56-1.52,1.16-2.25,1.78-1-1.35-1.83,1.94-4.32.19.83-.79,1.75-1.59,2.7-2.36s1.89-1.5,2.81-2.18c3-2.18,5.49-3.78,5.49-3.78l-5.79,3.08a30.46,30.46,0,0,1-2.89-3.63h0l.31-.55a37.42,37.42,0,0,0,2.18-4.45,15.15,15.15,0,0,0,.68-2.1,5.6,5.6,0,0,0,1,.28,6.33,6.33,0,0,0,3.53-.37,10.35,10.35,0,0,1-4.46-2.35,1.42,1.42,0,0,0-1-.95,14.38,14.38,0,0,1-3.24-6c-.07-.25-.12-.48-.16-.7a2.36,2.36,0,0,1,.33-2.11l.06-.06,0,0c.81-.71,2.43-.36,3.77.12.39.14.76.29,1.08.44.64.28,1.07.51,1.07.51l-.91-.7-.62-.48-4.32-3.33a2.83,2.83,0,0,0,1.43-.1h0a2.94,2.94,0,0,0,1.82-2l.09-.26.09-.21a7.46,7.46,0,0,1,1.28-1.93,10.8,10.8,0,0,1,2.36-2s-.79.17-2,.33a31.67,31.67,0,0,1-4.22.28l-.86,0A12.37,12.37,0,0,1,174.84,249.25Zm-1.72,44.32a1.71,1.71,0,0,1-.17-.9l.59,1.44A2.08,2.08,0,0,1,173.12,293.57Zm26,15.36a102.55,102.55,0,0,0,17-2.06,21.88,21.88,0,0,1-1.56,2.65,28.7,28.7,0,0,1-6.21,6.41l-1.39-.46a31.1,31.1,0,0,1-4.86-2.06,7.45,7.45,0,0,1-3-2.5A1.63,1.63,0,0,1,199.09,308.93Zm-18.33-21.59c-.63.53-1.23,1.07-1.81,1.6C179.43,287.54,180,286.6,180.76,287.34Zm-4,2.78h0l.24.68-.39.39a16.21,16.21,0,0,1-.52-3.32h0C176.13,288,176.38,289,176.75,290.12Zm4.77-7.77-.58.31-1,.53-.25.13-2.11,1.12-2.67,1.43a5.64,5.64,0,0,1,0-1c.76-1.13,1.44-2.18,2.07-3.16a3.64,3.64,0,0,1,.93-.14A9.42,9.42,0,0,1,181.52,282.35Zm-.9-11.51a18.43,18.43,0,0,1-1.9,3.55c-.4.61-.85,1.24-1.31,1.87a15.65,15.65,0,0,1-1.2-2.91,9.48,9.48,0,0,1-.35-1.73A7.37,7.37,0,0,1,176,269c0-.1,0-.2.09-.3a6,6,0,0,1,.79-1.64A12,12,0,0,0,180.62,270.84Z"/><path class="cls-21" d="M166.25,295.64c-.29-1.7-.46-2.81-.46-2.81a.73.73,0,0,0,0,.09C166,294.7,166.5,297.11,166.25,295.64Z"/></g><g id="レイヤー_4" data-name="レイヤー 4"><circle class="cls-23" cx="390.8" cy="161.02" r="155.27" transform="translate(0.6 323.5) rotate(-45)"/><circle class="cls-24" cx="390.8" cy="161.02" r="155.27" transform="translate(0.6 323.5) rotate(-45)"/><path class="cls-8" d="M299.67,62.39c20.49,4.86,25.23,7.35,25.23,13.51,0,4.5-2.37,8.29-5.09,8.29-1.3,0-1.78-.47-7-7.82a63.16,63.16,0,0,0-14.1-12.67c-5.21,7.11-7.35,9.36-15.76,16.35,1.42.23,1.42.23,6.64.47h9.24c2.61-3.08,3.43-4.15,5.92-7.11,4,3.32,5.1,4.39,8.77,7.7a3.49,3.49,0,0,1,.59,1,1.16,1.16,0,0,1-1.18,1H289.83a23.23,23.23,0,0,0-6.16.59L283,80.05a54.54,54.54,0,0,1-7.7,5.68,103,103,0,0,1,9.6,5.57h22.51c2.37-2.72,3.08-3.55,5.57-6.16,4.26,2.61,5.45,3.44,9.48,6.16,1.06.83,1.42,1.42,1.42,2.14,0,.94-.83,1.65-3.79,3.19v8.53c0,6.4.11,9.48.35,16.47-.12,2.49-1.66,3-9.36,3-2.37,0-2.84-.36-3-1.9v-2H282.37a42.11,42.11,0,0,1-2.13,6.52c2.49,1.3,4.14,2.37,8.53,5h19.55c2.48-2.85,3.2-3.68,5.8-6.4,4,2.72,5.33,3.55,9.13,6.4,1.18.83,1.65,1.3,1.65,1.89,0,.83-.47,1.19-3.67,3.08,0,9.13.12,12.09.36,21.8-.24,3-1.43,3.44-9.48,3.44-2.37,0-3-.36-3-2.13v-3.32H287.94v3.55c-.24,2.61-1.42,3-8.53,3-3,0-3.67-.6-3.67-3,.23-8.41.23-11.37.23-17.65v-6.63c-4.62,7.93-8.05,12-15.75,18.24l-1-1.18c10-14.81,12.91-27.49,12.91-56.4,0-3.67,0-5.45-.24-9A98.11,98.11,0,0,1,260.33,94l-.83-1.19a91.07,91.07,0,0,0,19-21c4.5-6.75,6.87-11.49,8.77-17.65,18,4.38,18,4.38,18,5.69s-1.66,1.77-5.1,1.89Zm-15.52,44.2A62.85,62.85,0,0,1,283,118.2h25.12V106.59Zm23.93-2.49V93.79H284.5c-.12,5.57-.23,9-.23,10.31Zm-20.14,50.35h21.21V134.67H287.94ZM346.59,68.2c0,1.07-.72,1.54-4.27,2.72V86.09c0,13.15.12,20,.47,46.44V133c0,1.54-.47,2.49-1.42,3a24.15,24.15,0,0,1-7.58,1.06c-3.44,0-4.15-.59-4.15-3.08.36-10.78.48-21.08.48-57.22,0-3.44-.24-7.82-.48-12.44C344.93,66.19,346.59,66.54,346.59,68.2Zm5.8-.36a99.2,99.2,0,0,0-.59-11.25c4.26.35,7.34.71,9.48.95,7.11.59,8.76,1.18,8.76,2.72,0,1.19-1.18,1.9-4.74,2.85v57.57l.48,30.22c-.12,5.56-1.3,7.82-5.33,9.59a44.19,44.19,0,0,1-12,2.61c-1,0-1.07-.12-1.07-2-.11-6.28-3.55-8.65-16.58-11.73v-1.54c9.24.59,12.2.71,19.66.94,1.66-.11,2-.47,2-1.65Z"/><path class="cls-25" d="M381.29,141.72c0-2.77.08-7,.15-10.52a70.33,70.33,0,0,1-7.82,10c-.43.43-.64.64-.86.64s-.42-.21-.64-.71a8.87,8.87,0,0,0-2-2.84,69,69,0,0,0,16.07-25.88,19.86,19.86,0,0,0,1.07-4.76,28,28,0,0,1,4.33,1.49c.57.28.78.5.78.85s-.14.57-.56.93a6,6,0,0,0-1.43,2.7,107.52,107.52,0,0,1-4.83,10.59v36c0,7.46.14,10.73.14,11.09s-.07.57-.5.57h-3.48c-.5,0-.57-.07-.57-.57s.14-3.63.14-11.09Zm52.82-17c0,.5-.07.57-.57.57s-2.48-.15-9-.15H412.07v10.6h11.09c5,0,6.62-.07,7-.07s.57.07.57.49v3c0,.5-.07.57-.57.57s-1.92-.14-7-.14H412.07v10.8h11.09c5.19,0,6.76-.14,7.18-.14s.57.07.57.57v3c0,.5-.07.57-.57.57s-2-.14-7.18-.14H412.07v6.18c0,7.4.15,10.74.15,11.09s-.07.5-.57.5h-3.41c-.5,0-.57-.07-.57-.5s.14-3.69.14-11.09V125.15H402a75.28,75.28,0,0,1-8.81,13.58c-.43.57-.64.86-.93.86s-.42-.29-.78-.86a7.28,7.28,0,0,0-2.13-2.06,76.08,76.08,0,0,0,13.5-23.74,20.69,20.69,0,0,0,.93-5,32.39,32.39,0,0,1,4.33,1.28c.57.21.93.43.93.78a1.26,1.26,0,0,1-.57,1.07A7.35,7.35,0,0,0,407,114c-.79,2.21-1.85,4.7-3.06,7.33h20.61c6.55,0,8.68-.15,9-.15s.57.08.57.57Z"/><path class="cls-26" d="M451.47,93.52c0-2.74.1-5.57.1-8.41-2.94.69-5.09,1.18-8.31,2a7.72,7.72,0,0,1-1.27.29,3.36,3.36,0,0,1-1.27-.39,24.7,24.7,0,0,1-2.64-1.46c-.59.87-1.27,1.75-1.86,2.54a28.67,28.67,0,0,1-6,6,1.35,1.35,0,0,1-.79.29.65.65,0,0,1-.58-.68,1.61,1.61,0,0,1,.39-1,58.84,58.84,0,0,0,6.35-11.24,32.59,32.59,0,0,0,2.54-8.31,8.71,8.71,0,0,0,.1-1.66,23.89,23.89,0,0,0-.39-2.54c0-.49.29-.79.59-.79A6.72,6.72,0,0,1,442,69.77c1.56,1.27,2.93,2.54,2.93,3.91s-.88,1.66-1.57,2.83c-1.36,2.45-2.73,4.89-4.2,7.24,1.47-.4,3-.69,4.5-1.08,2.64-.59,5.28-1.17,7.92-1.86V72c0-6.65-.4-9.78-1.18-11.83a2.71,2.71,0,0,1-.29-1c0-.39.2-.49.59-.49a17.85,17.85,0,0,1,6.74,2.64c1.17.78,1.47,1.47,1.47,2.15a5.87,5.87,0,0,1-.78,2.54c-.59,1.47-.88,4.69-.88,8.6v4.89l1.56-.39a5.24,5.24,0,0,0,1.66-.78,2.31,2.31,0,0,1,1.66-.59,3.87,3.87,0,0,1,2.25.69c1.08.68,2.15,1.46,2.15,2.44,0,.78-.78,1.37-2.25,1.56-2.15.4-4.49.88-7.13,1.37,0,4.3-.1,8.61-.2,12.91,1.76-1.18,3.62-2.45,5.38-3.82a1.59,1.59,0,0,1,1-.39.56.56,0,0,1,.58.59,1.16,1.16,0,0,1-.39.78,68.35,68.35,0,0,1-6.55,6.65c-.19,11.73-.39,24-.39,36.66,0,3.81-1.27,4.79-2.64,4.79a3.16,3.16,0,0,1-2.64-2.06,13.94,13.94,0,0,1-1.07-5.37,24.11,24.11,0,0,1,.19-2.54,46,46,0,0,0,.69-9.19c.09-5.67.19-11.64.29-17.7-3,2.45-6.16,4.7-9.29,6.85a18.61,18.61,0,0,0-4.2,3.51,3.36,3.36,0,0,1-2.15,1.18,1.94,1.94,0,0,1-1.37-.59c-2.05-1.66-4.2-4.2-4.2-5a.7.7,0,0,1,.78-.69h.29a12.54,12.54,0,0,0,5.87-1.76c4.49-2.54,9.38-5.18,14.37-8.31Zm33-2.15c0,1.08-1.17,2.54-2.45,4.11a54.91,54.91,0,0,1-18.86,15.73,1.44,1.44,0,0,1-.88.2.69.69,0,0,1-.78-.68,1.16,1.16,0,0,1,.58-.88,66.92,66.92,0,0,0,10.36-10c3.62-4.39,6.75-9.28,7-11.92a8.91,8.91,0,0,1-1.85.19,4,4,0,0,1-2.25-.68A8.83,8.83,0,0,1,474,86.09a42.66,42.66,0,0,1-6.74,6,1.57,1.57,0,0,1-1,.4.76.76,0,0,1-.68-.79,1,1,0,0,1,.29-.68,66.07,66.07,0,0,0,13.88-23.66,10.07,10.07,0,0,0,.68-3.52,11.29,11.29,0,0,0-.49-2.64c0-.48.3-.88,1.18-.88.68,0,2.93.79,5.86,3,1.08.88,1.57,1.67,1.57,2.35a2.84,2.84,0,0,1-.39,1.17c-.49.88-1.57,2.25-2.25,3.33a96.17,96.17,0,0,1-10.27,14.17c8.12-1.27,17.11-2.64,21.9-3.32,2.05-.29,4.69-.78,7.14-1.37,1.17-.29,1.76-.88,3.22-.88s3.23.88,6.06,3.71,3,3.91,3,5A3.23,3.23,0,0,1,516,90c-.49.69-1,2-1.86,5.77-2.54,11.63-5.57,21.7-9.88,29.72-3.61,6.74-6.25,10.55-10.65,14a3.6,3.6,0,0,1-2.15.88c-.69,0-1.27-.19-2.54-1.76a47,47,0,0,1-5.09-8.21,2.72,2.72,0,0,1-.48-1.17.36.36,0,0,1,.39-.39,2.23,2.23,0,0,1,1,.29,25.87,25.87,0,0,0,7.43,2.45c1.08,0,1.66-.59,2.54-1.57,6.75-7.23,14.37-32.26,14.47-44.38,0-1.17-.49-1.85-1.66-1.85-1.47,0-7.23.58-11,1.07,2.84,2.25,3.72,3.81,3.72,5.08a4.83,4.83,0,0,1-.2,1.27,34.54,34.54,0,0,1-2.64,5.58,86.31,86.31,0,0,1-10.65,15.64c-4.5,5.37-12.32,12.22-19,15.74a1.82,1.82,0,0,1-.88.19c-.58,0-.88-.29-.88-.68a1.35,1.35,0,0,1,.49-.88c6.55-5.38,14.18-13.1,19.36-21.12,5.37-8.11,8.4-14.66,8.4-18.47a5.78,5.78,0,0,0-.29-2c-4.2.59-8.31,1.37-12.41,2.25C483.14,88.63,484.51,90.3,484.51,91.37Z"/><path class="cls-27" d="M350.7,228.68c.85-.35.92-.35,1.2.15A67.87,67.87,0,0,1,357.17,241c.14.57.14.78-.79,1.07l-1.63.5c-.85.28-1,.28-1.14-.29-.43-1.35-.85-2.63-1.35-3.91l-6.4.64v19c0,7.75.15,10,.15,10.38s-.08.5-.57.5h-3.2c-.5,0-.57,0-.57-.5s.14-2.63.14-10.38V239.42c-2.63.21-5.19.35-7.53.5a5.15,5.15,0,0,0-2.63.64,1.79,1.79,0,0,1-.86.28c-.35,0-.57-.36-.71-.92l-.71-3.91a34,34,0,0,0,4.62.14h.93c1.92-2.42,3.62-4.91,5.33-7.4a106.37,106.37,0,0,0-10.31-10.87c-.5-.43-.43-.64.07-1.35l1.07-1.57c.49-.71.64-.71,1.06-.28l2.85,2.77a81.47,81.47,0,0,0,5.19-8.88,14.75,14.75,0,0,0,1.42-4c1.28.49,2.7,1.13,3.84,1.7.57.29.71.57.71.93s-.22.56-.57.78a3.79,3.79,0,0,0-1.21,1.49c-2.49,4.27-4.41,7.18-6.75,10.52l4.83,5.4c1.85-2.91,3.63-5.83,5.4-8.88a21,21,0,0,0,2.14-4.84,26,26,0,0,1,3.76,1.92c.5.29.71.57.71.86s-.21.64-.64.92c-.71.5-1.28,1.35-2.48,3.27-4,6.18-8,12.09-11.88,17.27,3.7-.21,7.54-.49,11.59-.85-.71-1.7-1.49-3.34-2.34-5-.22-.43-.15-.57.71-.93Zm-13.23,18.2a9.38,9.38,0,0,0-.71,2.56,73.28,73.28,0,0,1-3.05,13.22c-.22.71-.36.93-.64.93a2,2,0,0,1-.93-.43,7.91,7.91,0,0,0-2.56-1.07A50.92,50.92,0,0,0,333,248.73a17.33,17.33,0,0,0,.14-4.19,28.16,28.16,0,0,1,3.62.78c.71.21,1.07.42,1.07.71A2.08,2.08,0,0,1,337.47,246.88Zm14.58-2.34c.71-.22.78-.15,1,.35a87.2,87.2,0,0,1,3.56,13.44c.14.64.07.71-.79,1l-1.7.5c-.85.28-1,.28-1.07-.28a112.08,112.08,0,0,0-3.27-13.65c-.21-.57-.07-.64.78-.93Zm29.07-36.19c6.54,0,8.67-.14,9.1-.14s.57.14.57.71l-.21,4.27c-.29,8.95-.93,15-2.14,17.48a6.41,6.41,0,0,1-6.25,3.84c-2.06,0-3.77-.07-5.26-.21s-1.35-.28-1.57-1.64a11.82,11.82,0,0,0-1-2.77,47.58,47.58,0,0,0,6.89.57,3.52,3.52,0,0,0,3.34-1.85c1-1.85,1.64-9,1.85-16.42H373.73c-.64,11.09-4.62,17.84-13.65,23-.5.29-.78.5-1.07.5s-.49-.28-1-.92a6.82,6.82,0,0,0-2.35-2.06c8.82-4.27,13.23-9.74,13.86-20.55H366.9c-6.39,0-8.53.14-8.95.14s-.57-.07-.57-.56v-2.92c0-.57.07-.64.57-.64s2.56.14,8.95.14Zm7.82,46.49c0,10.6.14,12.3.14,12.66s-.07.57-.64.57h-3.12c-.5,0-.57-.08-.57-.57v-3.42H364.63v3.84c0,.5-.07.57-.57.57h-3.13c-.5,0-.57-.07-.57-.57s.15-2.13.15-12.86v-6.12c0-6.18-.15-8.1-.15-8.46s.07-.56.57-.56,2.42.14,8.39.14h10.81c5.9,0,8-.14,8.31-.14.57,0,.64.07.64.56s-.14,2.28-.14,7.47Zm-4.19-10.94H364.63v16.35h20.12Z"/><path class="cls-28" d="M397.12,220.92a139.66,139.66,0,0,0,28.2-27.14c8.89-11.49,14.69-21.44,17.3-30.33,4.15.83,7.46,1.54,9.48,2,8.41,1.66,10.66,2.49,10.66,3.79,0,1.07-.95,1.54-4.86,2.37a51.9,51.9,0,0,0,11.61,13.15,90.26,90.26,0,0,0,26.07,15.76,86.27,86.27,0,0,0,16.35,4.86l-.12,1.3a13.74,13.74,0,0,0-6.64,5.21,30.57,30.57,0,0,0-3.91,6.75c-.47,1.19-.71,1.54-1.42,1.54-1.18,0-5.57-2.36-9.71-5.33-14.81-10.07-25.71-23.69-34-42.17-14.57,23.45-33.05,39.21-58.29,49.4ZM402.57,272c10.07-6.52,15.52-11.85,19.55-19.31,4.39-8.3,6-18.13,6-36.26a68.28,68.28,0,0,0-.59-9.95c14.93,1.3,16,1.42,17.42,1.9.95.35,1.42.83,1.42,1.42,0,1.07-.59,1.42-4.5,2.84-.36,12.56-.71,17.77-1.66,23.46-2.37,12.91-7.94,21.68-18.48,28.79-5.22,3.44-9.72,5.45-18.6,8.29Zm74.53-41.7c0,11.49.11,18.71.47,36.49v.59a3.19,3.19,0,0,1-.95,2.72c-1.18,1.07-4.5,1.66-9,1.66-3.56,0-4.5-.59-4.62-2.84.59-15.17.71-23.1.71-34.12,0-18.48-.12-23-.83-28.08,3.91.47,6.87.71,8.77.83,8.05.71,10.07,1.18,10.07,2.6,0,1-.6,1.43-4.62,3Z"/></g><g id="レイヤー_2-2" data-name="レイヤー 2"><circle class="cls-29" cx="123.77" cy="168.07" r="12.88"/><circle class="cls-30" cx="139.97" cy="296.92" r="20.3"/><circle class="cls-31" cx="270.33" cy="259.31" r="57.4"/><circle class="cls-32" cx="122.22" cy="129.58" r="28.12"/><circle class="cls-33" cx="114.08" cy="257.85" r="32.33"/><circle class="cls-34" cx="198.76" cy="147.02" r="53.79"/><circle class="cls-35" cx="115.71" cy="208.51" r="16.94"/><circle class="cls-36" cx="195.42" cy="279.97" r="36.75"/><circle class="cls-37" cx="152.71" cy="218.34" r="35.68"/></g></g></svg>