<svg xmlns="http://www.w3.org/2000/svg" viewBox="0 0 143.08 116.34"><defs><style>.cls-1{fill:#fff;}</style></defs><g id="レイヤー_2" data-name="レイヤー 2"><g id="レイヤー_1-2" data-name="レイヤー 1"><g id="レイヤー_2-2" data-name="レイヤー 2"><g id="レイヤー_1-2-2" data-name="レイヤー 1-2"><g id="レイヤー_2-2-2" data-name="レイヤー 2-2"><g id="レイヤー_1-2-2-2" data-name="レイヤー 1-2-2"><g id="Logo_FIXED" data-name="Logo FIXED"><path class="cls-1" d="M44.94,116.34c54,0,83.54-44.78,83.54-83.54,0-1.26,0-2.51-.06-3.78a60.64,60.64,0,0,0,14.66-15.23,59.69,59.69,0,0,1-16.89,4.64A29.48,29.48,0,0,0,139.13,2.17a57.71,57.71,0,0,1-18.66,7.1A29.37,29.37,0,0,0,69.69,29.36a32.13,32.13,0,0,0,.74,6.7A83.47,83.47,0,0,1,9.91,5.37,29.44,29.44,0,0,0,19,44.6,30,30,0,0,1,5.74,40.93v.4a29.42,29.42,0,0,0,23.53,28.8A29.47,29.47,0,0,1,16,70.67,29.39,29.39,0,0,0,43.46,91.05,59,59,0,0,1,7,103.63a56.28,56.28,0,0,1-7-.41,83.34,83.34,0,0,0,44.94,13.12"/></g></g></g></g></g></g></g></svg>