<svg xmlns="http://www.w3.org/2000/svg" xmlns:xlink="http://www.w3.org/1999/xlink" viewBox="0 0 524.57 387.64"><defs><style>.cls-1{fill:url(#名称未設定グラデーション_29);}.cls-2{fill:#87b6e2;}.cls-3{fill:url(#名称未設定グラデーション_261);}.cls-4{fill:#1b2850;}.cls-5{fill:#fff;}.cls-6{fill:url(#名称未設定グラデーション_208);}.cls-7{fill:#3762ad;}.cls-8{fill:#7ea1d4;}.cls-9{fill:#040000;}.cls-10{fill:url(#名称未設定グラデーション_220);}.cls-11{fill:url(#名称未設定グラデーション_209);}.cls-12{fill:url(#名称未設定グラデーション_71);}.cls-13{fill:#3a3a3a;}.cls-14{fill:#8ec8ee;}.cls-15{fill:#1c5fac;}.cls-16{fill:#1e5f6a;}.cls-17{fill:#1a2f5b;}.cls-18{fill:#387dc1;}.cls-19{fill:url(#名称未設定グラデーション_175);}.cls-20{fill:url(#名称未設定グラデーション_236);}.cls-21{fill:#00a040;}.cls-22{fill:#1d2088;}.cls-23{fill:#e60012;}.cls-24{fill:#f18c1a;}.cls-25{fill:#1a499d;}.cls-26{fill:url(#名称未設定グラデーション_261-2);}</style><radialGradient id="名称未設定グラデーション_29" cx="170.94" cy="327.68" fy="320.05503949990197" r="114.37" gradientTransform="translate(-36.38 188.1) scale(1.41 0.43)" gradientUnits="userSpaceOnUse"><stop offset="0" stop-color="#fff"/><stop offset="0.27" stop-color="#b0c0c9" stop-opacity="0.97"/><stop offset="0.54" stop-color="#95989d"/><stop offset="1" stop-color="#fff" stop-opacity="0.2"/></radialGradient><radialGradient id="名称未設定グラデーション_261" cx="107.75" cy="211.46" fy="197.31492907620225" r="33.16" gradientTransform="matrix(0.53, 0.19, -0.38, 1.09, 250.29, -23.85)" gradientUnits="userSpaceOnUse"><stop offset="0.01" stop-color="#036eb8"/><stop offset="0.86" stop-color="#86c7e4"/></radialGradient><radialGradient id="名称未設定グラデーション_208" cx="92.62" cy="38.48" r="91.94" gradientTransform="translate(0 11.63) scale(1 0.7)" gradientUnits="userSpaceOnUse"><stop offset="0.09" stop-color="#036eb8"/><stop offset="0.57" stop-color="#68a5d1"/><stop offset="0.82" stop-color="#abdcf1"/></radialGradient><linearGradient id="名称未設定グラデーション_220" x1="77.68" y1="95.97" x2="76.29" y2="126.37" gradientUnits="userSpaceOnUse"><stop offset="0.31" stop-color="#2775b2"/><stop offset="0.86" stop-color="#93d3df" stop-opacity="0.49"/><stop offset="0.93" stop-color="#fff" stop-opacity="0"/></linearGradient><radialGradient id="名称未設定グラデーション_209" cx="196.67" cy="139.77" r="168.6" gradientUnits="userSpaceOnUse"><stop offset="0.08" stop-color="#1d2088"/><stop offset="0.22" stop-color="#1f55a5"/><stop offset="0.52" stop-color="#56a0d3"/><stop offset="0.79" stop-color="#fff"/></radialGradient><radialGradient id="名称未設定グラデーション_71" cx="46.67" cy="66.65" fx="-5.178352590897191" r="51.87" gradientTransform="translate(-0.26 79.14) rotate(-30.92) scale(1 0.2)" gradientUnits="userSpaceOnUse"><stop offset="0.51" stop-color="#616161"/><stop offset="1"/></radialGradient><radialGradient id="名称未設定グラデーション_175" cx="188.42" cy="179.29" r="2.66" gradientUnits="userSpaceOnUse"><stop offset="0.41" stop-color="#fff"/><stop offset="0.93" stop-color="#88caa9"/></radialGradient><radialGradient id="名称未設定グラデーション_236" cx="212.53" cy="67.31" fx="189.9425861433246" fy="174.3762648232556" r="109.42" gradientUnits="userSpaceOnUse"><stop offset="0.2" stop-color="#036eb8"/><stop offset="0.38" stop-color="#68a5d1"/><stop offset="1" stop-color="#fff"/></radialGradient><radialGradient id="名称未設定グラデーション_261-2" cx="231.85" cy="229.96" fy="215.82025107431278" r="33.16" gradientTransform="matrix(0.56, 0.04, -0.07, 1.15, 147.55, -26.05)" xlink:href="#名称未設定グラデーション_261"/></defs><g id="レイヤー_2" data-name="レイヤー 2"><g id="レイヤー_2-2" data-name="レイヤー 2"><ellipse class="cls-1" cx="204.39" cy="327.68" rx="164.11" ry="59.96"/><path class="cls-2" d="M217.76,228.11s-14.17,36.54-38.15,53.39c-5.68,4-28.73,5.62-28.64,3.3s-9.77,8.47-9.77,8.47,12.58-2.53,14.4-.61,12.87.21,12.87.21-22.7,11.83-25.58,11.48-8.39,13.53-3.67,13,28.8-19,36.64-14.9,6.59,9.28,8.47,11.68,5.06,9.06,5.06,9.06,4.76-3,5-8.08-9.29-10.51-4.1-22.6,32.12-40.61,32.12-40.61Z"/><path class="cls-3" d="M251.31,201c-7.9,22.78-37.46,69.54-45.31,66.76s-6.25.63,1.65-22.15,16.91-63.36,24.77-60.58S259.22,178.17,251.31,201Z"/><path class="cls-4" d="M228.24,225.1c.24,3-3.52,18.86-18.05,36.27-3.58,4.29,20.91-23,27.73-35.61s12.84-27.65,8.2-24.68C237.81,206.42,227.11,210.85,228.24,225.1Z"/><path class="cls-5" d="M236.05,197.18S219.74,223.35,214.8,238s3.43,9,5.33,1.51S234.32,199.23,236.05,197.18Z"/><path class="cls-4" d="M237,195.44s3,7.63,8.13,2.06,4.56-.21,4.42,1.37-4,14.06-4,14.06,4.27-10,5-12.51,3.87-19.84.26-17.23-25.34-6.91-27.42,1.12c-.23.89-1.15,10.71-4.4,15.6-2.73,4.1-3.61,25.6-5.61,33.71,0,0,9.67-33.17,11.31-35.64C230.88,188.69,236.91,194.51,237,195.44Z"/><path class="cls-4" d="M182.19,290.76c-4.25,1.81-9.35,8.48-6,9.43s13.62.74,14.35,10.11,2.6.73,2.6.73-8.61-14.64-6.86-17.7,22.63-27.67,22.63-27.67S187.11,288.67,182.19,290.76Z"/><path class="cls-5" d="M139.22,316s4.14-6.24,7.27-6.9-2-5.76-4.73-3.59S138.55,310.43,139.22,316Z"/><path class="cls-5" d="M205.74,260.67s-17.15,18.66-26.73,24c-13.14,7.29,2.06,3.94,7.91-.88C199.76,273.19,203.44,261.93,205.74,260.67Z"/><path class="cls-5" d="M150.51,284.72s6.53,4.09,3.13,3.35c-2.81-.6-10.89,4.21-10.89,4.21S146.87,286.23,150.51,284.72Z"/><path class="cls-4" d="M165.81,288.87s2.06,1.53-7.9,2.33c-5.58.45,5.69.67,5.69.67s7.31-.5,6-2S169.36,286.41,165.81,288.87Z"/><path class="cls-4" d="M154.48,305.48s-3,4,2.21,1.65,23.22-8.45,23.22-8.45,3.5-6,1.67-5.94S156.69,303.29,154.48,305.48Z"/><path class="cls-5" d="M190.1,321.15s-.07-7.43-2.15-9.57,4.41-3.95,5.43-.72S193.38,316.72,190.1,321.15Z"/><path class="cls-6" d="M97.42,216.45c8.66,15.88,29.46,28.34,47,35.92s49.07,9.37,51.41,8.78,22.75-6.41,29.17-4.08c0,0,47.83-17,66.74-42.67s102.53-26.5,116.92-21.67c14.84,5,74.7,30.3,80.77,40.35,3.83,6.34,35.1-5.18,35.1-11.48S386.28,148.44,324.2,131.47,179.14,62.77,175.75,59.86c0,0-4.45-36.8-45.67-55.23S53.93,28.43,50.59,32.55c-4,4.91-7.35,16.37-6.79,31.45,0,0-46,28.1-43.7,34.34s46.82-19.51,57-17.17,10.55,16,8.21,28.54,5,63.69,13.88,80.68Z"/><path class="cls-7" d="M142.48,64.78C129.26,75.17,125.55,44,104.52,44S60,64.42,60,47,81.29,8.38,102.31,8.38,156.17,54,142.48,64.78Z"/><path class="cls-7" d="M99.18,68.09s-3.25,2.26,2.22,4.41c5.79,2.27,8.47,5.88,11.69,4.43s7.85-10,.52-10.89S104.4,67.76,99.18,68.09Z"/><path class="cls-5" d="M63.88,63.82A26.26,26.26,0,0,1,69.2,53.5c3.9-4.27,9-6.9,8.72-6.49a19.84,19.84,0,0,0-1.72,4.05s8.35-6.46,9.33-8.65L83,47s9-8,14-8.83,10.08,1.64,12.8-.76l.32,2.87s1,8.15-1.06,10.77c-10.1,12.75-9.88,4.63-9.88,4.63Z"/><path class="cls-8" d="M66,65.1s-1.8-1.43,5.92-5.6,5.36-7.73,15.46-12.08,17-5,17.13.46.34,8.35-5.25,10.92S64.74,69.93,66,65.1Z"/><path class="cls-9" d="M324.2,131.47s37.93,10.38,113.87,47c6.58,3.17,83.71,34.81,86.42,43.11,1.25,3.82-11.29,8.68-11.29,8.68Z"/><path class="cls-10" d="M57.07,81.17s15.58-2.5,24.49,13.17,18.47,22.91,16,25.21c-4.12,3.77-28.63,5.53-28.63,5.53s-3.2-12.31-2.16-17.66C68.09,100.35,67.83,84.25,57.07,81.17Z"/><path class="cls-11" d="M108.58,222.05c8.21.95,18.42-4,18.42-4s-7.68-9.05-9.26-11c0,0,13,4.65,16.75,5.68l-18.37-18.19s19.2,10.49,21.09,10.18c0,0-5.63-5.22-6.26-8.7,0,0-27.83-13.52-21.84-16s-4.14-21.12-1.24-23.82c14.26-13.25,25.24-1.9,23.66-5.06s21-18.78,20-24.58,53,18.31,50.46,18.31,21.88-56.7,52.65-40.91,64.1,26.81,69.56,27.5,175.11,76.29,198.25,93.72c0,0-21.73,16.07-30,10.47,0,0-89.88-63.11-200.78-21.26,0,0-18,19.42-27.2,23.43-52.14,22.68-68.71,23.32-96.89,18.84-8.64-1.38-43.42-13.81-53.71-24.1S108.58,222.05,108.58,222.05Z"/><path class="cls-4" d="M520.24,226.74S434.17,183.08,422,177.2s-91.34-43.74-91.34-43.74-16.24,18.85-19.42,29.16c-1.32,1.84-3.78,6-7.68,13.14-29,53.09-49.14,16.84-76.08,25.42-25.45,8.11-29,59.25-77.64,44-7.57-2.38-63.35-30.06-36-12.58,61.59,39.3,118,18.35,132.73,9.5,15.71-9.47,37.81-25.45,45.64-36.69,11.89-2.5,45.25-9,64-7.75,23.1,1.57,54.39-5.44,132.84,36.65,1.83,1,6.44,3.9,11.05,2.21,0,0-64.83-37.61-120.18-53.22,25,6.76,86.21,25.21,123.15,52.42l8.23-3.59S423,181.84,370.74,170.65c0,0,77.15,15.72,142.75,60.29Zm-209.42-60Zm58,13.7.13,0Z"/><path class="cls-5" d="M127.93,219.34l-3.2-7.72,19.31,5s-18.6-8.58-19.31-15.3l6,5.29,0-2.88L144,211.05l-5.87-8.15,21.16,16.29-15.46-24.73s18.62,21.93,18.62,21-14.58-28.68-14.58-31l20.54,24.64s-3.71-8.86-2.79-13.22-1.75-11.09-5.42-13.31c0,0,4.11,2.23,6.63,8.65s25.08,9,25.08,9-28.66-17.67-26.69-31c0,0,.94-11.05,7.23-2.48,7.3,9.93,38.51-7.29,39.2-12.11s-20.9-15.31-36.17-23.12-26.7-21.44-32.91-21.92-22,7.89-22.94,6,6.46-8.11,6.46-8.11-22,9.32-23.82,10.24-15.16,7.26-20.47,7.93c-5.14.66-9.09-.51-7.16-3.81,0,0-.26,5.24-2.88-.69,0,0-8.73-4.89,3.71,46.64,7,29.22,37.25,59.78,39.12,60.28S106.4,223.84,127.93,219.34Z"/><path class="cls-12" d="M43.8,64S-2.43,91.44.1,98.34s61.74-25.82,74-29.6S91.69,64.85,93.9,64s12.68-7.32,6.47-13.61C93.09,43,82.61,48.64,77.94,58.2,75.27,63.68,46.72,67.06,43.8,64Z"/><path class="cls-5" d="M6.74,96.52S6.47,94.2,13.67,89c10.6-7.73,21.2-17.1,21.2-17.1s-23,14.44-23.69,14.65S-2.21,98.43,6.74,96.52Z"/><path class="cls-13" d="M81,54.22s-4.3,9.89,3.4,10A71.65,71.65,0,0,0,93.9,63.1s-7.78,2.2-10.35,1.56S77.51,61.91,81,54.22Z"/><path class="cls-14" d="M196.63,244.84c-5,4-11.7,8,0,7.68s61.36-23.6,68.66-31.09S247.58,214,237.09,216,202.42,240.19,196.63,244.84Z"/><ellipse class="cls-15" cx="88.2" cy="56.93" rx="4.47" ry="4.15" transform="translate(-11.15 23.03) rotate(-14)"/><circle class="cls-5" cx="84.62" cy="57.38" r="1.48"/><path class="cls-16" d="M18.27,89.92S9.94,95.63,21,91.77,59.37,71.7,63,70.16s-3.7-4.07-11.15.67S18.27,89.92,18.27,89.92Z"/><path class="cls-5" d="M139.12,226.76c-.21-5.52,26.5,0,36.74.66,23.7,1.52,48.47-5,48.68.51s-24.68,12.35-34.94,12.74S139.33,232.28,139.12,226.76Z"/><path class="cls-5" d="M281.39,202.29s-7.34,4.72,0,2.74c8.13-2.21,13.35-10,15.16-16.38,3.08-10.78.31-7.21.31-7.21S294.11,192.49,281.39,202.29Z"/><path class="cls-14" d="M217.51,191.18s19.94-18.69,23.43-23S250.43,178.94,217.51,191.18Z"/><path class="cls-14" d="M380.79,167.92c-27.08-5-33.56,28.88-51.15,25.27-23.65-4.84-22.89,6.07-23.39-6.52-.21-5.35,10.94-27.54,30.58-27.54C361,159.13,394.08,170.4,380.79,167.92Z"/><path class="cls-5" d="M50.1,44.16s-8.66,20.93,5.63-.45C66.09,28.21,67,30.84,74.16,22.12s30-26.76,57.2-11.9c3.42,1.87.78-7.47-23-6.54S61.62,18,50.1,44.16Z"/><path class="cls-17" d="M120.74,8.38s69.45,58.22,25.88,67.3C135.86,77.92,125,108,133.41,104.86S167,93.3,169.67,83.77s6.4-22.27-4.65-39.41C154.39,27.87,149.88,25.43,120.74,8.38Z"/><path class="cls-5" d="M113.67,74.45c-2.32,3.9-2.81,5.2-9.83,5.2s-8.83-4.57-7.19-8.8c1.28-3.29,2.63-1,9.64-1S115.81,70.84,113.67,74.45Z"/><path class="cls-5" d="M111.34,10.32c1,1.33-3.69,2.93-5.52,4.38s-4.15,1.55-5.21.22-.44-3.59,1.38-5S110.28,9,111.34,10.32Z"/><path class="cls-17" d="M78.41,25.43S76,39.08,91.84,36.06s20.56,3.72,28.57-1.9S83.81,5,78.41,25.43Z"/><path class="cls-17" d="M62,78.53s40.92-1,39.33,30c-.16,3.19,3.45,6.45,3.93,3.68S112.58,77.8,62,78.53Z"/><path class="cls-18" d="M78.91,100.89c-13.9,0-9.94,7.3-10.51,6.53-1.34-1.79-1.49-2.39-1.17-7.67.68-11.35-6.72-19.58-4.48-19.08C80.76,84.71,84.43,100.89,78.91,100.89Z"/><path class="cls-4" d="M262.18,202.15s7.56,1.56,17.31-3.39,41.24-59.13,41.24-59.13-27.39,35.48-35.79,39.91S270.81,201.83,262.18,202.15Z"/><path class="cls-9" d="M57.07,81.17s23.79,0,30.46,33.34c.52,2.61,10,5,10,5s4.36-4.4.88-20.73C96.75,91.12,80.94,77.66,57.07,81.17Z"/><ellipse class="cls-5" cx="206.03" cy="184.5" rx="5.66" ry="4.48"/><circle class="cls-19" cx="188.42" cy="179.29" r="2.66"/><path class="cls-4" d="M68.89,125.08a266.88,266.88,0,0,0,15,55c3.46,8.86,14.26,11.93,14.4,20.25.11,6.26,4,13.44,4,13.44,3.15,7.24-4.75,15.7-24.81-37.09C71.87,161.82,66.2,131.8,68.89,125.08Z"/><path class="cls-4" d="M72.52,123.12s19.34,45.84,29.91,56.4a26.85,26.85,0,0,1,7.85,23.2s-3-12.25-9.32-17.1c0,0,5.15,14.23,4.13,16.21,0,0-8.23-23.91-13.71-26.42S71.49,125.47,72.52,123.12Z"/><ellipse class="cls-5" cx="232.19" cy="201.67" rx="13.24" ry="12.05"/><path class="cls-9" d="M148,125.08s21.71,16.12,28.48,30.27,16,10.91,16,10.91-8.43-3.86-10.64-10.91c0,0,5.91,5.52,13.42,6.14,0,0-24.66-19.12-28.48-24.66S148,125.08,148,125.08Z"/><path class="cls-17" d="M111.49,105.09c-4.88,6.36,11.63,3.49,15.45-8.36s7.3-21.57,13.73-23.58,12.17-9.33,12.17-9.33-22.42,8.89-25.38,22.1S115.85,99.41,111.49,105.09Z"/><path class="cls-9" d="M159.28,98.11S132.45,96.69,171,135.56c17.9,18,28.73,24.26,39.3,27s78.68,14.66,136.89-9.85c8-3.38,71.83,6.47,74.79,5.21S239.75,69,191.66,69.9C181.12,70.1,178.3,86.5,159.28,98.11Z"/><path class="cls-20" d="M157.55,105.09s4.64,23.82,18,26.38,24.29,13.6,26.07,19,49.8,13.67,55,14.05,33.77,7.77,75.54-10c4.78-2,15.7-7.73,15.7-7.73L422,158S310.11,108.65,245.43,88.09,190.22,94,157.55,105.09Z"/><path class="cls-21" d="M221,147,230.38,158s6.75,2.89,10.06,3.05a72.33,72.33,0,0,1,9.15,1.83l-13.16-19S223.83,142.71,221,147Z"/><path class="cls-21" d="M266.79,134.79l32.57,28.72s12-1.85,15.86-3.34c6.24-2.39,10.94-4.13,10.94-4.13l-46.53-25S271.86,130.81,266.79,134.79Z"/><path class="cls-22" d="M238.39,143.73l12.4,19.19s8.15,2.47,11.46,2.4a76.41,76.41,0,0,1,10.05.58l-20.24-24.8S241.18,139.46,238.39,143.73Z"/><path class="cls-23" d="M253.76,140.79l20.66,25.11s6.35.08,9.66,0a107.57,107.57,0,0,0,13.34-1.74L265.2,135S256.55,136.52,253.76,140.79Z"/><path class="cls-23" d="M201.59,150.48l6.65,2.68s6.76,2.89,10.07,3.05a72.46,72.46,0,0,1,9.14,1.83l-7.61-11S204.37,146.21,201.59,150.48Z"/><path class="cls-22" d="M280.94,130.63l46.14,24.43s8.33-1.47,11.72-3.92,9.82-6.9,9.82-6.9l-56.81-19.45A35.17,35.17,0,0,0,280.94,130.63Z"/><path class="cls-4" d="M229.59,99.07S222.42,88.43,201,80c0,0,38.36,13.79,46.14,26.19s-16.42,14.94-18.73,14.34C209.08,115.5,229.38,111.08,229.59,99.07Z"/><path class="cls-24" d="M278.16,105.74s73.71,36.12,83.54,38.9,42,7.77,42,7.77S317.68,118.72,278.16,105.74Z"/><path class="cls-25" d="M198.91,136.27c-4.53.53-9.86-12.38-21.28-12.38S161.88,110,161.88,105.46s46.55-15.11,54.18-3C222.15,112.1,212.34,134.71,198.91,136.27Z"/><path class="cls-5" d="M205.16,97.77c-7.91,1-8.75,9-21.81,9S168.94,109,168.94,101s10.59-14.43,23.66-14.43S212.44,96.84,205.16,97.77Z"/><path class="cls-4" d="M198.43,136.87s10.21-1.89,15.86-2.06,84.39-7.74,70.86-19.81c-4.56-4.07-11.78-15.66-11.78-15.66s6.32-3.41,15.75,14.26-57.67,28.59-57.67,28.59-25.53,5.33-28.39,2.58S194.22,139,198.43,136.87Z"/><path class="cls-5" d="M225.32,93.12s8,3.1,15.8,12,15,.92,14.22-3.08S238.39,90.85,225.32,93.12Z"/><path class="cls-2" d="M253.15,251.13s-3.71,39-22.21,61.74c-4.38,5.38-33.91,15.32-34.46,13.07s-7.1,10.8-7.1,10.8,11.42-5.85,13.69-4.5,20.24-5.4,20.24-5.4-18.63,17.55-21.5,18-4.4,15.3,0,13.5S224.36,332.24,233,334s5.87,15.3,8.34,17.1,7.32,7.35,7.32,7.35,3.77-4.2,2.66-9.15-8.8-15.75-7.09-28.8,19.87-47.81,19.87-47.81Z"/><path class="cls-26" d="M278.07,215.88C276.65,240,260.91,293,252.6,292.44s-5.85,2.3-4.43-21.77-.94-65.57,7.37-65S279.49,191.8,278.07,215.88Z"/><path class="cls-4" d="M262.42,245.38c1.05,2.82,1.74,19.11-7.52,39.81-2.28,5.1,13.88-27.81,17-41.81s4.84-30.09,1.19-26C266.56,224.8,257.46,232,262.42,245.38Z"/><path class="cls-5" d="M262.35,216.39s-8.58,29.61-9.37,45,5.73,7.7,5.53,0S261.25,218.83,262.35,216.39Z"/><path class="cls-4" d="M262.81,214.46s5,6.51,8.38-.23,4.33-1.44,4.62.11,0,14.61,0,14.61,1.4-10.76,1.4-13.39-1.67-20.14-4.43-16.65-26.27.24-26.09,8.53c0,.91,1.8,10.62,0,16.2-1.51,4.7,3.48,25.62,3.76,34,0,0,.3-34.55,1.21-37.37C255.07,209.62,262.45,213.59,262.81,214.46Z"/><path class="cls-4" d="M235.94,321.08c-3.6,2.9-6.69,10.7-3.18,10.7s10.31,5.17,13.56,14,2.7,0,2.7,0-9.27-19.92-8.42-23.33,14.27-32.78,14.27-32.78S240.11,317.73,235.94,321.08Z"/><path class="cls-5" d="M201.43,357s2.3-7.13,5.13-8.62-3.49-5-5.53-2.17S199.28,351.87,201.43,357Z"/><path class="cls-5" d="M250.43,285.72S239,308.34,231.22,316.06c-10.67,10.58,3.05,3.22,7.37-3C248.08,299.4,248.56,287.56,250.43,285.72Z"/><path class="cls-5" d="M196,326s7.39,2.17,3.92,2.38c-2.87.18-9.34,7-9.34,7S192.93,328.43,196,326Z"/><path class="cls-4" d="M216,324.69s-1.69,2.05-11.06,5.52c-5.25,2,13.45-3,13.45-3s6.9-2.47,5.21-3.53S218.71,321.35,216,324.69Z"/><path class="cls-4" d="M213.27,342.77s-1.79,4.63,2.58,1,20.05-14.45,20.05-14.45,1.74-6.7,0-6.17S214.8,340.07,213.27,342.77Z"/><path class="cls-5" d="M248.81,356.34s-2.09-7.13-4.66-8.62,3.17-5,5-2.17S250.77,351.19,248.81,356.34Z"/></g></g></svg>